{"glyphs":{"0":{"ha":833,"x_min":99,"x_max":735,"o":"m 417 -17 q 183 103 268 -17 q 99 446 99 224 q 183 786 99 669 q 417 903 268 903 q 650 786 565 903 q 735 446 735 669 q 650 103 735 224 q 417 -17 565 -17 m 417 75 q 569 165 510 75 q 628 446 628 256 q 613 610 628 542 q 569 724 597 679 q 501 790 540 769 q 417 811 463 811 q 332 790 371 811 q 265 724 293 769 q 221 610 236 679 q 206 446 206 542 q 265 165 206 256 q 417 75 324 75 m 417 363 q 356 387 382 363 q 331 456 331 411 q 356 523 331 499 q 417 547 382 547 q 477 523 451 547 q 503 456 503 499 q 477 387 503 411 q 417 363 451 363 z "},"1":{"ha":833,"x_min":135,"x_max":736,"o":"m 135 0 l 135 94 l 390 94 l 390 747 l 192 747 l 192 821 q 324 847 271 832 q 419 886 376 863 l 504 886 l 504 94 l 736 94 l 736 0 l 135 0 z "},"2":{"ha":833,"x_min":96,"x_max":725,"o":"m 101 0 l 101 68 q 301 249 214 168 q 447 397 388 329 q 536 522 506 464 q 567 636 567 581 q 519 761 567 713 q 374 810 472 810 q 258 778 311 810 q 161 703 204 747 l 96 768 q 224 866 156 829 q 388 903 293 903 q 508 884 454 903 q 599 831 561 865 q 656 749 636 797 q 676 642 676 700 q 647 516 676 579 q 563 385 617 453 q 433 245 508 318 q 268 90 358 172 q 351 96 310 93 q 433 99 393 99 l 725 99 l 725 0 l 101 0 z "},"3":{"ha":833,"x_min":79,"x_max":719,"o":"m 399 -17 q 206 22 283 -17 q 79 108 128 60 l 138 183 q 244 110 182 142 q 392 78 306 78 q 476 90 438 78 q 544 122 515 101 q 588 173 572 143 q 604 240 604 203 q 587 312 604 279 q 531 368 569 344 q 431 404 492 392 q 282 417 369 417 l 282 504 q 416 517 361 504 q 506 551 471 529 q 556 604 540 574 q 572 669 572 635 q 523 772 572 735 q 392 810 474 810 q 274 785 329 810 q 174 719 218 760 l 113 792 q 239 872 168 840 q 396 903 310 903 q 512 888 458 903 q 605 844 565 872 q 667 774 644 815 q 689 678 689 732 q 636 546 689 597 q 500 467 583 494 l 500 461 q 584 433 544 451 q 654 385 624 414 q 702 319 685 357 q 719 236 719 282 q 694 131 719 178 q 626 51 669 83 q 524 1 582 18 q 399 -17 465 -17 z "},"4":{"ha":833,"x_min":54,"x_max":757,"o":"m 511 0 l 511 244 l 54 244 l 54 321 l 497 886 l 619 886 l 619 336 l 757 336 l 757 244 l 619 244 l 619 0 l 511 0 m 181 336 l 511 336 l 511 611 q 514 690 513 647 q 518 768 515 732 l 511 768 q 467 703 490 736 q 421 639 443 671 l 181 336 z "},"5":{"ha":833,"x_min":78,"x_max":725,"o":"m 397 -17 q 290 -6 338 -17 q 203 21 242 4 q 134 59 165 38 q 78 104 103 81 l 135 179 q 182 141 157 160 q 237 108 207 122 q 303 86 267 94 q 385 78 340 78 q 473 92 432 78 q 544 133 514 107 q 592 197 575 160 q 610 281 610 235 q 551 424 610 372 q 392 475 492 475 q 297 461 336 475 q 211 421 258 447 l 150 460 l 179 886 l 681 886 l 681 788 l 281 788 l 257 525 q 333 551 296 542 q 421 561 369 561 q 540 544 485 561 q 637 494 596 528 q 701 408 678 460 q 725 283 725 356 q 698 156 725 211 q 625 62 671 100 q 520 3 579 24 q 397 -17 461 -17 z "},"6":{"ha":833,"x_min":107,"x_max":742,"o":"m 446 -17 q 312 10 374 -17 q 204 90 250 36 q 133 223 158 143 q 107 410 107 303 q 138 637 107 543 q 219 790 168 731 q 338 876 271 849 q 478 903 406 903 q 620 876 560 903 q 725 808 681 849 l 661 738 q 581 788 626 769 q 485 807 535 807 q 383 788 432 807 q 298 724 335 768 q 238 606 261 679 q 214 426 215 533 q 333 510 268 479 q 465 542 399 542 q 577 524 526 542 q 665 473 628 507 q 722 388 701 439 q 742 268 742 336 q 717 152 742 204 q 653 63 693 100 q 559 4 613 25 q 446 -17 506 -17 m 446 74 q 519 88 485 74 q 579 127 554 101 q 619 188 604 153 q 633 268 633 224 q 585 408 633 360 q 444 456 536 456 q 331 428 392 456 q 218 336 271 400 q 290 140 231 207 q 446 74 349 74 z "},"7":{"ha":833,"x_min":97,"x_max":739,"o":"m 314 0 q 338 230 319 126 q 390 426 356 333 q 478 607 425 519 q 608 788 532 694 l 97 788 l 97 886 l 739 886 l 739 815 q 594 624 651 715 q 503 437 538 532 q 453 236 468 342 q 433 0 438 131 l 314 0 z "},"8":{"ha":833,"x_min":94,"x_max":738,"o":"m 419 -17 q 284 1 344 -17 q 182 52 224 19 q 117 129 140 85 q 94 226 94 174 q 111 308 94 272 q 154 374 128 344 q 215 424 181 403 q 285 463 249 446 l 285 468 q 190 553 229 503 q 150 675 150 604 q 170 768 150 726 q 227 840 190 810 q 314 886 264 869 q 424 903 364 903 q 540 885 489 903 q 626 837 590 868 q 680 762 661 806 q 699 667 699 718 q 659 549 699 604 q 564 456 619 494 l 564 450 q 632 411 600 432 q 688 364 664 390 q 724 302 711 338 q 738 219 738 267 q 716 126 738 169 q 654 51 694 83 q 555 1 614 19 q 419 -17 496 -17 m 489 483 q 600 661 600 564 q 554 773 600 728 q 421 818 508 818 q 300 779 346 818 q 254 675 254 740 q 272 606 254 635 q 322 556 290 578 q 397 516 354 533 q 489 483 439 499 m 422 68 q 575 111 522 68 q 628 224 628 154 q 606 301 628 269 q 547 354 585 332 q 459 394 510 376 q 350 431 408 411 q 242 349 285 394 q 199 238 199 304 q 259 115 199 163 q 422 68 319 68 z "},"9":{"ha":833,"x_min":93,"x_max":728,"o":"m 390 431 q 503 458 443 431 q 617 549 563 486 q 545 746 603 679 q 389 813 488 813 q 315 799 349 813 q 256 759 281 785 q 216 697 231 733 q 201 618 201 661 q 249 478 201 526 q 390 431 297 431 m 357 -17 q 215 10 275 -17 q 110 76 154 36 l 174 149 q 253 97 207 117 q 350 78 299 78 q 451 97 403 78 q 535 162 499 117 q 594 279 572 207 q 619 458 617 351 q 501 375 565 406 q 368 344 436 344 q 256 362 307 344 q 169 413 206 379 q 113 499 133 447 q 93 618 93 550 q 117 734 93 682 q 181 824 140 786 q 276 882 222 861 q 388 903 329 903 q 522 876 460 903 q 631 797 585 850 q 702 663 676 743 q 728 476 728 583 q 697 249 728 343 q 614 97 665 156 q 496 10 563 38 q 357 -17 429 -17 z "}," ":{"ha":833,"x_min":0,"x_max":0,"o":""},"!":{"ha":833,"x_min":315,"x_max":518,"o":"m 378 322 l 364 800 l 361 931 l 472 931 l 469 800 l 456 322 l 378 322 m 417 -17 q 345 13 375 -17 q 315 92 315 42 q 345 169 315 140 q 417 197 375 197 q 488 169 458 197 q 518 92 518 140 q 488 13 518 42 q 417 -17 458 -17 z "},"\"":{"ha":833,"x_min":182,"x_max":653,"o":"m 219 489 l 185 801 l 182 954 l 335 954 l 332 801 l 297 489 l 219 489 m 538 489 l 503 801 l 500 954 l 653 954 l 650 801 l 615 489 l 538 489 z "},"#":{"ha":833,"x_min":121,"x_max":721,"o":"m 456 0 l 490 283 l 307 283 l 272 0 l 197 0 l 232 283 l 121 283 l 121 363 l 242 363 l 267 568 l 149 568 l 149 649 l 276 649 l 308 903 l 382 903 l 351 649 l 535 649 l 567 903 l 640 903 l 610 649 l 721 649 l 721 568 l 600 568 l 575 363 l 693 363 l 693 283 l 565 283 l 531 0 l 456 0 m 500 363 l 525 568 l 342 568 l 317 363 l 500 363 z "},"$":{"ha":833,"x_min":118,"x_max":711,"o":"m 118 157 l 172 236 q 288 170 225 199 q 431 142 351 142 q 556 176 514 142 q 599 263 599 210 q 566 334 599 306 q 485 385 533 363 q 378 428 436 407 q 272 477 321 449 q 191 545 224 506 q 158 646 158 585 q 220 789 158 733 q 383 856 282 844 l 383 1039 l 467 1039 l 467 857 q 594 821 543 850 q 688 751 646 792 l 626 685 q 581 717 603 703 q 536 742 560 732 q 485 758 513 753 q 422 764 457 764 q 310 733 351 764 q 269 649 269 701 q 302 585 269 610 q 384 539 335 560 q 490 497 433 518 q 597 447 547 476 q 678 376 646 418 q 711 271 711 335 q 694 188 711 226 q 644 122 676 150 q 566 74 611 93 q 467 50 521 56 l 467 -153 l 383 -153 l 383 49 q 236 86 306 56 q 118 157 167 117 z "},"%":{"ha":833,"x_min":39,"x_max":796,"o":"m 232 446 q 93 507 147 446 q 39 676 39 568 q 93 844 39 785 q 232 903 147 903 q 371 844 317 903 q 425 676 425 785 q 371 507 425 568 q 232 446 317 446 m 232 515 q 308 555 276 515 q 340 676 340 594 q 308 797 340 760 q 232 835 276 835 q 156 797 188 835 q 124 676 124 760 q 156 555 124 594 q 232 515 188 515 m 107 44 l 39 107 l 293 368 l 339 326 l 107 44 m 540 543 l 494 585 l 726 867 l 794 804 l 540 543 m 603 -17 q 464 44 518 -17 q 410 214 410 106 q 464 381 410 322 q 603 440 518 440 q 742 381 688 440 q 796 214 796 322 q 742 44 796 106 q 603 -17 688 -17 m 603 53 q 679 92 647 53 q 711 214 711 132 q 679 335 711 297 q 603 372 647 372 q 526 335 558 372 q 494 214 494 297 q 526 92 494 132 q 603 53 558 53 z "},"&":{"ha":833,"x_min":58,"x_max":801,"o":"m 331 -17 q 219 2 269 -17 q 134 54 169 21 q 78 134 99 88 q 58 236 58 181 q 72 318 58 281 q 110 387 86 356 q 165 445 135 418 q 229 497 196 472 q 184 609 200 554 q 168 713 168 664 q 183 797 168 758 q 223 865 197 836 q 285 911 249 894 q 368 928 322 928 q 499 878 453 928 q 544 747 544 828 q 527 667 544 703 q 482 598 510 631 q 419 537 454 565 q 349 481 385 508 q 451 344 393 410 q 571 225 508 279 q 638 347 610 281 q 686 492 667 413 l 792 492 q 731 319 767 401 q 644 165 694 238 q 801 78 728 101 l 769 -17 q 579 88 679 11 q 469 11 529 39 q 331 -17 408 -17 m 267 714 q 278 636 267 676 q 308 554 289 596 q 363 597 338 575 q 409 641 389 618 q 440 690 429 664 q 451 746 451 715 q 433 816 451 786 q 368 846 414 846 q 293 808 319 846 q 267 714 267 771 m 344 75 q 428 94 388 75 q 504 147 468 114 q 378 275 438 206 q 272 419 319 344 q 199 338 228 381 q 169 243 169 296 q 183 174 169 206 q 221 121 197 143 q 276 87 244 99 q 344 75 308 75 z "},"'":{"ha":833,"x_min":340,"x_max":493,"o":"m 378 489 l 343 801 l 340 954 l 493 954 l 490 801 l 456 489 l 378 489 z "},"(":{"ha":833,"x_min":289,"x_max":664,"o":"m 601 -244 q 373 26 457 -132 q 289 386 289 185 q 373 746 289 588 q 601 1017 457 904 l 664 958 q 458 701 524 840 q 392 386 392 563 q 458 71 392 210 q 664 -186 524 -68 l 601 -244 z "},")":{"ha":833,"x_min":169,"x_max":544,"o":"m 232 -244 l 169 -186 q 376 71 310 -68 q 442 386 442 210 q 376 701 442 563 q 169 958 310 840 l 232 1017 q 460 746 376 904 q 544 386 544 588 q 460 26 544 185 q 232 -244 376 -132 z "},"*":{"ha":833,"x_min":117,"x_max":717,"o":"m 250 154 l 192 196 l 342 425 l 117 522 l 139 586 l 371 510 l 383 772 l 450 772 l 463 510 l 694 586 l 717 522 l 492 425 l 642 196 l 583 154 l 417 375 l 250 154 z "},"+":{"ha":833,"x_min":118,"x_max":715,"o":"m 371 144 l 371 415 l 118 415 l 118 501 l 371 501 l 371 772 l 463 772 l 463 501 l 715 501 l 715 415 l 463 415 l 463 144 l 371 144 z "},",":{"ha":833,"x_min":274,"x_max":550,"o":"m 306 -296 l 274 -224 q 403 -130 360 -185 q 449 8 446 -75 q 435 6 442 6 q 422 6 429 6 q 346 31 378 6 q 314 110 314 57 q 347 188 314 161 q 425 215 381 215 q 519 167 488 215 q 550 38 550 119 q 485 -169 550 -85 q 306 -296 421 -253 z "},"-":{"ha":833,"x_min":118,"x_max":715,"o":"m 118 415 l 118 501 l 715 501 l 715 415 l 118 415 z "},".":{"ha":833,"x_min":304,"x_max":529,"o":"m 417 -17 q 337 15 369 -17 q 304 100 304 47 q 337 185 304 153 q 417 218 369 218 q 497 185 464 218 q 529 100 529 153 q 497 15 529 47 q 417 -17 464 -17 z "},"/":{"ha":833,"x_min":138,"x_max":696,"o":"m 138 -222 l 593 986 l 696 986 l 240 -222 l 138 -222 z "},":":{"ha":833,"x_min":304,"x_max":529,"o":"m 417 481 q 337 513 369 481 q 304 597 304 544 q 337 683 304 650 q 417 715 369 715 q 497 683 464 715 q 529 597 529 650 q 497 513 529 544 q 417 481 464 481 m 417 -17 q 337 15 369 -17 q 304 100 304 47 q 337 185 304 153 q 417 218 369 218 q 497 185 464 218 q 529 100 529 153 q 497 15 529 47 q 417 -17 464 -17 z "},";":{"ha":833,"x_min":274,"x_max":550,"o":"m 417 481 q 337 513 369 481 q 304 597 304 544 q 337 683 304 650 q 417 715 369 715 q 497 683 464 715 q 529 597 529 650 q 497 513 529 544 q 417 481 464 481 m 306 -296 l 274 -224 q 403 -130 360 -185 q 449 8 446 -75 q 435 6 442 6 q 422 6 429 6 q 346 31 378 6 q 314 110 314 57 q 347 188 314 161 q 425 215 381 215 q 519 167 488 215 q 550 38 550 119 q 485 -169 550 -85 q 306 -296 421 -253 z "},"<":{"ha":833,"x_min":167,"x_max":685,"o":"m 685 67 l 167 418 l 167 504 l 685 856 l 685 746 l 267 464 l 267 458 l 685 176 l 685 67 z "},"=":{"ha":833,"x_min":118,"x_max":715,"o":"m 118 564 l 118 650 l 715 650 l 715 564 l 118 564 m 118 268 l 118 354 l 715 354 l 715 268 l 118 268 z "},">":{"ha":833,"x_min":149,"x_max":667,"o":"m 149 67 l 149 176 l 567 458 l 567 464 l 149 746 l 149 856 l 667 504 l 667 418 l 149 67 z "},"?":{"ha":833,"x_min":151,"x_max":665,"o":"m 336 322 q 340 411 328 372 q 377 482 353 450 q 432 542 401 514 q 490 597 463 569 q 535 653 517 624 q 553 718 553 682 q 515 815 553 776 q 400 853 476 853 q 302 831 347 853 q 219 772 257 810 l 151 835 q 263 915 199 883 q 407 947 326 947 q 513 932 465 947 q 594 888 560 917 q 647 820 628 860 q 665 731 665 781 q 647 647 665 683 q 601 581 628 611 q 542 523 574 550 q 485 466 511 496 q 445 401 460 436 q 438 322 431 367 l 336 322 m 397 -17 q 326 13 356 -17 q 296 92 296 42 q 326 169 296 140 q 397 197 356 197 q 469 169 439 197 q 499 92 499 140 q 469 13 499 42 q 397 -17 439 -17 z "},"@":{"ha":833,"x_min":68,"x_max":758,"o":"m 474 -200 q 318 -165 392 -200 q 189 -60 244 -129 q 101 111 133 8 q 68 347 68 214 q 99 581 68 481 q 186 747 131 681 q 316 848 242 814 q 476 882 390 882 q 601 857 549 882 q 689 788 654 832 q 741 683 724 743 q 758 551 758 622 l 758 139 l 689 139 l 679 219 l 674 219 q 594 151 643 181 q 490 122 544 122 q 420 135 453 122 q 363 171 388 147 q 325 228 339 194 q 311 304 311 263 q 406 465 311 411 q 678 542 500 519 l 678 561 q 666 656 678 611 q 629 733 654 700 q 565 786 604 767 q 471 806 525 806 q 351 776 408 806 q 251 690 294 747 q 181 545 207 632 q 156 343 156 458 q 181 145 156 232 q 249 -1 206 58 q 350 -92 292 -61 q 476 -124 408 -124 q 585 -108 539 -124 q 672 -61 632 -92 l 711 -124 q 600 -181 657 -161 q 474 -200 543 -200 m 514 203 q 669 292 592 203 l 669 467 q 464 409 525 447 q 403 307 403 371 q 433 231 403 258 q 514 203 463 203 z "},"A":{"ha":833,"x_min":44,"x_max":789,"o":"m 322 510 l 279 371 l 551 371 l 508 510 q 462 662 485 586 q 418 817 439 738 l 413 817 q 368 662 390 738 q 322 510 346 586 m 44 0 l 351 911 l 482 911 l 789 0 l 667 0 l 581 278 l 250 278 l 163 0 l 44 0 z "},"B":{"ha":833,"x_min":138,"x_max":760,"o":"m 138 0 l 138 911 l 396 911 q 523 899 465 911 q 622 860 581 886 q 685 791 663 833 q 708 689 708 749 q 669 566 708 621 q 549 490 631 511 l 549 485 q 704 415 649 469 q 760 267 760 361 q 735 150 760 200 q 665 67 710 100 q 556 17 619 33 q 417 0 493 0 l 138 0 m 253 528 l 376 528 q 544 565 493 528 q 594 679 594 603 q 541 784 594 754 q 382 814 488 814 l 253 814 l 253 528 m 253 97 l 400 97 q 582 138 518 97 q 646 272 646 179 q 583 394 646 357 q 400 431 521 431 l 253 431 l 253 97 z "},"C":{"ha":833,"x_min":90,"x_max":769,"o":"m 488 -17 q 331 15 403 -17 q 205 108 258 47 q 121 256 151 168 q 90 456 90 344 q 121 653 90 565 q 206 801 151 740 q 335 895 260 863 q 499 928 410 928 q 644 894 581 928 q 747 817 707 861 l 682 743 q 601 803 646 781 q 499 826 557 826 q 380 801 433 826 q 289 727 326 775 q 231 611 251 679 q 210 458 210 543 q 231 303 210 372 q 289 186 251 235 q 380 111 326 138 q 499 85 433 85 q 610 111 561 85 q 704 186 660 138 l 769 115 q 647 18 715 53 q 488 -17 579 -17 z "},"D":{"ha":833,"x_min":121,"x_max":768,"o":"m 121 0 l 121 911 l 346 911 q 660 794 553 911 q 768 460 768 678 q 660 121 768 242 q 351 0 553 0 l 121 0 m 236 94 l 338 94 q 572 190 494 94 q 649 460 649 286 q 572 725 649 633 q 338 817 494 817 l 236 817 l 236 94 z "},"E":{"ha":833,"x_min":158,"x_max":736,"o":"m 158 0 l 158 911 l 722 911 l 722 814 l 275 814 l 275 528 l 653 528 l 653 429 l 275 429 l 275 99 l 736 99 l 736 0 l 158 0 z "},"F":{"ha":833,"x_min":185,"x_max":744,"o":"m 185 0 l 185 911 l 744 911 l 744 814 l 301 814 l 301 506 l 676 506 l 676 408 l 301 408 l 301 0 l 185 0 z "},"G":{"ha":833,"x_min":74,"x_max":740,"o":"m 468 -17 q 310 15 382 -17 q 185 108 238 47 q 103 256 132 168 q 74 456 74 344 q 103 653 74 565 q 187 802 133 742 q 315 895 240 863 q 478 928 389 928 q 561 918 524 928 q 630 892 599 908 q 685 857 661 876 q 729 817 710 838 l 664 743 q 588 803 631 779 q 478 826 544 826 q 362 801 414 826 q 272 727 310 775 q 215 611 235 679 q 194 458 194 543 q 213 303 194 372 q 267 186 232 235 q 356 111 303 138 q 475 85 408 85 q 565 99 524 85 q 633 139 607 114 l 633 376 l 451 376 l 451 472 l 740 472 l 740 89 q 627 14 697 44 q 468 -17 557 -17 z "},"H":{"ha":833,"x_min":110,"x_max":724,"o":"m 110 0 l 110 911 l 226 911 l 226 529 l 607 529 l 607 911 l 724 911 l 724 0 l 607 0 l 607 429 l 226 429 l 226 0 l 110 0 z "},"I":{"ha":833,"x_min":132,"x_max":701,"o":"m 132 0 l 132 99 l 358 99 l 358 814 l 132 814 l 132 911 l 701 911 l 701 814 l 475 814 l 475 99 l 701 99 l 701 0 l 132 0 z "},"J":{"ha":833,"x_min":113,"x_max":685,"o":"m 383 -17 q 233 19 307 -17 q 113 135 160 56 l 185 206 q 276 114 224 143 q 381 85 328 85 q 524 137 479 85 q 569 301 569 189 l 569 815 l 188 815 l 188 913 l 685 913 l 685 292 q 669 172 685 228 q 619 74 654 115 q 526 8 583 32 q 383 -17 468 -17 z "},"K":{"ha":833,"x_min":136,"x_max":806,"o":"m 136 0 l 136 911 l 253 911 l 253 454 l 257 454 l 640 911 l 772 911 l 483 565 l 806 0 l 675 0 l 410 478 l 253 290 l 253 0 l 136 0 z "},"L":{"ha":833,"x_min":186,"x_max":751,"o":"m 186 0 l 186 911 l 300 911 l 300 99 l 751 99 l 751 0 l 186 0 z "},"M":{"ha":833,"x_min":100,"x_max":733,"o":"m 100 0 l 100 911 l 242 911 l 369 522 l 414 375 l 419 375 l 463 522 l 592 911 l 733 911 l 733 0 l 622 0 l 622 456 q 624 533 622 489 q 630 621 626 576 q 636 707 633 665 q 642 778 639 749 l 638 778 l 586 600 l 456 242 l 372 242 l 244 600 l 192 778 l 189 778 q 195 707 192 749 q 201 621 199 665 q 206 533 204 576 q 208 456 208 489 l 208 0 l 100 0 z "},"N":{"ha":833,"x_min":114,"x_max":719,"o":"m 114 0 l 114 911 l 242 911 l 533 339 l 621 150 l 624 150 q 615 292 621 218 q 608 439 608 367 l 608 911 l 719 911 l 719 0 l 592 0 l 300 572 l 213 761 l 210 761 q 219 619 213 690 q 225 476 225 547 l 225 0 l 114 0 z "},"O":{"ha":833,"x_min":67,"x_max":767,"o":"m 417 -17 q 275 16 339 -17 q 165 110 211 49 q 92 259 118 171 q 67 460 67 347 q 92 657 67 569 q 165 804 118 744 q 275 896 211 864 q 417 928 339 928 q 558 896 493 928 q 669 804 622 864 q 741 657 715 744 q 767 460 767 569 q 741 259 767 347 q 669 110 715 171 q 558 16 622 49 q 417 -17 493 -17 m 417 85 q 511 110 468 85 q 584 185 554 136 q 631 303 614 233 q 647 460 647 372 q 631 614 647 546 q 584 729 614 682 q 511 801 554 776 q 417 826 468 826 q 322 801 364 826 q 249 729 279 776 q 203 614 219 682 q 186 460 186 546 q 203 303 186 372 q 249 185 219 233 q 322 110 279 136 q 417 85 364 85 z "},"P":{"ha":833,"x_min":142,"x_max":754,"o":"m 142 0 l 142 911 l 417 911 q 554 897 492 911 q 661 852 617 883 q 730 769 706 821 q 754 643 754 718 q 730 518 754 571 q 660 431 706 465 q 553 378 615 396 q 417 361 492 361 l 257 361 l 257 0 l 142 0 m 257 456 l 403 456 q 581 501 524 456 q 638 643 638 546 q 579 780 638 742 q 403 818 521 818 l 257 818 l 257 456 z "},"Q":{"ha":833,"x_min":69,"x_max":771,"o":"m 417 79 q 584 179 522 79 q 646 460 646 279 q 584 731 646 632 q 417 829 522 829 q 249 731 311 829 q 188 460 188 632 q 249 179 188 279 q 417 79 311 79 m 668 -226 q 471 -165 547 -226 q 361 -12 394 -104 q 241 36 294 -1 q 149 134 188 74 q 90 276 111 194 q 69 460 69 358 q 94 657 69 569 q 165 805 119 744 q 275 897 211 865 q 417 929 339 929 q 558 897 494 929 q 668 805 622 865 q 739 657 714 744 q 764 460 764 569 q 744 280 764 361 q 687 139 724 199 q 599 41 650 79 q 483 -10 547 3 q 558 -99 507 -69 q 681 -128 610 -128 q 719 -124 701 -128 q 749 -114 736 -119 l 771 -207 q 722 -221 747 -215 q 668 -226 697 -226 z "},"R":{"ha":833,"x_min":139,"x_max":768,"o":"m 139 0 l 139 911 l 422 911 q 550 898 492 911 q 651 854 608 885 q 717 775 693 824 q 740 656 740 726 q 685 485 740 549 q 536 397 629 421 l 768 0 l 636 0 l 417 385 l 254 385 l 254 0 l 139 0 m 254 479 l 406 479 q 569 523 513 479 q 625 656 625 567 q 569 782 625 746 q 406 818 513 818 l 254 818 l 254 479 z "},"S":{"ha":833,"x_min":93,"x_max":746,"o":"m 424 -17 q 240 19 324 -17 q 93 118 156 56 l 163 199 q 282 116 214 147 q 429 85 350 85 q 576 125 524 85 q 628 229 628 165 q 615 290 628 265 q 581 333 603 315 q 528 365 558 351 q 464 394 499 379 l 333 451 q 264 485 299 465 q 201 532 229 504 q 154 598 172 560 q 136 686 136 636 q 158 782 136 738 q 220 859 181 826 q 315 910 260 892 q 435 928 369 928 q 593 897 521 928 q 715 815 665 865 l 654 740 q 556 803 610 781 q 431 826 501 826 q 303 791 351 826 q 254 693 254 756 q 269 637 254 660 q 306 597 283 614 q 358 567 329 579 q 417 542 388 554 l 544 486 q 623 448 586 469 q 687 398 660 426 q 730 331 714 369 q 746 243 746 293 q 724 142 746 189 q 660 59 701 94 q 558 3 618 24 q 424 -17 499 -17 z "},"T":{"ha":833,"x_min":58,"x_max":775,"o":"m 358 0 l 358 814 l 58 814 l 58 911 l 775 911 l 775 814 l 475 814 l 475 0 l 358 0 z "},"U":{"ha":833,"x_min":110,"x_max":724,"o":"m 418 -17 q 294 3 351 -17 q 197 66 238 22 q 133 178 156 110 q 110 344 110 246 l 110 911 l 226 911 l 226 342 q 241 222 226 271 q 281 142 256 172 q 342 99 307 113 q 418 85 376 85 q 494 99 460 85 q 556 142 529 113 q 597 222 582 172 q 611 342 611 271 l 611 911 l 724 911 l 724 344 q 701 178 724 246 q 638 66 678 110 q 541 3 597 22 q 418 -17 485 -17 z "},"V":{"ha":833,"x_min":60,"x_max":774,"o":"m 350 0 l 60 911 l 182 911 l 329 419 q 372 268 353 338 q 417 118 392 199 l 422 118 q 446 195 435 158 q 467 268 457 232 q 488 342 478 304 q 510 419 499 379 l 656 911 l 774 911 l 485 0 l 350 0 z "},"W":{"ha":833,"x_min":14,"x_max":819,"o":"m 153 0 l 14 913 l 144 913 l 211 340 q 217 288 214 311 q 222 240 219 264 q 226 189 224 215 q 229 129 228 163 l 233 129 q 244 189 239 163 q 255 240 250 215 q 265 288 260 264 q 278 339 271 311 l 367 678 l 478 678 l 564 339 q 576 288 571 311 q 587 240 582 264 q 597 189 592 215 q 608 129 601 163 l 614 129 q 617 189 615 163 q 622 240 619 215 q 626 288 624 264 q 631 339 628 311 l 694 913 l 819 913 l 686 0 l 542 0 l 453 367 q 434 449 442 408 q 419 531 426 489 l 415 531 q 401 449 408 489 q 383 367 394 408 l 294 0 l 153 0 z "},"X":{"ha":833,"x_min":75,"x_max":758,"o":"m 75 0 l 347 471 l 93 911 l 221 911 l 349 678 q 383 616 367 646 q 422 546 400 586 l 428 546 q 462 616 447 586 q 493 678 476 646 l 618 911 l 740 911 l 486 465 l 758 0 l 631 0 l 493 246 q 455 315 474 279 q 413 392 436 350 l 407 392 q 369 315 388 350 q 333 246 351 279 l 197 0 l 75 0 z "},"Y":{"ha":833,"x_min":53,"x_max":781,"o":"m 358 0 l 358 325 l 53 911 l 175 911 l 313 640 q 364 535 339 588 q 417 428 389 483 l 422 428 q 476 536 450 483 q 529 642 503 589 l 661 911 l 781 911 l 475 325 l 475 0 l 358 0 z "},"Z":{"ha":833,"x_min":90,"x_max":749,"o":"m 90 0 l 90 69 l 599 815 l 135 815 l 135 913 l 742 913 l 742 843 l 232 99 l 749 99 l 749 0 l 90 0 z "},"[":{"ha":833,"x_min":313,"x_max":697,"o":"m 313 -211 l 313 983 l 697 983 l 697 918 l 404 918 l 404 -146 l 697 -146 l 697 -211 l 313 -211 z "},"\\":{"ha":833,"x_min":138,"x_max":696,"o":"m 593 -222 l 138 986 l 240 986 l 696 -222 l 593 -222 z "},"]":{"ha":833,"x_min":136,"x_max":521,"o":"m 136 -211 l 136 -146 l 429 -146 l 429 918 l 136 918 l 136 983 l 521 983 l 521 -211 l 136 -211 z "},"^":{"ha":833,"x_min":154,"x_max":679,"o":"m 154 394 l 367 931 l 467 931 l 679 394 l 579 394 l 488 639 l 419 824 l 414 824 l 346 639 l 254 394 l 154 394 z "},"_":{"ha":833,"x_min":83,"x_max":750,"o":"m 83 -194 l 83 -96 l 750 -96 l 750 -194 l 83 -194 z "},"`":{"ha":833,"x_min":228,"x_max":506,"o":"m 446 789 l 228 1001 l 308 1079 l 506 846 l 446 789 z "},"a":{"ha":833,"x_min":113,"x_max":715,"o":"m 342 -17 q 253 -3 294 -17 q 180 34 211 10 q 131 94 149 58 q 113 175 113 129 q 140 274 113 232 q 226 347 167 317 q 378 397 285 378 q 601 428 471 417 q 590 493 600 463 q 560 547 581 524 q 505 583 539 569 q 422 597 471 597 q 294 572 356 597 q 186 517 233 546 l 142 594 q 201 628 167 611 q 273 660 235 646 q 354 683 311 674 q 442 692 397 692 q 648 616 581 692 q 715 414 715 540 l 715 0 l 622 0 l 613 92 l 608 92 q 483 15 551 47 q 342 -17 414 -17 m 372 75 q 487 101 431 75 q 601 175 543 126 l 601 353 q 420 329 493 344 q 303 292 347 314 q 242 244 260 271 q 224 183 224 217 q 236 134 224 154 q 269 101 249 114 q 316 81 289 88 q 372 75 343 75 z "},"b":{"ha":833,"x_min":129,"x_max":750,"o":"m 444 -17 q 340 8 396 -17 q 235 75 283 32 l 231 75 l 221 0 l 129 0 l 129 989 l 243 989 l 243 719 l 239 589 l 243 589 q 349 664 289 636 q 469 692 410 692 q 590 667 538 692 q 678 598 643 643 q 732 490 714 553 q 750 349 750 426 q 725 194 750 263 q 658 79 700 126 q 560 8 615 32 q 444 -17 504 -17 m 426 79 q 508 98 471 79 q 574 151 546 117 q 617 235 601 185 q 632 347 632 285 q 621 449 632 403 q 587 527 610 494 q 528 578 564 560 q 442 596 492 596 q 347 572 397 596 q 243 494 296 547 l 243 158 q 341 97 292 115 q 426 79 390 79 z "},"c":{"ha":833,"x_min":111,"x_max":749,"o":"m 481 -17 q 334 7 401 -17 q 217 76 267 31 q 139 187 167 121 q 111 336 111 253 q 141 487 111 421 q 222 599 171 553 q 342 668 274 644 q 488 692 411 692 q 631 663 571 692 q 733 593 692 633 l 676 519 q 590 576 635 556 q 492 597 544 597 q 385 578 433 597 q 302 525 336 560 q 249 442 268 490 q 229 336 229 394 q 248 231 229 278 q 301 149 267 183 q 383 97 335 115 q 489 78 431 78 q 603 102 551 78 q 697 163 656 126 l 749 89 q 624 11 692 39 q 481 -17 556 -17 z "},"d":{"ha":833,"x_min":83,"x_max":704,"o":"m 376 -17 q 256 7 310 -17 q 164 76 203 31 q 104 186 125 121 q 83 336 83 251 q 109 484 83 418 q 177 596 135 550 q 275 667 219 642 q 390 692 331 692 q 499 669 451 692 q 592 604 547 646 l 596 604 l 590 729 l 590 989 l 704 989 l 704 0 l 610 0 l 600 89 l 596 89 q 497 15 554 46 q 376 -17 439 -17 m 400 79 q 590 181 500 79 l 590 517 q 501 578 544 560 q 413 596 457 596 q 330 577 368 596 q 263 524 292 558 q 218 443 235 490 q 201 338 201 396 q 253 147 201 215 q 400 79 306 79 z "},"e":{"ha":833,"x_min":94,"x_max":747,"o":"m 458 -17 q 316 7 382 -17 q 201 76 250 31 q 123 188 151 122 q 94 339 94 254 q 123 486 94 421 q 199 597 151 551 q 309 667 247 643 q 439 692 371 692 q 569 669 511 692 q 666 604 626 646 q 726 504 706 563 q 747 375 747 446 q 746 338 747 356 q 742 306 744 319 l 210 306 q 294 133 221 190 q 472 75 367 75 q 583 92 533 75 q 678 139 632 110 l 719 64 q 605 7 669 31 q 458 -17 540 -17 m 442 601 q 362 588 400 601 q 293 548 324 574 q 242 483 263 522 q 213 394 221 444 l 643 394 q 583 550 636 499 q 442 601 529 601 z "},"f":{"ha":833,"x_min":143,"x_max":803,"o":"m 336 0 l 336 582 l 143 582 l 143 668 l 336 675 l 336 732 q 402 931 336 856 q 608 1006 468 1006 q 803 967 708 1006 l 776 881 q 699 906 735 900 q 619 913 664 913 q 488 866 528 913 q 449 736 449 819 l 449 675 l 732 675 l 732 582 l 449 582 l 449 0 l 336 0 z "},"g":{"ha":833,"x_min":100,"x_max":786,"o":"m 411 -311 q 181 -262 263 -311 q 100 -124 100 -214 q 128 -44 100 -83 q 211 26 157 -6 l 211 32 q 163 74 183 47 q 142 143 142 100 q 163 209 142 175 q 222 269 183 243 l 222 275 q 163 345 188 301 q 139 450 139 389 q 160 550 139 506 q 218 626 182 594 q 302 674 254 657 q 404 692 350 692 q 504 675 460 692 l 783 675 l 783 582 l 608 582 q 649 522 632 558 q 665 446 665 486 q 645 349 665 392 q 590 276 625 306 q 506 230 554 246 q 404 214 458 214 q 348 220 378 214 q 290 239 318 226 q 238 161 238 206 q 274 102 238 121 q 378 83 311 83 l 529 83 q 723 47 660 83 q 786 -75 786 11 q 760 -165 786 -122 q 685 -240 733 -208 q 567 -292 636 -272 q 411 -311 497 -311 m 404 290 q 515 333 469 290 q 560 450 560 376 q 547 514 560 485 q 514 564 535 543 q 465 597 493 585 q 404 608 436 608 q 344 597 372 608 q 294 564 315 585 q 261 514 274 543 q 249 450 249 485 q 294 333 249 376 q 404 290 340 290 m 419 -228 q 525 -217 478 -228 q 606 -187 572 -206 q 656 -144 639 -168 q 674 -93 674 -119 q 635 -28 674 -44 q 519 -11 597 -11 l 388 -11 q 333 -9 358 -11 q 285 0 307 -7 q 217 -55 236 -26 q 199 -112 199 -83 q 255 -197 199 -165 q 419 -228 311 -228 z "},"h":{"ha":833,"x_min":129,"x_max":726,"o":"m 129 0 l 129 989 l 243 989 l 243 719 l 236 560 l 240 560 q 353 654 293 617 q 493 692 414 692 q 670 623 614 692 q 726 419 726 554 l 726 0 l 613 0 l 613 404 q 576 547 613 500 q 457 593 540 593 q 401 585 426 593 q 350 563 375 578 q 299 524 325 547 q 243 471 272 501 l 243 0 l 129 0 z "},"i":{"ha":833,"x_min":125,"x_max":575,"o":"m 439 0 l 439 582 l 125 582 l 125 675 l 553 675 l 553 0 l 439 0 m 483 817 q 418 841 444 817 q 392 906 392 865 q 418 970 392 946 q 483 994 444 994 q 549 970 522 994 q 575 906 575 946 q 549 841 575 865 q 483 817 522 817 z "},"j":{"ha":833,"x_min":76,"x_max":575,"o":"m 269 -301 q 167 -288 217 -301 q 76 -256 117 -275 l 114 -171 q 190 -199 150 -189 q 268 -208 229 -208 q 351 -196 318 -208 q 404 -160 385 -183 q 431 -102 424 -136 q 439 -25 439 -68 l 439 582 l 125 582 l 125 675 l 553 675 l 553 -17 q 539 -131 553 -79 q 492 -222 525 -183 q 406 -281 460 -260 q 269 -301 351 -301 m 483 817 q 418 841 444 817 q 392 906 392 865 q 418 970 392 946 q 483 994 444 994 q 549 970 522 994 q 575 906 575 946 q 549 841 575 865 q 483 817 522 817 z "},"k":{"ha":833,"x_min":147,"x_max":797,"o":"m 147 0 l 147 989 l 261 989 l 261 319 l 267 319 l 631 675 l 761 675 l 492 410 l 797 0 l 669 0 l 421 340 l 261 183 l 261 0 l 147 0 z "},"l":{"ha":833,"x_min":103,"x_max":746,"o":"m 565 -17 q 400 44 457 -17 q 343 226 343 106 l 343 896 l 103 896 l 103 989 l 457 989 l 457 218 q 493 110 457 143 q 590 78 529 78 q 717 108 650 78 l 746 24 q 660 -6 699 4 q 565 -17 621 -17 z "},"m":{"ha":833,"x_min":81,"x_max":775,"o":"m 81 0 l 81 675 l 172 675 l 182 586 l 185 586 q 246 663 211 633 q 339 692 281 692 q 467 575 438 692 q 531 660 496 629 q 625 692 567 692 q 735 638 696 692 q 775 483 775 585 l 775 0 l 661 0 l 661 475 q 589 593 661 593 q 531 567 553 593 q 481 489 508 542 l 481 0 l 375 0 l 375 475 q 359 563 375 533 q 306 593 343 593 q 244 567 269 593 q 194 489 219 542 l 194 0 l 81 0 z "},"n":{"ha":833,"x_min":129,"x_max":726,"o":"m 129 0 l 129 675 l 224 675 l 233 560 l 239 560 q 353 654 292 617 q 493 692 414 692 q 670 623 614 692 q 726 419 726 554 l 726 0 l 613 0 l 613 404 q 576 547 613 500 q 457 593 540 593 q 401 585 426 593 q 350 563 375 578 q 299 524 325 547 q 243 471 272 501 l 243 0 l 129 0 z "},"o":{"ha":833,"x_min":83,"x_max":750,"o":"m 417 -17 q 290 7 350 -17 q 183 76 229 31 q 110 187 138 121 q 83 336 83 253 q 110 487 83 421 q 183 599 138 553 q 290 668 229 644 q 417 692 350 692 q 544 668 483 692 q 650 599 604 644 q 723 487 696 553 q 750 336 750 421 q 723 187 750 253 q 650 76 696 121 q 544 7 604 31 q 417 -17 483 -17 m 417 78 q 505 97 465 78 q 573 149 544 115 q 617 231 601 183 q 632 336 632 278 q 617 442 632 394 q 573 525 601 490 q 505 578 544 560 q 417 597 465 597 q 328 578 368 597 q 260 525 289 560 q 217 442 232 490 q 201 336 201 394 q 217 231 201 278 q 260 149 232 183 q 328 97 289 115 q 417 78 368 78 z "},"p":{"ha":833,"x_min":129,"x_max":750,"o":"m 129 -285 l 129 675 l 224 675 l 233 589 l 238 589 q 347 663 285 633 q 471 692 408 692 q 591 667 539 692 q 678 598 643 643 q 732 490 714 553 q 750 347 750 426 q 725 194 750 261 q 658 79 700 126 q 560 8 615 32 q 443 -17 504 -17 q 341 6 396 -17 q 242 71 286 29 l 238 71 l 243 -57 l 243 -285 l 129 -285 m 424 79 q 574 150 515 79 q 632 347 632 221 q 621 449 632 403 q 587 527 610 494 q 528 578 564 560 q 442 596 492 596 q 347 572 397 596 q 243 494 296 547 l 243 158 q 340 97 292 115 q 424 79 389 79 z "},"q":{"ha":833,"x_min":83,"x_max":704,"o":"m 590 -285 l 590 -39 l 596 86 l 592 86 q 494 13 550 43 q 375 -17 438 -17 q 256 7 310 -17 q 163 76 201 31 q 104 186 125 121 q 83 336 83 251 q 109 484 83 418 q 177 596 135 550 q 275 667 219 642 q 390 692 331 692 q 501 668 453 692 q 599 600 550 644 l 603 600 l 613 675 l 704 675 l 704 -285 l 590 -285 m 400 79 q 590 181 500 79 l 590 517 q 501 578 544 560 q 413 596 457 596 q 330 577 368 596 q 263 524 292 558 q 218 443 235 490 q 201 338 201 396 q 253 147 201 215 q 400 79 306 79 z "},"r":{"ha":833,"x_min":203,"x_max":746,"o":"m 203 0 l 203 675 l 297 675 l 307 515 l 311 515 q 441 644 364 597 q 613 692 518 692 q 682 685 650 692 q 746 664 714 679 l 719 565 q 659 583 683 578 q 594 589 635 589 q 448 545 518 589 q 317 396 378 501 l 317 0 l 203 0 z "},"s":{"ha":833,"x_min":99,"x_max":731,"o":"m 431 -17 q 246 15 331 -17 q 99 89 161 46 l 151 164 q 280 97 210 122 q 444 72 350 72 q 573 103 531 72 q 615 178 615 135 q 608 214 615 197 q 578 246 601 231 q 514 275 556 261 q 404 303 472 289 q 206 377 272 331 q 140 500 140 424 q 158 576 140 540 q 212 637 176 611 q 299 677 247 663 q 421 692 351 692 q 571 666 499 692 q 693 606 643 640 l 638 532 q 533 583 590 564 q 411 603 476 603 q 290 574 325 603 q 256 506 256 544 q 301 438 256 461 q 451 393 347 415 q 590 355 536 375 q 676 310 644 335 q 719 254 707 285 q 731 185 731 224 q 711 107 731 143 q 653 43 692 71 q 559 -1 615 15 q 431 -17 503 -17 z "},"t":{"ha":833,"x_min":96,"x_max":758,"o":"m 547 -17 q 424 3 474 -17 q 343 60 374 24 q 299 149 313 97 q 286 263 286 200 l 286 582 l 96 582 l 96 668 l 290 675 l 306 892 l 400 892 l 400 675 l 732 675 l 732 582 l 400 582 l 400 261 q 408 181 400 215 q 436 124 417 147 q 489 88 456 100 q 571 76 522 76 q 658 85 619 76 q 733 107 697 93 l 758 24 q 662 -5 713 7 q 547 -17 611 -17 z "},"u":{"ha":833,"x_min":107,"x_max":701,"o":"m 342 -17 q 163 52 219 -17 q 107 256 107 121 l 107 675 l 222 675 l 222 271 q 258 128 222 175 q 378 82 293 82 q 483 112 436 82 q 588 207 531 142 l 588 675 l 701 675 l 701 0 l 608 0 l 599 118 l 593 118 q 481 21 542 58 q 342 -17 421 -17 z "},"v":{"ha":833,"x_min":71,"x_max":763,"o":"m 356 0 l 71 675 l 186 675 l 342 292 q 381 191 363 240 q 418 93 400 142 l 424 93 q 459 191 442 142 q 497 292 476 240 l 653 675 l 763 675 l 483 0 l 356 0 z "},"w":{"ha":833,"x_min":11,"x_max":822,"o":"m 158 0 l 11 675 l 125 675 l 206 283 q 222 190 215 235 q 236 97 229 146 l 242 97 q 259 191 249 146 q 281 283 269 236 l 364 633 l 478 633 l 558 283 q 581 190 569 235 q 600 97 593 146 l 606 97 q 620 190 614 146 q 636 283 626 235 l 717 675 l 822 675 l 678 0 l 531 0 l 453 322 q 419 522 436 393 l 414 522 q 381 322 397 393 l 306 0 l 158 0 z "},"x":{"ha":833,"x_min":89,"x_max":743,"o":"m 89 0 l 346 350 l 108 675 l 235 675 l 342 526 q 380 469 360 499 q 421 413 400 440 l 426 413 q 465 471 446 440 q 503 529 485 501 l 604 675 l 725 675 l 485 340 l 743 0 l 618 0 l 500 156 q 456 217 479 185 q 411 278 433 249 l 406 278 q 364 217 385 247 q 322 156 343 188 l 211 0 l 89 0 z "},"y":{"ha":833,"x_min":68,"x_max":765,"o":"m 182 -290 q 93 -276 132 -290 l 117 -186 q 147 -193 131 -190 q 178 -196 163 -196 q 293 -155 249 -196 q 363 -51 338 -114 l 383 -1 l 68 675 l 183 675 l 349 301 q 390 206 368 257 q 432 106 411 154 l 438 106 q 474 205 456 154 q 510 301 493 256 l 657 675 l 765 675 l 468 -56 q 424 -149 449 -106 q 364 -223 399 -192 q 284 -272 329 -254 q 182 -290 239 -290 z "},"z":{"ha":833,"x_min":99,"x_max":738,"o":"m 99 0 l 99 61 l 561 582 l 150 582 l 150 675 l 725 675 l 725 614 l 261 93 l 738 93 l 738 0 l 99 0 z "},"{":{"ha":833,"x_min":167,"x_max":697,"o":"m 613 -211 q 499 -202 547 -211 q 418 -172 450 -193 q 371 -116 386 -151 q 356 -26 356 -81 q 358 45 356 11 q 362 111 360 79 q 366 175 364 143 q 368 242 368 207 q 360 281 368 263 q 329 315 351 300 q 267 340 307 331 q 167 350 228 350 l 167 422 q 267 432 228 422 q 329 457 307 442 q 360 491 351 472 q 368 531 368 510 q 362 662 368 597 q 356 799 356 726 q 371 888 356 853 q 418 944 386 924 q 499 974 450 965 q 613 983 547 983 l 697 983 l 697 918 l 625 918 q 538 911 572 918 q 485 889 504 904 q 460 849 467 874 q 453 792 453 825 q 457 669 453 732 q 461 540 461 606 q 434 437 461 472 q 335 389 407 401 l 335 383 q 434 335 407 371 q 461 232 461 300 q 457 103 461 161 q 453 -19 453 44 q 460 -77 453 -53 q 485 -117 467 -101 q 538 -139 504 -132 q 625 -146 572 -146 l 697 -146 l 697 -211 l 613 -211 z "},"|":{"ha":833,"x_min":365,"x_max":468,"o":"m 365 -347 l 365 1042 l 468 1042 l 468 -347 l 365 -347 z "},"}":{"ha":833,"x_min":138,"x_max":667,"o":"m 138 -211 l 138 -146 l 208 -146 q 295 -139 261 -146 q 349 -117 329 -132 q 375 -77 368 -101 q 382 -19 382 -53 q 378 103 382 44 q 374 232 374 161 q 400 335 374 300 q 499 383 426 371 l 499 389 q 400 437 426 401 q 374 540 374 472 q 378 669 374 606 q 382 792 382 732 q 375 849 382 825 q 349 889 368 874 q 295 911 329 904 q 208 918 261 918 l 138 918 l 138 983 l 222 983 q 335 974 288 983 q 415 944 383 965 q 463 888 447 924 q 478 799 478 853 q 472 662 478 726 q 465 531 465 597 q 474 491 465 510 q 504 457 482 472 q 566 432 526 442 q 667 422 606 422 l 667 350 q 566 340 606 350 q 504 315 526 331 q 474 281 482 300 q 465 242 465 263 q 467 175 465 207 q 472 111 469 143 q 476 45 474 79 q 478 -26 478 11 q 463 -116 478 -81 q 415 -172 447 -151 q 335 -202 383 -193 q 222 -211 288 -211 l 138 -211 z "},"~":{"ha":833,"x_min":106,"x_max":728,"o":"m 539 357 q 465 375 497 357 q 403 415 432 393 q 348 456 375 438 q 292 474 321 474 q 231 450 260 474 q 179 354 203 426 l 106 386 q 192 522 142 483 q 294 560 242 560 q 369 542 336 560 q 430 501 401 524 q 485 461 458 479 q 542 443 513 443 q 573 448 558 443 q 602 466 588 453 q 629 503 617 479 q 654 563 642 526 l 728 529 q 642 394 692 432 q 539 357 592 357 z "}," ":{"ha":833,"x_min":0,"x_max":0,"o":""},"¡":{"ha":833,"x_min":315,"x_max":518,"o":"m 361 -256 l 364 -125 l 378 353 l 456 353 l 469 -125 l 472 -256 l 361 -256 m 417 478 q 345 506 375 478 q 315 585 315 535 q 345 663 315 633 q 417 692 375 692 q 488 663 458 692 q 518 585 518 633 q 488 506 518 535 q 417 478 458 478 z "},"¢":{"ha":833,"x_min":157,"x_max":703,"o":"m 269 431 q 313 276 269 338 q 436 197 357 215 l 436 663 q 314 583 358 644 q 269 431 269 522 m 436 -46 l 436 99 q 322 131 374 106 q 234 198 271 156 q 177 299 197 240 q 157 431 157 357 q 178 560 157 503 q 238 660 200 618 q 326 726 275 701 q 436 760 378 751 l 436 907 l 507 907 l 507 764 q 613 738 568 761 q 689 683 657 714 l 633 611 q 574 651 606 636 q 507 669 543 667 l 507 192 q 588 213 551 194 q 653 257 624 232 l 703 185 q 611 125 661 149 q 507 97 561 101 l 507 -46 l 436 -46 z "},"£":{"ha":833,"x_min":107,"x_max":738,"o":"m 108 0 l 108 69 q 238 174 196 108 q 281 319 281 240 q 269 396 281 356 l 107 396 l 107 468 l 244 474 q 215 560 229 518 q 200 647 200 603 q 221 753 200 706 q 280 833 242 800 q 372 885 318 867 q 492 903 425 903 q 637 873 578 903 q 736 799 696 843 l 669 733 q 597 786 638 765 q 497 807 556 807 q 358 762 406 807 q 310 644 310 717 q 323 559 310 600 q 351 474 336 518 l 614 474 l 614 396 l 374 396 q 382 318 382 358 q 357 196 382 244 q 282 104 332 147 l 282 99 l 738 99 l 738 0 l 108 0 z "},"¤":{"ha":833,"x_min":81,"x_max":753,"o":"m 142 115 l 81 178 l 197 296 q 160 368 174 328 q 147 457 147 408 q 160 547 147 506 q 196 619 172 588 l 81 739 l 142 801 l 263 676 q 417 728 329 728 q 571 676 503 728 l 692 801 l 753 739 l 636 619 q 673 547 660 588 q 686 457 686 506 q 673 368 686 408 q 636 296 660 328 l 753 178 l 692 115 l 569 239 q 498 199 538 213 q 417 186 458 186 q 263 239 331 186 l 142 115 m 417 271 q 480 284 450 271 q 532 322 510 297 q 567 381 554 347 q 581 457 581 415 q 567 533 581 499 q 532 592 554 567 q 480 630 510 617 q 417 643 450 643 q 353 630 383 643 q 301 592 324 617 q 266 533 279 567 q 253 457 253 499 q 266 381 253 415 q 301 322 279 347 q 353 284 324 297 q 417 271 383 271 z "},"¥":{"ha":833,"x_min":74,"x_max":760,"o":"m 358 0 l 358 219 l 107 219 l 107 286 l 358 286 l 358 376 l 107 376 l 107 442 l 331 442 l 74 886 l 192 886 l 319 649 q 366 556 343 603 q 415 461 389 510 l 421 461 q 469 556 446 510 q 518 649 493 603 l 646 886 l 760 886 l 501 442 l 726 442 l 726 376 l 472 376 l 472 286 l 726 286 l 726 219 l 472 219 l 472 0 l 358 0 z "},"¦":{"ha":833,"x_min":365,"x_max":468,"o":"m 365 -347 l 365 264 l 468 264 l 468 -347 l 365 -347 m 365 431 l 365 1042 l 468 1042 l 468 431 l 365 431 z "},"§":{"ha":833,"x_min":126,"x_max":707,"o":"m 399 -89 q 258 -62 322 -89 q 150 10 194 -36 l 219 72 q 298 19 256 39 q 399 0 340 0 q 487 28 456 0 q 518 96 518 56 q 489 161 518 135 q 417 208 460 188 q 322 249 374 229 q 228 299 271 269 q 156 370 185 328 q 126 476 126 413 q 162 583 126 539 q 253 657 197 628 q 222 706 233 679 q 210 769 210 733 q 223 838 210 806 q 263 896 236 871 q 328 935 289 921 q 419 950 367 950 q 545 926 489 950 q 643 871 601 903 l 588 797 q 513 843 551 825 q 425 861 474 861 q 340 835 367 861 q 314 774 314 810 q 343 711 314 736 q 416 665 372 686 q 510 624 460 644 q 605 573 561 603 q 678 501 649 543 q 707 394 707 458 q 673 286 707 328 q 581 214 639 244 q 611 165 600 192 q 622 101 622 138 q 606 25 622 60 q 560 -35 589 -10 q 490 -74 531 -60 q 399 -89 449 -89 m 225 483 q 253 408 225 438 q 326 355 282 378 q 420 313 369 332 q 515 267 471 293 q 584 313 560 286 q 608 386 608 339 q 580 464 608 433 q 508 517 551 494 q 415 560 465 540 q 319 606 364 581 q 251 555 276 583 q 225 483 225 526 z "},"¨":{"ha":833,"x_min":206,"x_max":628,"o":"m 282 817 q 227 839 249 817 q 206 894 206 861 q 227 949 206 926 q 282 972 249 972 q 337 949 315 972 q 358 894 358 926 q 337 839 358 861 q 282 817 315 817 m 551 817 q 497 839 518 817 q 475 894 475 861 q 497 949 475 926 q 551 972 518 972 q 606 949 585 972 q 628 894 628 926 q 606 839 628 861 q 551 817 585 817 z "},"©":{"ha":833,"x_min":42,"x_max":792,"o":"m 417 -15 q 269 17 338 -15 q 149 110 200 50 q 70 256 99 171 q 42 449 42 342 q 70 640 42 554 q 149 784 99 725 q 269 875 200 843 q 417 907 338 907 q 565 875 496 907 q 684 784 633 843 q 763 640 735 725 q 792 449 792 554 q 763 256 792 342 q 684 110 735 171 q 565 17 633 50 q 417 -15 496 -15 m 417 43 q 544 72 486 43 q 642 155 601 101 q 706 283 683 208 q 728 449 728 357 q 706 614 728 540 q 642 740 683 688 q 544 822 601 793 q 417 850 486 850 q 290 822 347 850 q 191 740 232 793 q 128 614 150 688 q 106 449 106 540 q 128 283 106 357 q 191 155 150 208 q 290 72 232 101 q 417 43 347 43 m 428 174 q 340 192 381 174 q 268 247 299 211 q 220 333 238 282 q 203 449 203 383 q 222 557 203 508 q 272 640 240 606 q 345 693 304 675 q 432 711 386 711 q 515 692 481 711 q 576 646 549 674 l 529 592 q 485 623 507 611 q 436 635 464 635 q 333 583 372 635 q 294 449 294 531 q 331 303 294 357 q 431 250 368 250 q 493 264 467 250 q 543 297 519 278 l 585 239 q 517 192 553 211 q 428 174 481 174 z "},"ª":{"ha":833,"x_min":226,"x_max":619,"o":"m 374 538 q 269 572 311 538 q 226 665 226 606 q 300 778 226 739 q 531 831 374 818 q 506 904 528 874 q 426 935 483 935 q 349 921 386 935 q 279 888 311 907 l 244 947 q 333 988 281 969 q 442 1006 385 1006 q 576 956 532 1006 q 619 819 619 907 l 619 549 l 546 549 l 540 601 l 538 601 q 461 556 503 574 q 374 538 419 538 m 396 606 q 465 620 432 606 q 531 661 497 635 l 531 776 q 362 740 411 765 q 313 674 313 714 q 338 622 313 638 q 396 606 363 606 z "},"«":{"ha":833,"x_min":115,"x_max":700,"o":"m 328 72 l 115 294 l 115 406 l 328 628 l 382 579 l 206 350 l 382 119 l 328 72 m 646 72 l 433 294 l 433 406 l 646 628 l 700 579 l 524 350 l 700 119 l 646 72 z "},"¬":{"ha":833,"x_min":118,"x_max":715,"o":"m 624 144 l 624 415 l 118 415 l 118 501 l 715 501 l 715 144 l 624 144 z "},"­":{"ha":833,"x_min":118,"x_max":715,"o":"m 118 415 l 118 501 l 715 501 l 715 415 l 118 415 z "},"®":{"ha":833,"x_min":156,"x_max":678,"o":"m 417 443 q 315 463 363 443 q 231 519 267 483 q 176 606 196 556 q 156 717 156 656 q 176 828 156 778 q 231 914 196 878 q 315 970 267 950 q 417 990 363 990 q 518 970 471 990 q 601 914 565 950 q 657 828 636 878 q 678 717 678 778 q 657 606 678 656 q 601 519 636 556 q 518 463 565 483 q 417 443 471 443 m 417 494 q 498 510 460 494 q 563 556 536 526 q 606 626 590 585 q 622 717 622 667 q 606 806 622 765 q 563 877 590 847 q 498 924 536 907 q 417 940 460 940 q 335 924 372 940 q 269 877 297 907 q 226 806 242 847 q 210 717 210 765 q 226 626 210 667 q 269 556 242 585 q 335 510 297 526 q 417 494 372 494 m 315 579 l 315 861 l 421 861 q 498 841 465 861 q 531 771 531 821 q 516 724 531 746 q 478 694 501 703 l 542 579 l 478 579 l 429 676 l 372 676 l 372 579 l 315 579 m 372 721 l 408 721 q 453 733 436 721 q 469 768 469 744 q 456 801 469 789 q 411 814 443 814 l 372 814 l 372 721 z "},"¯":{"ha":833,"x_min":232,"x_max":601,"o":"m 232 835 l 232 914 l 601 914 l 601 835 l 232 835 z "},"°":{"ha":833,"x_min":243,"x_max":592,"o":"m 417 596 q 351 608 382 596 q 295 644 319 621 q 257 699 271 667 q 243 772 243 732 q 257 847 243 814 q 295 903 271 879 q 351 939 319 926 q 417 951 382 951 q 483 939 451 951 q 539 903 515 926 q 577 847 563 879 q 592 772 592 814 q 577 699 592 732 q 539 644 563 667 q 483 608 515 621 q 417 596 451 596 m 417 660 q 493 692 464 660 q 522 772 522 724 q 493 856 522 824 q 417 888 464 888 q 342 856 371 888 q 313 772 313 824 q 342 692 313 724 q 417 660 371 660 z "},"±":{"ha":833,"x_min":118,"x_max":715,"o":"m 371 176 l 371 422 l 118 422 l 118 508 l 371 508 l 371 772 l 463 772 l 463 508 l 715 508 l 715 422 l 463 422 l 463 176 l 371 176 m 118 0 l 118 86 l 715 86 l 715 0 l 118 0 z "},"²":{"ha":833,"x_min":203,"x_max":619,"o":"m 225 549 l 219 600 q 342 705 289 660 q 432 788 396 750 q 486 856 468 825 q 504 918 504 888 q 472 1001 504 971 q 386 1032 440 1032 q 313 1010 347 1032 q 256 953 279 988 l 203 1001 q 287 1078 235 1050 q 399 1107 339 1107 q 540 1063 486 1107 q 593 931 593 1018 q 576 856 593 892 q 528 785 558 821 q 456 710 497 749 q 364 624 414 671 l 619 624 l 619 549 l 225 549 z "},"³":{"ha":833,"x_min":197,"x_max":618,"o":"m 413 532 q 285 561 342 532 q 197 638 229 590 l 256 683 q 322 623 282 643 q 407 603 361 603 q 493 628 457 603 q 529 699 529 653 q 347 796 529 796 l 347 851 q 469 880 431 851 q 508 950 508 908 q 478 1013 508 989 q 397 1036 449 1036 q 329 1018 363 1036 q 272 969 296 1000 l 219 1017 q 302 1083 256 1060 q 410 1107 349 1107 q 481 1097 447 1107 q 541 1067 515 1086 q 582 1022 567 1049 q 597 961 597 994 q 570 881 597 913 q 488 828 543 849 q 583 782 547 817 q 618 694 618 747 q 602 627 618 657 q 558 576 586 597 q 492 543 529 554 q 413 532 454 532 z "},"´":{"ha":833,"x_min":328,"x_max":606,"o":"m 388 789 l 328 846 l 525 1079 l 606 1001 l 388 789 z "},"µ":{"ha":833,"x_min":117,"x_max":765,"o":"m 117 -260 l 117 675 l 231 675 l 231 271 q 265 130 231 178 q 374 82 299 82 q 425 88 400 82 q 476 108 450 93 q 527 153 501 124 q 579 228 553 182 l 579 675 l 694 675 q 689 394 692 538 q 686 128 686 250 q 697 89 686 100 q 725 78 708 78 q 735 78 731 78 q 750 81 740 78 l 765 -6 q 700 -17 740 -17 q 620 15 647 -17 q 589 128 593 46 l 586 128 q 490 21 544 56 q 372 -14 435 -14 q 288 1 326 -14 q 222 60 250 15 q 223 -34 222 7 q 224 -111 224 -75 q 227 -183 225 -147 q 232 -260 229 -218 l 117 -260 z "},"¶":{"ha":833,"x_min":100,"x_max":674,"o":"m 442 314 q 306 331 368 314 q 197 385 243 349 q 126 479 151 422 q 100 615 100 536 q 125 753 100 697 q 194 845 150 810 q 297 896 238 881 q 426 911 357 911 l 486 911 l 486 314 l 442 314 m 561 -111 l 561 911 l 674 911 l 674 -111 l 561 -111 z "},"·":{"ha":833,"x_min":304,"x_max":529,"o":"m 417 365 q 337 397 369 365 q 304 482 304 429 q 337 567 304 535 q 417 600 369 600 q 497 567 464 600 q 529 482 529 535 q 497 397 529 429 q 417 365 464 365 z "},"¸":{"ha":833,"x_min":285,"x_max":525,"o":"m 296 -314 l 285 -258 q 404 -235 372 -251 q 436 -189 436 -219 q 413 -146 436 -161 q 329 -122 389 -131 l 385 11 l 460 11 l 424 -89 q 499 -122 472 -100 q 525 -187 525 -144 q 466 -278 525 -249 q 296 -314 407 -308 z "},"¹":{"ha":833,"x_min":243,"x_max":661,"o":"m 243 549 l 243 624 l 414 624 l 414 976 l 268 976 l 268 1033 q 362 1054 325 1042 q 431 1090 399 1067 l 503 1090 l 503 624 l 661 624 l 661 549 l 243 549 z "},"º":{"ha":833,"x_min":197,"x_max":636,"o":"m 417 538 q 333 553 372 538 q 263 599 293 569 q 215 672 233 629 q 197 771 197 715 q 215 870 197 826 q 263 944 233 914 q 333 990 293 975 q 417 1006 372 1006 q 501 990 461 1006 q 571 944 540 975 q 619 870 601 914 q 636 771 636 826 q 619 672 636 715 q 571 599 601 629 q 501 553 540 569 q 417 538 461 538 m 417 610 q 510 654 476 610 q 544 771 544 699 q 510 889 544 844 q 417 933 476 933 q 323 889 357 933 q 289 771 289 844 q 323 654 289 699 q 417 610 357 610 z "},"»":{"ha":833,"x_min":135,"x_max":719,"o":"m 189 72 l 135 119 l 311 350 l 135 579 l 189 628 l 401 406 l 401 294 l 189 72 m 507 72 l 453 119 l 629 350 l 453 579 l 507 628 l 719 406 l 719 294 l 507 72 z "},"¼":{"ha":833,"x_min":39,"x_max":799,"o":"m 208 463 l 208 782 l 94 782 l 94 840 q 169 858 140 847 q 226 886 197 869 l 296 886 l 296 463 l 208 463 m 107 44 l 39 107 l 293 368 l 339 326 l 107 44 m 540 543 l 494 585 l 726 867 l 794 804 l 540 543 m 650 0 l 650 103 l 425 103 l 425 146 l 582 440 l 646 413 l 511 161 l 650 161 l 650 296 l 729 296 l 729 161 l 799 161 l 799 103 l 729 103 l 729 0 l 650 0 z "},"½":{"ha":833,"x_min":39,"x_max":794,"o":"m 208 463 l 208 782 l 94 782 l 94 840 q 169 858 140 847 q 226 886 197 869 l 296 886 l 296 463 l 208 463 m 107 44 l 39 107 l 293 368 l 339 326 l 107 44 m 540 543 l 494 585 l 726 867 l 794 804 l 540 543 m 450 0 l 450 50 q 616 186 558 132 q 674 286 674 240 q 652 346 674 324 q 590 368 631 368 q 536 352 563 368 q 490 310 510 336 l 436 356 q 509 416 468 392 q 600 440 550 440 q 718 403 675 440 q 761 297 761 367 q 748 242 761 269 q 712 188 735 215 q 658 133 689 161 q 593 74 628 104 l 782 74 l 782 0 l 450 0 z "},"¾":{"ha":833,"x_min":44,"x_max":829,"o":"m 221 446 q 126 465 172 446 q 44 521 79 485 l 89 575 q 144 533 110 550 q 215 515 178 515 q 277 531 253 515 q 301 581 301 546 q 168 651 301 651 l 168 704 q 253 724 226 704 q 281 775 281 743 q 263 819 281 803 q 204 835 244 835 q 151 822 179 835 q 103 788 124 808 l 61 840 q 130 885 88 868 q 221 903 172 903 q 327 872 286 903 q 368 786 368 842 q 290 682 368 710 q 362 644 335 671 q 389 575 389 618 q 340 479 389 513 q 221 446 292 446 m 142 44 l 74 107 l 328 368 l 374 326 l 142 44 m 575 543 l 529 585 l 761 867 l 829 804 l 575 543 m 650 0 l 650 103 l 425 103 l 425 146 l 582 440 l 646 413 l 511 161 l 650 161 l 650 296 l 729 296 l 729 161 l 799 161 l 799 103 l 729 103 l 729 0 l 650 0 z "},"¿":{"ha":833,"x_min":168,"x_max":682,"o":"m 426 -272 q 321 -257 368 -272 q 240 -213 274 -242 q 187 -145 206 -185 q 168 -56 168 -106 q 187 28 168 -8 q 233 94 206 64 q 291 152 260 125 q 348 209 322 179 q 388 273 374 239 q 396 353 401 307 l 497 353 q 493 264 506 303 q 456 193 481 225 q 401 133 432 161 q 344 78 371 106 q 299 22 317 51 q 281 -43 281 -8 q 319 -139 281 -101 q 433 -176 357 -176 q 531 -156 486 -176 q 614 -97 576 -135 l 682 -160 q 571 -240 635 -208 q 426 -272 507 -272 m 436 478 q 365 506 394 478 q 335 585 335 535 q 365 663 335 633 q 436 692 394 692 q 508 663 478 692 q 538 585 538 633 q 508 506 538 535 q 436 478 478 478 z "},"À":{"ha":833,"x_min":44,"x_max":789,"o":"m 322 510 l 279 371 l 551 371 l 508 510 q 462 662 485 586 q 418 817 439 738 l 413 817 q 368 662 390 738 q 322 510 346 586 m 44 0 l 351 911 l 482 911 l 789 0 l 667 0 l 581 278 l 250 278 l 163 0 l 44 0 m 457 968 l 246 1128 l 311 1204 l 507 1026 l 457 968 z "},"Á":{"ha":833,"x_min":44,"x_max":789,"o":"m 322 510 l 279 371 l 551 371 l 508 510 q 462 662 485 586 q 418 817 439 738 l 413 817 q 368 662 390 738 q 322 510 346 586 m 44 0 l 351 911 l 482 911 l 789 0 l 667 0 l 581 278 l 250 278 l 163 0 l 44 0 m 376 968 l 326 1026 l 522 1204 l 588 1128 l 376 968 z "},"Â":{"ha":833,"x_min":44,"x_max":789,"o":"m 322 510 l 279 371 l 551 371 l 508 510 q 462 662 485 586 q 418 817 439 738 l 413 817 q 368 662 390 738 q 322 510 346 586 m 44 0 l 351 911 l 482 911 l 789 0 l 667 0 l 581 278 l 250 278 l 163 0 l 44 0 m 261 971 l 211 1007 l 357 1164 l 476 1164 l 622 1007 l 572 971 l 419 1100 l 414 1100 l 261 971 z "},"Ã":{"ha":833,"x_min":44,"x_max":789,"o":"m 322 510 l 279 371 l 551 371 l 508 510 q 462 662 485 586 q 418 817 439 738 l 413 817 q 368 662 390 738 q 322 510 346 586 m 44 0 l 351 911 l 482 911 l 789 0 l 667 0 l 581 278 l 250 278 l 163 0 l 44 0 m 521 985 q 454 1000 482 985 q 403 1034 426 1015 q 360 1068 381 1053 q 315 1083 340 1083 q 271 1060 289 1083 q 249 992 253 1036 l 171 997 q 213 1122 175 1076 q 313 1168 250 1168 q 379 1153 351 1168 q 430 1119 407 1138 q 473 1085 453 1100 q 518 1069 493 1069 q 585 1161 574 1069 l 663 1156 q 621 1030 658 1075 q 521 985 583 985 z "},"Ä":{"ha":833,"x_min":44,"x_max":789,"o":"m 322 510 l 279 371 l 551 371 l 508 510 q 462 662 485 586 q 418 817 439 738 l 413 817 q 368 662 390 738 q 322 510 346 586 m 44 0 l 351 911 l 482 911 l 789 0 l 667 0 l 581 278 l 250 278 l 163 0 l 44 0 m 290 993 q 240 1013 260 993 q 219 1064 219 1032 q 240 1115 219 1096 q 290 1133 260 1133 q 340 1115 321 1133 q 360 1064 360 1096 q 340 1013 360 1032 q 290 993 321 993 m 543 993 q 493 1013 513 993 q 474 1064 474 1032 q 493 1115 474 1096 q 543 1133 513 1133 q 594 1115 574 1133 q 614 1064 614 1096 q 594 1013 614 1032 q 543 993 574 993 z "},"Å":{"ha":833,"x_min":44,"x_max":789,"o":"m 322 510 l 279 371 l 551 371 l 508 510 q 462 662 485 586 q 418 817 439 738 l 413 817 q 368 662 390 738 q 322 510 346 586 m 44 0 l 351 911 l 482 911 l 789 0 l 667 0 l 581 278 l 250 278 l 163 0 l 44 0 m 417 971 q 320 1005 358 971 q 282 1096 282 1039 q 320 1188 282 1154 q 417 1222 358 1222 q 513 1188 475 1222 q 551 1096 551 1154 q 513 1005 551 1039 q 417 971 475 971 m 417 1021 q 466 1040 444 1021 q 488 1096 488 1060 q 466 1151 488 1132 q 417 1171 444 1171 q 365 1151 386 1171 q 344 1096 344 1132 q 365 1040 344 1060 q 417 1021 386 1021 z "},"Æ":{"ha":833,"x_min":-1,"x_max":821,"o":"m 321 524 l 257 358 l 440 358 l 440 819 l 436 819 q 378 672 408 744 q 321 524 349 599 m -1 0 l 365 911 l 808 911 l 808 814 l 546 814 l 546 529 l 750 529 l 750 431 l 546 431 l 546 99 l 821 99 l 821 0 l 440 0 l 440 265 l 221 265 l 119 0 l -1 0 z "},"Ç":{"ha":833,"x_min":90,"x_max":769,"o":"m 488 -17 q 331 15 403 -17 q 205 108 258 47 q 121 256 151 168 q 90 456 90 344 q 121 653 90 565 q 206 801 151 740 q 335 895 260 863 q 499 928 410 928 q 644 894 581 928 q 747 817 707 861 l 682 743 q 601 803 646 781 q 499 826 557 826 q 380 801 433 826 q 289 727 326 775 q 231 611 251 679 q 210 458 210 543 q 231 303 210 372 q 289 186 251 235 q 380 111 326 138 q 499 85 433 85 q 610 111 561 85 q 704 186 660 138 l 769 115 q 647 18 715 53 q 488 -17 579 -17 m 365 -314 l 354 -258 q 474 -235 442 -251 q 506 -189 506 -219 q 482 -146 506 -161 q 399 -122 458 -131 l 454 11 l 529 11 l 493 -89 q 568 -122 542 -100 q 594 -187 594 -144 q 535 -278 594 -249 q 365 -314 476 -308 z "},"È":{"ha":833,"x_min":158,"x_max":736,"o":"m 158 0 l 158 911 l 722 911 l 722 814 l 275 814 l 275 528 l 653 528 l 653 429 l 275 429 l 275 99 l 736 99 l 736 0 l 158 0 m 500 968 l 289 1128 l 354 1204 l 550 1026 l 500 968 z "},"É":{"ha":833,"x_min":158,"x_max":736,"o":"m 158 0 l 158 911 l 722 911 l 722 814 l 275 814 l 275 528 l 653 528 l 653 429 l 275 429 l 275 99 l 736 99 l 736 0 l 158 0 m 419 968 l 369 1026 l 565 1204 l 631 1128 l 419 968 z "},"Ê":{"ha":833,"x_min":158,"x_max":736,"o":"m 158 0 l 158 911 l 722 911 l 722 814 l 275 814 l 275 528 l 653 528 l 653 429 l 275 429 l 275 99 l 736 99 l 736 0 l 158 0 m 304 971 l 254 1007 l 400 1164 l 519 1164 l 665 1007 l 615 971 l 463 1100 l 457 1100 l 304 971 z "},"Ë":{"ha":833,"x_min":158,"x_max":736,"o":"m 158 0 l 158 911 l 722 911 l 722 814 l 275 814 l 275 528 l 653 528 l 653 429 l 275 429 l 275 99 l 736 99 l 736 0 l 158 0 m 333 993 q 283 1013 303 993 q 263 1064 263 1032 q 283 1115 263 1096 q 333 1133 303 1133 q 383 1115 364 1133 q 403 1064 403 1096 q 383 1013 403 1032 q 333 993 364 993 m 586 993 q 536 1013 556 993 q 517 1064 517 1032 q 536 1115 517 1096 q 586 1133 556 1133 q 637 1115 617 1133 q 657 1064 657 1096 q 637 1013 657 1032 q 586 993 617 993 z "},"Ì":{"ha":833,"x_min":132,"x_max":701,"o":"m 132 0 l 132 99 l 358 99 l 358 814 l 132 814 l 132 911 l 701 911 l 701 814 l 475 814 l 475 99 l 701 99 l 701 0 l 132 0 m 457 968 l 246 1128 l 311 1204 l 507 1026 l 457 968 z "},"Í":{"ha":833,"x_min":132,"x_max":701,"o":"m 132 0 l 132 99 l 358 99 l 358 814 l 132 814 l 132 911 l 701 911 l 701 814 l 475 814 l 475 99 l 701 99 l 701 0 l 132 0 m 376 968 l 326 1026 l 522 1204 l 588 1128 l 376 968 z "},"Î":{"ha":833,"x_min":132,"x_max":701,"o":"m 132 0 l 132 99 l 358 99 l 358 814 l 132 814 l 132 911 l 701 911 l 701 814 l 475 814 l 475 99 l 701 99 l 701 0 l 132 0 m 261 971 l 211 1007 l 357 1164 l 476 1164 l 622 1007 l 572 971 l 419 1100 l 414 1100 l 261 971 z "},"Ï":{"ha":833,"x_min":132,"x_max":701,"o":"m 132 0 l 132 99 l 358 99 l 358 814 l 132 814 l 132 911 l 701 911 l 701 814 l 475 814 l 475 99 l 701 99 l 701 0 l 132 0 m 290 993 q 240 1013 260 993 q 219 1064 219 1032 q 240 1115 219 1096 q 290 1133 260 1133 q 340 1115 321 1133 q 360 1064 360 1096 q 340 1013 360 1032 q 290 993 321 993 m 543 993 q 493 1013 513 993 q 474 1064 474 1032 q 493 1115 474 1096 q 543 1133 513 1133 q 594 1115 574 1133 q 614 1064 614 1096 q 594 1013 614 1032 q 543 993 574 993 z "},"Ð":{"ha":833,"x_min":17,"x_max":768,"o":"m 121 0 l 121 436 l 17 436 l 17 514 l 121 522 l 121 911 l 346 911 q 660 794 553 911 q 768 460 768 678 q 660 121 768 242 q 351 0 553 0 l 121 0 m 236 94 l 338 94 q 570 190 493 94 q 647 460 647 286 q 570 725 647 633 q 338 817 493 817 l 236 817 l 236 522 l 436 522 l 436 436 l 236 436 l 236 94 z "},"Ñ":{"ha":833,"x_min":114,"x_max":719,"o":"m 114 0 l 114 911 l 242 911 l 533 339 l 621 150 l 624 150 q 615 292 621 218 q 608 439 608 367 l 608 911 l 719 911 l 719 0 l 592 0 l 300 572 l 213 761 l 210 761 q 219 619 213 690 q 225 476 225 547 l 225 0 l 114 0 m 535 985 q 468 1000 496 985 q 417 1034 440 1015 q 374 1068 394 1053 q 329 1083 354 1083 q 285 1060 303 1083 q 263 992 267 1036 l 185 997 q 226 1122 189 1076 q 326 1168 264 1168 q 393 1153 365 1168 q 444 1119 421 1138 q 487 1085 467 1100 q 532 1069 507 1069 q 599 1161 588 1069 l 676 1156 q 635 1030 672 1075 q 535 985 597 985 z "},"Ò":{"ha":833,"x_min":67,"x_max":767,"o":"m 417 -17 q 275 16 339 -17 q 165 110 211 49 q 92 259 118 171 q 67 460 67 347 q 92 657 67 569 q 165 804 118 744 q 275 896 211 864 q 417 928 339 928 q 558 896 493 928 q 669 804 622 864 q 741 657 715 744 q 767 460 767 569 q 741 259 767 347 q 669 110 715 171 q 558 16 622 49 q 417 -17 493 -17 m 417 85 q 511 110 468 85 q 584 185 554 136 q 631 303 614 233 q 647 460 647 372 q 631 614 647 546 q 584 729 614 682 q 511 801 554 776 q 417 826 468 826 q 322 801 364 826 q 249 729 279 776 q 203 614 219 682 q 186 460 186 546 q 203 303 186 372 q 249 185 219 233 q 322 110 279 136 q 417 85 364 85 m 457 968 l 246 1128 l 311 1204 l 507 1026 l 457 968 z "},"Ó":{"ha":833,"x_min":67,"x_max":767,"o":"m 417 -17 q 275 16 339 -17 q 165 110 211 49 q 92 259 118 171 q 67 460 67 347 q 92 657 67 569 q 165 804 118 744 q 275 896 211 864 q 417 928 339 928 q 558 896 493 928 q 669 804 622 864 q 741 657 715 744 q 767 460 767 569 q 741 259 767 347 q 669 110 715 171 q 558 16 622 49 q 417 -17 493 -17 m 417 85 q 511 110 468 85 q 584 185 554 136 q 631 303 614 233 q 647 460 647 372 q 631 614 647 546 q 584 729 614 682 q 511 801 554 776 q 417 826 468 826 q 322 801 364 826 q 249 729 279 776 q 203 614 219 682 q 186 460 186 546 q 203 303 186 372 q 249 185 219 233 q 322 110 279 136 q 417 85 364 85 m 376 968 l 326 1026 l 522 1204 l 588 1128 l 376 968 z "},"Ô":{"ha":833,"x_min":67,"x_max":767,"o":"m 417 -17 q 275 16 339 -17 q 165 110 211 49 q 92 259 118 171 q 67 460 67 347 q 92 657 67 569 q 165 804 118 744 q 275 896 211 864 q 417 928 339 928 q 558 896 493 928 q 669 804 622 864 q 741 657 715 744 q 767 460 767 569 q 741 259 767 347 q 669 110 715 171 q 558 16 622 49 q 417 -17 493 -17 m 417 85 q 511 110 468 85 q 584 185 554 136 q 631 303 614 233 q 647 460 647 372 q 631 614 647 546 q 584 729 614 682 q 511 801 554 776 q 417 826 468 826 q 322 801 364 826 q 249 729 279 776 q 203 614 219 682 q 186 460 186 546 q 203 303 186 372 q 249 185 219 233 q 322 110 279 136 q 417 85 364 85 m 261 971 l 211 1007 l 357 1164 l 476 1164 l 622 1007 l 572 971 l 419 1100 l 414 1100 l 261 971 z "},"Õ":{"ha":833,"x_min":67,"x_max":767,"o":"m 417 -17 q 275 16 339 -17 q 165 110 211 49 q 92 259 118 171 q 67 460 67 347 q 92 657 67 569 q 165 804 118 744 q 275 896 211 864 q 417 928 339 928 q 558 896 493 928 q 669 804 622 864 q 741 657 715 744 q 767 460 767 569 q 741 259 767 347 q 669 110 715 171 q 558 16 622 49 q 417 -17 493 -17 m 417 85 q 511 110 468 85 q 584 185 554 136 q 631 303 614 233 q 647 460 647 372 q 631 614 647 546 q 584 729 614 682 q 511 801 554 776 q 417 826 468 826 q 322 801 364 826 q 249 729 279 776 q 203 614 219 682 q 186 460 186 546 q 203 303 186 372 q 249 185 219 233 q 322 110 279 136 q 417 85 364 85 m 521 985 q 454 1000 482 985 q 403 1034 426 1015 q 360 1068 381 1053 q 315 1083 340 1083 q 271 1060 289 1083 q 249 992 253 1036 l 171 997 q 213 1122 175 1076 q 313 1168 250 1168 q 379 1153 351 1168 q 430 1119 407 1138 q 473 1085 453 1100 q 518 1069 493 1069 q 585 1161 574 1069 l 663 1156 q 621 1030 658 1075 q 521 985 583 985 z "},"Ö":{"ha":833,"x_min":67,"x_max":767,"o":"m 417 -17 q 275 16 339 -17 q 165 110 211 49 q 92 259 118 171 q 67 460 67 347 q 92 657 67 569 q 165 804 118 744 q 275 896 211 864 q 417 928 339 928 q 558 896 493 928 q 669 804 622 864 q 741 657 715 744 q 767 460 767 569 q 741 259 767 347 q 669 110 715 171 q 558 16 622 49 q 417 -17 493 -17 m 417 85 q 511 110 468 85 q 584 185 554 136 q 631 303 614 233 q 647 460 647 372 q 631 614 647 546 q 584 729 614 682 q 511 801 554 776 q 417 826 468 826 q 322 801 364 826 q 249 729 279 776 q 203 614 219 682 q 186 460 186 546 q 203 303 186 372 q 249 185 219 233 q 322 110 279 136 q 417 85 364 85 m 290 993 q 240 1013 260 993 q 219 1064 219 1032 q 240 1115 219 1096 q 290 1133 260 1133 q 340 1115 321 1133 q 360 1064 360 1096 q 340 1013 360 1032 q 290 993 321 993 m 543 993 q 493 1013 513 993 q 474 1064 474 1032 q 493 1115 474 1096 q 543 1133 513 1133 q 594 1115 574 1133 q 614 1064 614 1096 q 594 1013 614 1032 q 543 993 574 993 z "},"×":{"ha":833,"x_min":142,"x_max":692,"o":"m 203 175 l 142 238 l 356 458 l 142 678 l 203 740 l 417 519 l 631 740 l 692 678 l 478 458 l 692 238 l 631 175 l 417 397 l 203 175 z "},"Ø":{"ha":833,"x_min":50,"x_max":778,"o":"m 417 -17 q 203 67 293 -17 l 128 -44 l 50 6 l 143 142 q 87 281 107 201 q 67 460 67 361 q 92 657 67 569 q 165 804 118 744 q 275 896 211 864 q 417 928 339 928 q 628 849 538 928 l 700 956 l 778 906 l 689 775 q 747 638 726 717 q 767 460 767 558 q 741 259 767 347 q 669 110 715 171 q 558 16 622 49 q 417 -17 493 -17 m 186 460 q 218 251 186 339 l 564 757 q 417 826 503 826 q 322 801 364 826 q 249 729 279 776 q 203 614 219 682 q 186 460 186 546 m 417 85 q 511 110 468 85 q 584 185 554 136 q 631 303 614 233 q 647 460 647 372 q 614 667 647 583 l 267 160 q 417 85 326 85 z "},"Ù":{"ha":833,"x_min":110,"x_max":724,"o":"m 418 -17 q 294 3 351 -17 q 197 66 238 22 q 133 178 156 110 q 110 344 110 246 l 110 911 l 226 911 l 226 342 q 241 222 226 271 q 281 142 256 172 q 342 99 307 113 q 418 85 376 85 q 494 99 460 85 q 556 142 529 113 q 597 222 582 172 q 611 342 611 271 l 611 911 l 724 911 l 724 344 q 701 178 724 246 q 638 66 678 110 q 541 3 597 22 q 418 -17 485 -17 m 457 968 l 246 1128 l 311 1204 l 507 1026 l 457 968 z "},"Ú":{"ha":833,"x_min":110,"x_max":724,"o":"m 418 -17 q 294 3 351 -17 q 197 66 238 22 q 133 178 156 110 q 110 344 110 246 l 110 911 l 226 911 l 226 342 q 241 222 226 271 q 281 142 256 172 q 342 99 307 113 q 418 85 376 85 q 494 99 460 85 q 556 142 529 113 q 597 222 582 172 q 611 342 611 271 l 611 911 l 724 911 l 724 344 q 701 178 724 246 q 638 66 678 110 q 541 3 597 22 q 418 -17 485 -17 m 376 968 l 326 1026 l 522 1204 l 588 1128 l 376 968 z "},"Û":{"ha":833,"x_min":110,"x_max":724,"o":"m 418 -17 q 294 3 351 -17 q 197 66 238 22 q 133 178 156 110 q 110 344 110 246 l 110 911 l 226 911 l 226 342 q 241 222 226 271 q 281 142 256 172 q 342 99 307 113 q 418 85 376 85 q 494 99 460 85 q 556 142 529 113 q 597 222 582 172 q 611 342 611 271 l 611 911 l 724 911 l 724 344 q 701 178 724 246 q 638 66 678 110 q 541 3 597 22 q 418 -17 485 -17 m 261 971 l 211 1007 l 357 1164 l 476 1164 l 622 1007 l 572 971 l 419 1100 l 414 1100 l 261 971 z "},"Ü":{"ha":833,"x_min":110,"x_max":724,"o":"m 418 -17 q 294 3 351 -17 q 197 66 238 22 q 133 178 156 110 q 110 344 110 246 l 110 911 l 226 911 l 226 342 q 241 222 226 271 q 281 142 256 172 q 342 99 307 113 q 418 85 376 85 q 494 99 460 85 q 556 142 529 113 q 597 222 582 172 q 611 342 611 271 l 611 911 l 724 911 l 724 344 q 701 178 724 246 q 638 66 678 110 q 541 3 597 22 q 418 -17 485 -17 m 290 993 q 240 1013 260 993 q 219 1064 219 1032 q 240 1115 219 1096 q 290 1133 260 1133 q 340 1115 321 1133 q 360 1064 360 1096 q 340 1013 360 1032 q 290 993 321 993 m 543 993 q 493 1013 513 993 q 474 1064 474 1032 q 493 1115 474 1096 q 543 1133 513 1133 q 594 1115 574 1133 q 614 1064 614 1096 q 594 1013 614 1032 q 543 993 574 993 z "},"Ý":{"ha":833,"x_min":53,"x_max":781,"o":"m 358 0 l 358 325 l 53 911 l 175 911 l 313 640 q 364 535 339 588 q 417 428 389 483 l 422 428 q 476 536 450 483 q 529 642 503 589 l 661 911 l 781 911 l 475 325 l 475 0 l 358 0 m 376 968 l 326 1026 l 522 1204 l 588 1128 l 376 968 z "},"Þ":{"ha":833,"x_min":140,"x_max":757,"o":"m 140 0 l 140 911 l 257 911 l 257 758 l 421 758 q 558 744 496 758 q 665 699 621 731 q 733 616 708 667 q 757 490 757 565 q 733 365 757 418 q 664 276 708 311 q 558 225 619 242 q 421 208 496 208 l 257 208 l 257 0 l 140 0 m 257 303 l 406 303 q 584 347 526 303 q 642 490 642 392 q 583 626 642 589 q 406 664 524 664 l 257 664 l 257 303 z "},"ß":{"ha":833,"x_min":122,"x_max":783,"o":"m 557 -17 q 450 0 499 -17 q 357 46 401 17 l 403 126 q 478 85 442 99 q 554 72 514 72 q 644 105 613 72 q 675 181 675 138 q 654 247 675 221 q 602 294 633 274 q 535 331 571 314 q 467 372 499 349 q 415 426 436 394 q 394 506 394 457 q 414 587 394 553 q 457 652 433 621 q 500 716 481 683 q 519 793 519 749 q 489 878 519 844 q 400 913 458 913 q 280 860 324 913 q 236 704 236 808 l 236 0 l 122 0 l 122 721 q 142 838 122 785 q 197 928 161 890 q 285 985 233 965 q 401 1006 336 1006 q 499 989 457 1006 q 571 944 542 972 q 615 878 600 915 q 629 800 629 842 q 610 710 629 747 q 567 643 590 674 q 524 584 543 613 q 504 519 504 556 q 525 464 504 486 q 576 423 546 442 q 644 386 607 404 q 711 343 681 368 q 763 281 742 318 q 783 190 783 244 q 767 108 783 146 q 722 43 751 71 q 650 -1 692 15 q 557 -17 608 -17 z "},"à":{"ha":833,"x_min":113,"x_max":715,"o":"m 342 -17 q 253 -3 294 -17 q 180 34 211 10 q 131 94 149 58 q 113 175 113 129 q 140 274 113 232 q 226 347 167 317 q 378 397 285 378 q 601 428 471 417 q 590 493 600 463 q 560 547 581 524 q 505 583 539 569 q 422 597 471 597 q 294 572 356 597 q 186 517 233 546 l 142 594 q 201 628 167 611 q 273 660 235 646 q 354 683 311 674 q 442 692 397 692 q 648 616 581 692 q 715 414 715 540 l 715 0 l 622 0 l 613 92 l 608 92 q 483 15 551 47 q 342 -17 414 -17 m 372 75 q 487 101 431 75 q 601 175 543 126 l 601 353 q 420 329 493 344 q 303 292 347 314 q 242 244 260 271 q 224 183 224 217 q 236 134 224 154 q 269 101 249 114 q 316 81 289 88 q 372 75 343 75 m 474 789 l 256 1001 l 336 1079 l 533 846 l 474 789 z "},"á":{"ha":833,"x_min":113,"x_max":715,"o":"m 342 -17 q 253 -3 294 -17 q 180 34 211 10 q 131 94 149 58 q 113 175 113 129 q 140 274 113 232 q 226 347 167 317 q 378 397 285 378 q 601 428 471 417 q 590 493 600 463 q 560 547 581 524 q 505 583 539 569 q 422 597 471 597 q 294 572 356 597 q 186 517 233 546 l 142 594 q 201 628 167 611 q 273 660 235 646 q 354 683 311 674 q 442 692 397 692 q 648 616 581 692 q 715 414 715 540 l 715 0 l 622 0 l 613 92 l 608 92 q 483 15 551 47 q 342 -17 414 -17 m 372 75 q 487 101 431 75 q 601 175 543 126 l 601 353 q 420 329 493 344 q 303 292 347 314 q 242 244 260 271 q 224 183 224 217 q 236 134 224 154 q 269 101 249 114 q 316 81 289 88 q 372 75 343 75 m 415 789 l 356 846 l 553 1079 l 633 1001 l 415 789 z "},"â":{"ha":833,"x_min":113,"x_max":715,"o":"m 342 -17 q 253 -3 294 -17 q 180 34 211 10 q 131 94 149 58 q 113 175 113 129 q 140 274 113 232 q 226 347 167 317 q 378 397 285 378 q 601 428 471 417 q 590 493 600 463 q 560 547 581 524 q 505 583 539 569 q 422 597 471 597 q 294 572 356 597 q 186 517 233 546 l 142 594 q 201 628 167 611 q 273 660 235 646 q 354 683 311 674 q 442 692 397 692 q 648 616 581 692 q 715 414 715 540 l 715 0 l 622 0 l 613 92 l 608 92 q 483 15 551 47 q 342 -17 414 -17 m 372 75 q 487 101 431 75 q 601 175 543 126 l 601 353 q 420 329 493 344 q 303 292 347 314 q 242 244 260 271 q 224 183 224 217 q 236 134 224 154 q 269 101 249 114 q 316 81 289 88 q 372 75 343 75 m 278 789 l 229 833 l 388 1028 l 501 1028 l 660 833 l 611 789 l 447 946 l 442 946 l 278 789 z "},"ã":{"ha":833,"x_min":113,"x_max":715,"o":"m 342 -17 q 253 -3 294 -17 q 180 34 211 10 q 131 94 149 58 q 113 175 113 129 q 140 274 113 232 q 226 347 167 317 q 378 397 285 378 q 601 428 471 417 q 590 493 600 463 q 560 547 581 524 q 505 583 539 569 q 422 597 471 597 q 294 572 356 597 q 186 517 233 546 l 142 594 q 201 628 167 611 q 273 660 235 646 q 354 683 311 674 q 442 692 397 692 q 648 616 581 692 q 715 414 715 540 l 715 0 l 622 0 l 613 92 l 608 92 q 483 15 551 47 q 342 -17 414 -17 m 372 75 q 487 101 431 75 q 601 175 543 126 l 601 353 q 420 329 493 344 q 303 292 347 314 q 242 244 260 271 q 224 183 224 217 q 236 134 224 154 q 269 101 249 114 q 316 81 289 88 q 372 75 343 75 m 544 801 q 481 819 507 801 q 432 860 454 838 q 390 900 410 882 q 346 918 369 918 q 299 888 314 918 q 281 808 283 857 l 204 813 q 215 888 206 853 q 240 947 224 922 q 283 987 257 972 q 344 1001 308 1001 q 408 983 382 1001 q 457 943 435 965 q 499 903 479 921 q 544 885 519 885 q 590 915 575 885 q 608 994 606 946 l 685 989 q 674 915 683 949 q 649 856 665 881 q 606 816 632 831 q 544 801 581 801 z "},"ä":{"ha":833,"x_min":113,"x_max":715,"o":"m 342 -17 q 253 -3 294 -17 q 180 34 211 10 q 131 94 149 58 q 113 175 113 129 q 140 274 113 232 q 226 347 167 317 q 378 397 285 378 q 601 428 471 417 q 590 493 600 463 q 560 547 581 524 q 505 583 539 569 q 422 597 471 597 q 294 572 356 597 q 186 517 233 546 l 142 594 q 201 628 167 611 q 273 660 235 646 q 354 683 311 674 q 442 692 397 692 q 648 616 581 692 q 715 414 715 540 l 715 0 l 622 0 l 613 92 l 608 92 q 483 15 551 47 q 342 -17 414 -17 m 372 75 q 487 101 431 75 q 601 175 543 126 l 601 353 q 420 329 493 344 q 303 292 347 314 q 242 244 260 271 q 224 183 224 217 q 236 134 224 154 q 269 101 249 114 q 316 81 289 88 q 372 75 343 75 m 310 817 q 255 839 276 817 q 233 894 233 861 q 255 949 233 926 q 310 972 276 972 q 365 949 343 972 q 386 894 386 926 q 365 839 386 861 q 310 817 343 817 m 579 817 q 524 839 546 817 q 503 894 503 861 q 524 949 503 926 q 579 972 546 972 q 634 949 613 972 q 656 894 656 926 q 634 839 656 861 q 579 817 613 817 z "},"å":{"ha":833,"x_min":113,"x_max":715,"o":"m 342 -17 q 253 -3 294 -17 q 180 34 211 10 q 131 94 149 58 q 113 175 113 129 q 140 274 113 232 q 226 347 167 317 q 378 397 285 378 q 601 428 471 417 q 590 493 600 463 q 560 547 581 524 q 505 583 539 569 q 422 597 471 597 q 294 572 356 597 q 186 517 233 546 l 142 594 q 201 628 167 611 q 273 660 235 646 q 354 683 311 674 q 442 692 397 692 q 648 616 581 692 q 715 414 715 540 l 715 0 l 622 0 l 613 92 l 608 92 q 483 15 551 47 q 342 -17 414 -17 m 372 75 q 487 101 431 75 q 601 175 543 126 l 601 353 q 420 329 493 344 q 303 292 347 314 q 242 244 260 271 q 224 183 224 217 q 236 134 224 154 q 269 101 249 114 q 316 81 289 88 q 372 75 343 75 m 444 790 q 332 828 372 790 q 292 924 292 867 q 332 1019 292 981 q 444 1057 372 1057 q 557 1019 517 1057 q 597 924 597 981 q 557 828 597 867 q 444 790 517 790 m 444 842 q 501 865 478 842 q 524 924 524 889 q 501 983 524 960 q 444 1006 478 1006 q 388 983 411 1006 q 365 924 365 960 q 388 865 365 889 q 444 842 411 842 z "},"æ":{"ha":833,"x_min":24,"x_max":829,"o":"m 201 -17 q 74 32 124 -17 q 24 167 24 81 q 105 333 24 269 q 369 419 186 396 q 333 558 367 518 q 247 597 300 597 q 163 581 206 597 q 89 542 121 564 l 46 619 q 142 669 88 647 q 257 692 197 692 q 361 660 318 692 q 428 553 404 628 q 514 660 463 628 q 622 692 565 692 q 714 667 675 692 q 778 599 753 642 q 817 501 804 557 q 829 383 829 446 q 828 344 829 364 q 824 306 826 324 l 461 306 q 511 138 467 199 q 635 76 556 76 q 706 89 674 76 q 767 121 739 101 l 808 43 q 728 1 774 18 q 631 -17 683 -17 q 508 15 560 -17 q 422 104 456 46 q 319 15 374 46 q 201 -17 264 -17 m 232 75 q 314 99 271 75 q 393 171 357 124 q 369 336 369 246 l 369 346 q 253 319 299 335 q 179 282 207 303 q 140 235 151 261 q 129 178 129 208 q 158 102 129 129 q 232 75 186 75 m 615 601 q 518 554 563 601 q 463 394 474 507 l 736 394 q 615 601 731 601 z "},"ç":{"ha":833,"x_min":111,"x_max":749,"o":"m 481 -17 q 334 7 401 -17 q 217 76 267 31 q 139 187 167 121 q 111 336 111 253 q 141 487 111 421 q 222 599 171 553 q 342 668 274 644 q 488 692 411 692 q 631 663 571 692 q 733 593 692 633 l 676 519 q 590 576 635 556 q 492 597 544 597 q 385 578 433 597 q 302 525 336 560 q 249 442 268 490 q 229 336 229 394 q 248 231 229 278 q 301 149 267 183 q 383 97 335 115 q 489 78 431 78 q 603 102 551 78 q 697 163 656 126 l 749 89 q 624 11 692 39 q 481 -17 556 -17 m 360 -314 l 349 -258 q 468 -235 436 -251 q 500 -189 500 -219 q 476 -146 500 -161 q 393 -122 453 -131 l 449 11 l 524 11 l 488 -89 q 563 -122 536 -100 q 589 -187 589 -144 q 530 -278 589 -249 q 360 -314 471 -308 z "},"è":{"ha":833,"x_min":94,"x_max":747,"o":"m 458 -17 q 316 7 382 -17 q 201 76 250 31 q 123 188 151 122 q 94 339 94 254 q 123 486 94 421 q 199 597 151 551 q 309 667 247 643 q 439 692 371 692 q 569 669 511 692 q 666 604 626 646 q 726 504 706 563 q 747 375 747 446 q 746 338 747 356 q 742 306 744 319 l 210 306 q 294 133 221 190 q 472 75 367 75 q 583 92 533 75 q 678 139 632 110 l 719 64 q 605 7 669 31 q 458 -17 540 -17 m 442 601 q 362 588 400 601 q 293 548 324 574 q 242 483 263 522 q 213 394 221 444 l 643 394 q 583 550 636 499 q 442 601 529 601 m 468 789 l 250 1001 l 331 1079 l 528 846 l 468 789 z "},"é":{"ha":833,"x_min":94,"x_max":747,"o":"m 458 -17 q 316 7 382 -17 q 201 76 250 31 q 123 188 151 122 q 94 339 94 254 q 123 486 94 421 q 199 597 151 551 q 309 667 247 643 q 439 692 371 692 q 569 669 511 692 q 666 604 626 646 q 726 504 706 563 q 747 375 747 446 q 746 338 747 356 q 742 306 744 319 l 210 306 q 294 133 221 190 q 472 75 367 75 q 583 92 533 75 q 678 139 632 110 l 719 64 q 605 7 669 31 q 458 -17 540 -17 m 442 601 q 362 588 400 601 q 293 548 324 574 q 242 483 263 522 q 213 394 221 444 l 643 394 q 583 550 636 499 q 442 601 529 601 m 410 789 l 350 846 l 547 1079 l 628 1001 l 410 789 z "},"ê":{"ha":833,"x_min":94,"x_max":747,"o":"m 458 -17 q 316 7 382 -17 q 201 76 250 31 q 123 188 151 122 q 94 339 94 254 q 123 486 94 421 q 199 597 151 551 q 309 667 247 643 q 439 692 371 692 q 569 669 511 692 q 666 604 626 646 q 726 504 706 563 q 747 375 747 446 q 746 338 747 356 q 742 306 744 319 l 210 306 q 294 133 221 190 q 472 75 367 75 q 583 92 533 75 q 678 139 632 110 l 719 64 q 605 7 669 31 q 458 -17 540 -17 m 442 601 q 362 588 400 601 q 293 548 324 574 q 242 483 263 522 q 213 394 221 444 l 643 394 q 583 550 636 499 q 442 601 529 601 m 272 789 l 224 833 l 382 1028 l 496 1028 l 654 833 l 606 789 l 442 946 l 436 946 l 272 789 z "},"ë":{"ha":833,"x_min":94,"x_max":747,"o":"m 458 -17 q 316 7 382 -17 q 201 76 250 31 q 123 188 151 122 q 94 339 94 254 q 123 486 94 421 q 199 597 151 551 q 309 667 247 643 q 439 692 371 692 q 569 669 511 692 q 666 604 626 646 q 726 504 706 563 q 747 375 747 446 q 746 338 747 356 q 742 306 744 319 l 210 306 q 294 133 221 190 q 472 75 367 75 q 583 92 533 75 q 678 139 632 110 l 719 64 q 605 7 669 31 q 458 -17 540 -17 m 442 601 q 362 588 400 601 q 293 548 324 574 q 242 483 263 522 q 213 394 221 444 l 643 394 q 583 550 636 499 q 442 601 529 601 m 304 817 q 249 839 271 817 q 228 894 228 861 q 249 949 228 926 q 304 972 271 972 q 359 949 338 972 q 381 894 381 926 q 359 839 381 861 q 304 817 338 817 m 574 817 q 519 839 540 817 q 497 894 497 861 q 519 949 497 926 q 574 972 540 972 q 628 949 607 972 q 650 894 650 926 q 628 839 650 861 q 574 817 607 817 z "},"ì":{"ha":833,"x_min":125,"x_max":572,"o":"m 439 0 l 439 582 l 125 582 l 125 675 l 553 675 l 553 0 l 439 0 m 513 789 l 294 1001 l 375 1079 l 572 846 l 513 789 z "},"í":{"ha":833,"x_min":125,"x_max":672,"o":"m 439 0 l 439 582 l 125 582 l 125 675 l 553 675 l 553 0 l 439 0 m 454 789 l 394 846 l 592 1079 l 672 1001 l 454 789 z "},"î":{"ha":833,"x_min":125,"x_max":699,"o":"m 439 0 l 439 582 l 125 582 l 125 675 l 553 675 l 553 0 l 439 0 m 317 789 l 268 833 l 426 1028 l 540 1028 l 699 833 l 650 789 l 486 946 l 481 946 l 317 789 z "},"ï":{"ha":833,"x_min":125,"x_max":694,"o":"m 439 0 l 439 582 l 125 582 l 125 675 l 553 675 l 553 0 l 439 0 m 349 817 q 294 839 315 817 q 272 894 272 861 q 294 949 272 926 q 349 972 315 972 q 403 949 382 972 q 425 894 425 926 q 403 839 425 861 q 349 817 382 817 m 618 817 q 563 839 585 817 q 542 894 542 861 q 563 949 542 926 q 618 972 585 972 q 673 949 651 972 q 694 894 694 926 q 673 839 694 861 q 618 817 651 817 z "},"ð":{"ha":833,"x_min":83,"x_max":744,"o":"m 414 -17 q 289 6 349 -17 q 183 70 229 28 q 110 173 138 113 q 83 308 83 233 q 107 437 83 379 q 173 535 131 494 q 273 599 215 576 q 400 621 331 621 q 524 592 465 621 q 621 510 582 563 q 562 671 601 601 q 461 794 522 740 l 250 686 l 208 758 l 389 850 q 313 897 353 875 q 229 942 274 919 l 282 1014 q 385 960 335 989 q 482 897 436 932 l 672 994 l 714 925 l 550 840 q 691 639 638 756 q 744 357 744 522 q 722 205 744 274 q 656 87 699 136 q 551 10 613 38 q 414 -17 490 -17 m 417 78 q 513 98 472 78 q 581 155 554 118 q 622 242 608 192 q 635 353 635 292 q 635 383 635 368 q 633 414 635 399 q 528 506 585 479 q 417 532 471 532 q 319 515 361 532 q 248 468 276 499 q 205 397 219 438 q 190 308 190 356 q 208 213 190 256 q 257 141 226 171 q 329 94 288 111 q 417 78 371 78 z "},"ñ":{"ha":833,"x_min":129,"x_max":726,"o":"m 129 0 l 129 675 l 224 675 l 233 560 l 239 560 q 353 654 292 617 q 493 692 414 692 q 670 623 614 692 q 726 419 726 554 l 726 0 l 613 0 l 613 404 q 576 547 613 500 q 457 593 540 593 q 401 585 426 593 q 350 563 375 578 q 299 524 325 547 q 243 471 272 501 l 243 0 l 129 0 m 542 801 q 478 819 504 801 q 429 860 451 838 q 387 900 407 882 q 343 918 367 918 q 296 888 311 918 q 278 808 281 857 l 201 813 q 212 888 203 853 q 238 947 221 922 q 280 987 254 972 q 342 1001 306 1001 q 406 983 379 1001 q 454 943 432 965 q 497 903 476 921 q 542 885 517 885 q 588 915 572 885 q 606 994 603 946 l 682 989 q 672 915 681 949 q 646 856 663 881 q 603 816 629 831 q 542 801 578 801 z "},"ò":{"ha":833,"x_min":83,"x_max":750,"o":"m 417 -17 q 290 7 350 -17 q 183 76 229 31 q 110 187 138 121 q 83 336 83 253 q 110 487 83 421 q 183 599 138 553 q 290 668 229 644 q 417 692 350 692 q 544 668 483 692 q 650 599 604 644 q 723 487 696 553 q 750 336 750 421 q 723 187 750 253 q 650 76 696 121 q 544 7 604 31 q 417 -17 483 -17 m 417 78 q 505 97 465 78 q 573 149 544 115 q 617 231 601 183 q 632 336 632 278 q 617 442 632 394 q 573 525 601 490 q 505 578 544 560 q 417 597 465 597 q 328 578 368 597 q 260 525 289 560 q 217 442 232 490 q 201 336 201 394 q 217 231 201 278 q 260 149 232 183 q 328 97 289 115 q 417 78 368 78 m 446 789 l 228 1001 l 308 1079 l 506 846 l 446 789 z "},"ó":{"ha":833,"x_min":83,"x_max":750,"o":"m 417 -17 q 290 7 350 -17 q 183 76 229 31 q 110 187 138 121 q 83 336 83 253 q 110 487 83 421 q 183 599 138 553 q 290 668 229 644 q 417 692 350 692 q 544 668 483 692 q 650 599 604 644 q 723 487 696 553 q 750 336 750 421 q 723 187 750 253 q 650 76 696 121 q 544 7 604 31 q 417 -17 483 -17 m 417 78 q 505 97 465 78 q 573 149 544 115 q 617 231 601 183 q 632 336 632 278 q 617 442 632 394 q 573 525 601 490 q 505 578 544 560 q 417 597 465 597 q 328 578 368 597 q 260 525 289 560 q 217 442 232 490 q 201 336 201 394 q 217 231 201 278 q 260 149 232 183 q 328 97 289 115 q 417 78 368 78 m 388 789 l 328 846 l 525 1079 l 606 1001 l 388 789 z "},"ô":{"ha":833,"x_min":83,"x_max":750,"o":"m 417 -17 q 290 7 350 -17 q 183 76 229 31 q 110 187 138 121 q 83 336 83 253 q 110 487 83 421 q 183 599 138 553 q 290 668 229 644 q 417 692 350 692 q 544 668 483 692 q 650 599 604 644 q 723 487 696 553 q 750 336 750 421 q 723 187 750 253 q 650 76 696 121 q 544 7 604 31 q 417 -17 483 -17 m 417 78 q 505 97 465 78 q 573 149 544 115 q 617 231 601 183 q 632 336 632 278 q 617 442 632 394 q 573 525 601 490 q 505 578 544 560 q 417 597 465 597 q 328 578 368 597 q 260 525 289 560 q 217 442 232 490 q 201 336 201 394 q 217 231 201 278 q 260 149 232 183 q 328 97 289 115 q 417 78 368 78 m 250 789 l 201 833 l 360 1028 l 474 1028 l 632 833 l 583 789 l 419 946 l 414 946 l 250 789 z "},"õ":{"ha":833,"x_min":83,"x_max":750,"o":"m 417 -17 q 290 7 350 -17 q 183 76 229 31 q 110 187 138 121 q 83 336 83 253 q 110 487 83 421 q 183 599 138 553 q 290 668 229 644 q 417 692 350 692 q 544 668 483 692 q 650 599 604 644 q 723 487 696 553 q 750 336 750 421 q 723 187 750 253 q 650 76 696 121 q 544 7 604 31 q 417 -17 483 -17 m 417 78 q 505 97 465 78 q 573 149 544 115 q 617 231 601 183 q 632 336 632 278 q 617 442 632 394 q 573 525 601 490 q 505 578 544 560 q 417 597 465 597 q 328 578 368 597 q 260 525 289 560 q 217 442 232 490 q 201 336 201 394 q 217 231 201 278 q 260 149 232 183 q 328 97 289 115 q 417 78 368 78 m 517 801 q 453 819 479 801 q 404 860 426 838 q 362 900 382 882 q 318 918 342 918 q 271 888 286 918 q 253 808 256 857 l 176 813 q 187 888 178 853 q 213 947 196 922 q 255 987 229 972 q 317 1001 281 1001 q 381 983 354 1001 q 429 943 407 965 q 472 903 451 921 q 517 885 492 885 q 563 915 547 885 q 581 994 578 946 l 657 989 q 647 915 656 949 q 621 856 638 881 q 578 816 604 831 q 517 801 553 801 z "},"ö":{"ha":833,"x_min":83,"x_max":750,"o":"m 417 -17 q 290 7 350 -17 q 183 76 229 31 q 110 187 138 121 q 83 336 83 253 q 110 487 83 421 q 183 599 138 553 q 290 668 229 644 q 417 692 350 692 q 544 668 483 692 q 650 599 604 644 q 723 487 696 553 q 750 336 750 421 q 723 187 750 253 q 650 76 696 121 q 544 7 604 31 q 417 -17 483 -17 m 417 78 q 505 97 465 78 q 573 149 544 115 q 617 231 601 183 q 632 336 632 278 q 617 442 632 394 q 573 525 601 490 q 505 578 544 560 q 417 597 465 597 q 328 578 368 597 q 260 525 289 560 q 217 442 232 490 q 201 336 201 394 q 217 231 201 278 q 260 149 232 183 q 328 97 289 115 q 417 78 368 78 m 282 817 q 227 839 249 817 q 206 894 206 861 q 227 949 206 926 q 282 972 249 972 q 337 949 315 972 q 358 894 358 926 q 337 839 358 861 q 282 817 315 817 m 551 817 q 497 839 518 817 q 475 894 475 861 q 497 949 475 926 q 551 972 518 972 q 606 949 585 972 q 628 894 628 926 q 606 839 628 861 q 551 817 585 817 z "},"÷":{"ha":833,"x_min":118,"x_max":715,"o":"m 417 633 q 363 654 385 633 q 342 708 342 675 q 363 761 342 740 q 417 782 385 782 q 470 761 449 782 q 492 708 492 740 q 470 654 492 675 q 417 633 449 633 m 417 133 q 363 154 385 133 q 342 208 342 175 q 363 261 342 240 q 417 282 385 282 q 470 261 449 282 q 492 208 492 240 q 470 154 492 175 q 417 133 449 133 m 118 415 l 118 501 l 715 501 l 715 415 l 118 415 z "},"ø":{"ha":833,"x_min":83,"x_max":750,"o":"m 417 -17 q 222 43 307 -17 l 150 -42 l 86 17 l 160 103 q 103 206 124 147 q 83 336 83 264 q 110 487 83 421 q 183 599 138 553 q 290 668 229 644 q 417 692 350 692 q 611 632 526 692 l 683 717 l 747 658 l 674 572 q 730 469 710 528 q 750 336 750 410 q 723 187 750 253 q 650 76 696 121 q 544 7 604 31 q 417 -17 483 -17 m 201 336 q 233 189 201 253 l 544 554 q 417 600 492 600 q 328 581 368 600 q 260 526 289 561 q 217 443 232 492 q 201 336 201 394 m 417 75 q 505 94 465 75 q 573 148 544 114 q 617 230 601 182 q 632 336 632 278 q 600 485 632 424 l 288 119 q 347 87 314 99 q 417 75 379 75 z "},"ù":{"ha":833,"x_min":107,"x_max":701,"o":"m 342 -17 q 163 52 219 -17 q 107 256 107 121 l 107 675 l 222 675 l 222 271 q 258 128 222 175 q 378 82 293 82 q 483 112 436 82 q 588 207 531 142 l 588 675 l 701 675 l 701 0 l 608 0 l 599 118 l 593 118 q 481 21 542 58 q 342 -17 421 -17 m 440 789 l 222 1001 l 303 1079 l 500 846 l 440 789 z "},"ú":{"ha":833,"x_min":107,"x_max":701,"o":"m 342 -17 q 163 52 219 -17 q 107 256 107 121 l 107 675 l 222 675 l 222 271 q 258 128 222 175 q 378 82 293 82 q 483 112 436 82 q 588 207 531 142 l 588 675 l 701 675 l 701 0 l 608 0 l 599 118 l 593 118 q 481 21 542 58 q 342 -17 421 -17 m 382 789 l 322 846 l 519 1079 l 600 1001 l 382 789 z "},"û":{"ha":833,"x_min":107,"x_max":701,"o":"m 342 -17 q 163 52 219 -17 q 107 256 107 121 l 107 675 l 222 675 l 222 271 q 258 128 222 175 q 378 82 293 82 q 483 112 436 82 q 588 207 531 142 l 588 675 l 701 675 l 701 0 l 608 0 l 599 118 l 593 118 q 481 21 542 58 q 342 -17 421 -17 m 244 789 l 196 833 l 354 1028 l 468 1028 l 626 833 l 578 789 l 414 946 l 408 946 l 244 789 z "},"ü":{"ha":833,"x_min":107,"x_max":701,"o":"m 342 -17 q 163 52 219 -17 q 107 256 107 121 l 107 675 l 222 675 l 222 271 q 258 128 222 175 q 378 82 293 82 q 483 112 436 82 q 588 207 531 142 l 588 675 l 701 675 l 701 0 l 608 0 l 599 118 l 593 118 q 481 21 542 58 q 342 -17 421 -17 m 276 817 q 222 839 243 817 q 200 894 200 861 q 222 949 200 926 q 276 972 243 972 q 331 949 310 972 q 353 894 353 926 q 331 839 353 861 q 276 817 310 817 m 546 817 q 491 839 513 817 q 469 894 469 861 q 491 949 469 926 q 546 972 513 972 q 601 949 579 972 q 622 894 622 926 q 601 839 622 861 q 546 817 579 817 z "},"ý":{"ha":833,"x_min":68,"x_max":765,"o":"m 182 -290 q 93 -276 132 -290 l 117 -186 q 147 -193 131 -190 q 178 -196 163 -196 q 293 -155 249 -196 q 363 -51 338 -114 l 383 -1 l 68 675 l 183 675 l 349 301 q 390 206 368 257 q 432 106 411 154 l 438 106 q 474 205 456 154 q 510 301 493 256 l 657 675 l 765 675 l 468 -56 q 424 -149 449 -106 q 364 -223 399 -192 q 284 -272 329 -254 q 182 -290 239 -290 m 393 789 l 333 846 l 531 1079 l 611 1001 l 393 789 z "},"þ":{"ha":833,"x_min":129,"x_max":750,"o":"m 129 -285 l 129 989 l 243 989 l 243 710 l 239 589 l 243 589 q 349 664 290 636 q 468 692 408 692 q 589 667 536 692 q 677 598 642 643 q 731 490 713 553 q 750 347 750 426 q 724 194 750 261 q 656 79 699 126 q 558 8 614 32 q 443 -17 503 -17 q 340 7 393 -17 q 243 71 288 31 l 239 71 l 243 -57 l 243 -285 l 129 -285 m 424 79 q 506 98 468 79 q 572 151 544 117 q 616 235 600 185 q 632 347 632 285 q 587 527 632 458 q 440 596 542 596 q 346 572 396 596 q 243 494 296 547 l 243 158 q 340 97 292 115 q 424 79 388 79 z "},"ÿ":{"ha":833,"x_min":68,"x_max":765,"o":"m 182 -290 q 93 -276 132 -290 l 117 -186 q 147 -193 131 -190 q 178 -196 163 -196 q 293 -155 249 -196 q 363 -51 338 -114 l 383 -1 l 68 675 l 183 675 l 349 301 q 390 206 368 257 q 432 106 411 154 l 438 106 q 474 205 456 154 q 510 301 493 256 l 657 675 l 765 675 l 468 -56 q 424 -149 449 -106 q 364 -223 399 -192 q 284 -272 329 -254 q 182 -290 239 -290 m 288 817 q 233 839 254 817 q 211 894 211 861 q 233 949 211 926 q 288 972 254 972 q 342 949 321 972 q 364 894 364 926 q 342 839 364 861 q 288 817 321 817 m 557 817 q 502 839 524 817 q 481 894 481 861 q 502 949 481 926 q 557 972 524 972 q 612 949 590 972 q 633 894 633 926 q 612 839 633 861 q 557 817 590 817 z "},"Ā":{"ha":833,"x_min":44,"x_max":789,"o":"m 322 510 l 279 371 l 551 371 l 508 510 q 462 662 485 586 q 418 817 439 738 l 413 817 q 368 662 390 738 q 322 510 346 586 m 44 0 l 351 911 l 482 911 l 789 0 l 667 0 l 581 278 l 250 278 l 163 0 l 44 0 m 231 1021 l 231 1100 l 603 1100 l 603 1021 l 231 1021 z "},"ā":{"ha":833,"x_min":113,"x_max":715,"o":"m 342 -17 q 253 -3 294 -17 q 180 34 211 10 q 131 94 149 58 q 113 175 113 129 q 140 274 113 232 q 226 347 167 317 q 378 397 285 378 q 601 428 471 417 q 590 493 600 463 q 560 547 581 524 q 505 583 539 569 q 422 597 471 597 q 294 572 356 597 q 186 517 233 546 l 142 594 q 201 628 167 611 q 273 660 235 646 q 354 683 311 674 q 442 692 397 692 q 648 616 581 692 q 715 414 715 540 l 715 0 l 622 0 l 613 92 l 608 92 q 483 15 551 47 q 342 -17 414 -17 m 372 75 q 487 101 431 75 q 601 175 543 126 l 601 353 q 420 329 493 344 q 303 292 347 314 q 242 244 260 271 q 224 183 224 217 q 236 134 224 154 q 269 101 249 114 q 316 81 289 88 q 372 75 343 75 m 260 835 l 260 914 l 629 914 l 629 835 l 260 835 z "},"Ă":{"ha":833,"x_min":44,"x_max":789,"o":"m 322 510 l 279 371 l 551 371 l 508 510 q 462 662 485 586 q 418 817 439 738 l 413 817 q 368 662 390 738 q 322 510 346 586 m 44 0 l 351 911 l 482 911 l 789 0 l 667 0 l 581 278 l 250 278 l 163 0 l 44 0 m 417 979 q 332 994 368 979 q 271 1033 296 1008 q 232 1090 246 1057 q 214 1158 218 1122 l 283 1169 q 324 1087 292 1121 q 417 1053 357 1053 q 509 1087 476 1053 q 550 1169 542 1121 l 619 1158 q 601 1090 615 1122 q 563 1033 588 1057 q 501 994 538 1008 q 417 979 465 979 z "},"ă":{"ha":833,"x_min":113,"x_max":715,"o":"m 342 -17 q 253 -3 294 -17 q 180 34 211 10 q 131 94 149 58 q 113 175 113 129 q 140 274 113 232 q 226 347 167 317 q 378 397 285 378 q 601 428 471 417 q 590 493 600 463 q 560 547 581 524 q 505 583 539 569 q 422 597 471 597 q 294 572 356 597 q 186 517 233 546 l 142 594 q 201 628 167 611 q 273 660 235 646 q 354 683 311 674 q 442 692 397 692 q 648 616 581 692 q 715 414 715 540 l 715 0 l 622 0 l 613 92 l 608 92 q 483 15 551 47 q 342 -17 414 -17 m 372 75 q 487 101 431 75 q 601 175 543 126 l 601 353 q 420 329 493 344 q 303 292 347 314 q 242 244 260 271 q 224 183 224 217 q 236 134 224 154 q 269 101 249 114 q 316 81 289 88 q 372 75 343 75 m 444 793 q 349 811 389 793 q 283 859 308 829 q 244 926 257 889 q 228 1003 231 964 l 299 1014 q 313 962 303 988 q 342 915 324 936 q 385 882 360 894 q 444 869 411 869 q 503 882 478 869 q 547 915 529 894 q 576 962 565 936 q 590 1014 586 988 l 661 1003 q 645 926 658 964 q 606 859 632 889 q 540 811 579 829 q 444 793 500 793 z "},"Ą":{"ha":833,"x_min":44,"x_max":843,"o":"m 715 -312 q 613 -281 654 -312 q 572 -186 572 -250 q 583 -126 572 -154 q 612 -74 594 -97 q 651 -33 629 -51 q 693 0 672 -14 l 667 0 l 581 278 l 250 278 l 163 0 l 44 0 l 351 911 l 482 911 l 789 0 q 699 -67 736 -24 q 663 -161 663 -110 q 685 -215 663 -197 q 738 -232 707 -232 q 778 -223 761 -232 q 807 -203 794 -214 l 843 -262 q 788 -298 819 -283 q 715 -312 756 -312 m 322 510 l 279 371 l 551 371 l 508 510 q 462 662 485 586 q 418 817 439 738 l 413 817 q 368 662 390 738 q 322 510 346 586 z "},"ą":{"ha":833,"x_min":113,"x_max":763,"o":"m 633 -312 q 531 -281 572 -312 q 490 -183 490 -250 q 529 -74 490 -121 q 622 7 568 -26 l 613 92 l 608 92 q 483 15 551 47 q 342 -17 414 -17 q 253 -3 294 -17 q 180 34 211 10 q 131 94 149 58 q 113 175 113 129 q 140 274 113 232 q 226 347 167 317 q 378 397 285 378 q 601 428 471 417 q 590 493 600 463 q 560 547 581 524 q 505 583 539 569 q 422 597 471 597 q 294 572 356 597 q 186 517 233 546 l 142 594 q 201 628 167 611 q 273 660 235 646 q 354 683 311 674 q 442 692 397 692 q 648 616 581 692 q 715 414 715 540 l 715 0 q 608 -76 640 -33 q 575 -161 575 -118 q 600 -219 575 -201 q 657 -237 625 -237 q 699 -229 681 -237 q 729 -208 717 -221 l 763 -262 q 706 -299 739 -286 q 633 -312 674 -312 m 372 75 q 487 101 431 75 q 601 175 543 126 l 601 353 q 420 329 493 344 q 303 292 347 314 q 242 244 260 271 q 224 183 224 217 q 236 134 224 154 q 269 101 249 114 q 316 81 289 88 q 372 75 343 75 z "},"Ć":{"ha":833,"x_min":90,"x_max":769,"o":"m 488 -17 q 331 15 403 -17 q 205 108 258 47 q 121 256 151 168 q 90 456 90 344 q 121 653 90 565 q 206 801 151 740 q 335 895 260 863 q 499 928 410 928 q 644 894 581 928 q 747 817 707 861 l 682 743 q 601 803 646 781 q 499 826 557 826 q 380 801 433 826 q 289 727 326 775 q 231 611 251 679 q 210 458 210 543 q 231 303 210 372 q 289 186 251 235 q 380 111 326 138 q 499 85 433 85 q 610 111 561 85 q 704 186 660 138 l 769 115 q 647 18 715 53 q 488 -17 579 -17 m 440 968 l 390 1026 l 586 1204 l 651 1128 l 440 968 z "},"ć":{"ha":833,"x_min":111,"x_max":749,"o":"m 481 -17 q 334 7 401 -17 q 217 76 267 31 q 139 187 167 121 q 111 336 111 253 q 141 487 111 421 q 222 599 171 553 q 342 668 274 644 q 488 692 411 692 q 631 663 571 692 q 733 593 692 633 l 676 519 q 590 576 635 556 q 492 597 544 597 q 385 578 433 597 q 302 525 336 560 q 249 442 268 490 q 229 336 229 394 q 248 231 229 278 q 301 149 267 183 q 383 97 335 115 q 489 78 431 78 q 603 102 551 78 q 697 163 656 126 l 749 89 q 624 11 692 39 q 481 -17 556 -17 m 451 789 l 392 846 l 589 1079 l 669 1001 l 451 789 z "},"Ĉ":{"ha":833,"x_min":90,"x_max":769,"o":"m 488 -17 q 331 15 403 -17 q 205 108 258 47 q 121 256 151 168 q 90 456 90 344 q 121 653 90 565 q 206 801 151 740 q 335 895 260 863 q 499 928 410 928 q 644 894 581 928 q 747 817 707 861 l 682 743 q 601 803 646 781 q 499 826 557 826 q 380 801 433 826 q 289 727 326 775 q 231 611 251 679 q 210 458 210 543 q 231 303 210 372 q 289 186 251 235 q 380 111 326 138 q 499 85 433 85 q 610 111 561 85 q 704 186 660 138 l 769 115 q 647 18 715 53 q 488 -17 579 -17 m 325 971 l 275 1007 l 421 1164 l 540 1164 l 686 1007 l 636 971 l 483 1100 l 478 1100 l 325 971 z "},"ĉ":{"ha":833,"x_min":111,"x_max":749,"o":"m 481 -17 q 334 7 401 -17 q 217 76 267 31 q 139 187 167 121 q 111 336 111 253 q 141 487 111 421 q 222 599 171 553 q 342 668 274 644 q 488 692 411 692 q 631 663 571 692 q 733 593 692 633 l 676 519 q 590 576 635 556 q 492 597 544 597 q 385 578 433 597 q 302 525 336 560 q 249 442 268 490 q 229 336 229 394 q 248 231 229 278 q 301 149 267 183 q 383 97 335 115 q 489 78 431 78 q 603 102 551 78 q 697 163 656 126 l 749 89 q 624 11 692 39 q 481 -17 556 -17 m 314 789 l 265 833 l 424 1028 l 538 1028 l 696 833 l 647 789 l 483 946 l 478 946 l 314 789 z "},"Ċ":{"ha":833,"x_min":90,"x_max":769,"o":"m 488 -17 q 331 15 403 -17 q 205 108 258 47 q 121 256 151 168 q 90 456 90 344 q 121 653 90 565 q 206 801 151 740 q 335 895 260 863 q 499 928 410 928 q 644 894 581 928 q 747 817 707 861 l 682 743 q 601 803 646 781 q 499 826 557 826 q 380 801 433 826 q 289 727 326 775 q 231 611 251 679 q 210 458 210 543 q 231 303 210 372 q 289 186 251 235 q 380 111 326 138 q 499 85 433 85 q 610 111 561 85 q 704 186 660 138 l 769 115 q 647 18 715 53 q 488 -17 579 -17 m 481 992 q 422 1013 446 992 q 399 1071 399 1035 q 422 1127 399 1106 q 481 1149 446 1149 q 539 1127 515 1149 q 563 1071 563 1106 q 539 1013 563 1035 q 481 992 515 992 z "},"ċ":{"ha":833,"x_min":111,"x_max":749,"o":"m 481 -17 q 334 7 401 -17 q 217 76 267 31 q 139 187 167 121 q 111 336 111 253 q 141 487 111 421 q 222 599 171 553 q 342 668 274 644 q 488 692 411 692 q 631 663 571 692 q 733 593 692 633 l 676 519 q 590 576 635 556 q 492 597 544 597 q 385 578 433 597 q 302 525 336 560 q 249 442 268 490 q 229 336 229 394 q 248 231 229 278 q 301 149 267 183 q 383 97 335 115 q 489 78 431 78 q 603 102 551 78 q 697 163 656 126 l 749 89 q 624 11 692 39 q 481 -17 556 -17 m 481 817 q 415 841 442 817 q 389 906 389 865 q 415 970 389 946 q 481 994 442 994 q 546 970 519 994 q 572 906 572 946 q 546 841 572 865 q 481 817 519 817 z "},"Č":{"ha":833,"x_min":90,"x_max":769,"o":"m 488 -17 q 331 15 403 -17 q 205 108 258 47 q 121 256 151 168 q 90 456 90 344 q 121 653 90 565 q 206 801 151 740 q 335 895 260 863 q 499 928 410 928 q 644 894 581 928 q 747 817 707 861 l 682 743 q 601 803 646 781 q 499 826 557 826 q 380 801 433 826 q 289 727 326 775 q 231 611 251 679 q 210 458 210 543 q 231 303 210 372 q 289 186 251 235 q 380 111 326 138 q 499 85 433 85 q 610 111 561 85 q 704 186 660 138 l 769 115 q 647 18 715 53 q 488 -17 579 -17 m 421 981 l 275 1138 l 325 1174 l 478 1046 l 483 1046 l 636 1174 l 686 1138 l 540 981 l 421 981 z "},"č":{"ha":833,"x_min":111,"x_max":749,"o":"m 481 -17 q 334 7 401 -17 q 217 76 267 31 q 139 187 167 121 q 111 336 111 253 q 141 487 111 421 q 222 599 171 553 q 342 668 274 644 q 488 692 411 692 q 631 663 571 692 q 733 593 692 633 l 676 519 q 590 576 635 556 q 492 597 544 597 q 385 578 433 597 q 302 525 336 560 q 249 442 268 490 q 229 336 229 394 q 248 231 229 278 q 301 149 267 183 q 383 97 335 115 q 489 78 431 78 q 603 102 551 78 q 697 163 656 126 l 749 89 q 624 11 692 39 q 481 -17 556 -17 m 424 797 l 265 992 l 314 1036 l 478 879 l 483 879 l 647 1036 l 696 992 l 538 797 l 424 797 z "},"Ď":{"ha":833,"x_min":121,"x_max":768,"o":"m 121 0 l 121 911 l 346 911 q 660 794 553 911 q 768 460 768 678 q 660 121 768 242 q 351 0 553 0 l 121 0 m 236 94 l 338 94 q 572 190 494 94 q 649 460 649 286 q 572 725 649 633 q 338 817 494 817 l 236 817 l 236 94 m 357 981 l 211 1138 l 261 1174 l 414 1046 l 419 1046 l 572 1174 l 622 1138 l 476 981 l 357 981 z "},"ď":{"ha":833,"x_min":75,"x_max":860,"o":"m 353 -17 q 239 7 290 -17 q 151 76 188 31 q 95 186 115 121 q 75 336 75 251 q 99 484 75 418 q 164 596 124 550 q 257 667 204 642 q 367 692 310 692 q 469 668 425 692 q 558 604 514 644 l 563 604 l 556 729 l 556 989 l 665 989 l 665 0 l 576 0 l 567 89 l 563 89 q 468 15 522 47 q 353 -17 414 -17 m 376 79 q 556 181 467 79 l 556 517 q 471 577 511 558 q 389 596 431 596 q 310 577 347 596 q 247 524 274 558 q 203 443 219 490 q 188 338 188 396 q 238 147 188 215 q 376 79 288 79 m 761 761 l 757 1133 l 860 1133 l 860 1021 l 840 761 l 761 761 z "},"Đ":{"ha":833,"x_min":17,"x_max":768,"o":"m 121 0 l 121 436 l 17 436 l 17 514 l 121 522 l 121 911 l 346 911 q 660 794 553 911 q 768 460 768 678 q 660 121 768 242 q 351 0 553 0 l 121 0 m 236 94 l 338 94 q 570 190 493 94 q 647 460 647 286 q 570 725 647 633 q 338 817 493 817 l 236 817 l 236 522 l 436 522 l 436 436 l 236 436 l 236 94 z "},"đ":{"ha":833,"x_min":83,"x_max":806,"o":"m 376 -17 q 256 6 310 -17 q 164 72 203 28 q 104 178 125 115 q 83 322 83 240 q 109 465 83 401 q 177 572 135 528 q 275 640 219 617 q 390 664 331 664 q 500 640 453 664 q 592 576 547 617 l 596 576 l 590 701 l 590 781 l 347 781 l 347 869 l 590 869 l 590 989 l 704 989 l 704 869 l 806 869 l 806 789 l 704 781 l 704 0 l 610 0 l 600 89 l 596 89 q 497 15 554 46 q 376 -17 439 -17 m 400 79 q 590 181 500 79 l 590 489 q 501 550 544 532 q 414 568 457 568 q 331 550 369 568 q 263 500 292 532 q 218 423 235 468 q 201 324 201 378 q 253 144 201 208 q 400 79 306 79 z "},"Ē":{"ha":833,"x_min":158,"x_max":736,"o":"m 158 0 l 158 911 l 722 911 l 722 814 l 275 814 l 275 528 l 653 528 l 653 429 l 275 429 l 275 99 l 736 99 l 736 0 l 158 0 m 274 1021 l 274 1100 l 646 1100 l 646 1021 l 274 1021 z "},"ē":{"ha":833,"x_min":94,"x_max":747,"o":"m 458 -17 q 316 7 382 -17 q 201 76 250 31 q 123 188 151 122 q 94 339 94 254 q 123 486 94 421 q 199 597 151 551 q 309 667 247 643 q 439 692 371 692 q 569 669 511 692 q 666 604 626 646 q 726 504 706 563 q 747 375 747 446 q 746 338 747 356 q 742 306 744 319 l 210 306 q 294 133 221 190 q 472 75 367 75 q 583 92 533 75 q 678 139 632 110 l 719 64 q 605 7 669 31 q 458 -17 540 -17 m 442 601 q 362 588 400 601 q 293 548 324 574 q 242 483 263 522 q 213 394 221 444 l 643 394 q 583 550 636 499 q 442 601 529 601 m 254 835 l 254 914 l 624 914 l 624 835 l 254 835 z "},"Ĕ":{"ha":833,"x_min":158,"x_max":736,"o":"m 158 0 l 158 911 l 722 911 l 722 814 l 275 814 l 275 528 l 653 528 l 653 429 l 275 429 l 275 99 l 736 99 l 736 0 l 158 0 m 460 979 q 375 994 411 979 q 314 1033 339 1008 q 275 1090 289 1057 q 257 1158 261 1122 l 326 1169 q 367 1087 335 1121 q 460 1053 400 1053 q 552 1087 519 1053 q 593 1169 585 1121 l 663 1158 q 644 1090 658 1122 q 606 1033 631 1057 q 544 994 581 1008 q 460 979 508 979 z "},"ĕ":{"ha":833,"x_min":94,"x_max":747,"o":"m 458 -17 q 316 7 382 -17 q 201 76 250 31 q 123 188 151 122 q 94 339 94 254 q 123 486 94 421 q 199 597 151 551 q 309 667 247 643 q 439 692 371 692 q 569 669 511 692 q 666 604 626 646 q 726 504 706 563 q 747 375 747 446 q 746 338 747 356 q 742 306 744 319 l 210 306 q 294 133 221 190 q 472 75 367 75 q 583 92 533 75 q 678 139 632 110 l 719 64 q 605 7 669 31 q 458 -17 540 -17 m 442 601 q 362 588 400 601 q 293 548 324 574 q 242 483 263 522 q 213 394 221 444 l 643 394 q 583 550 636 499 q 442 601 529 601 m 439 793 q 343 811 383 793 q 277 859 303 829 q 238 926 251 889 q 222 1003 225 964 l 293 1014 q 308 962 297 988 q 336 915 318 936 q 380 882 354 894 q 439 869 406 869 q 498 882 472 869 q 542 915 524 894 q 570 962 560 936 q 585 1014 581 988 l 656 1003 q 640 926 653 964 q 600 859 626 889 q 534 811 574 829 q 439 793 494 793 z "},"Ė":{"ha":833,"x_min":158,"x_max":736,"o":"m 158 0 l 158 911 l 722 911 l 722 814 l 275 814 l 275 528 l 653 528 l 653 429 l 275 429 l 275 99 l 736 99 l 736 0 l 158 0 m 460 992 q 401 1013 425 992 q 378 1071 378 1035 q 401 1127 378 1106 q 460 1149 425 1149 q 518 1127 494 1149 q 542 1071 542 1106 q 518 1013 542 1035 q 460 992 494 992 z "},"ė":{"ha":833,"x_min":94,"x_max":747,"o":"m 458 -17 q 316 7 382 -17 q 201 76 250 31 q 123 188 151 122 q 94 339 94 254 q 123 486 94 421 q 199 597 151 551 q 309 667 247 643 q 439 692 371 692 q 569 669 511 692 q 666 604 626 646 q 726 504 706 563 q 747 375 747 446 q 746 338 747 356 q 742 306 744 319 l 210 306 q 294 133 221 190 q 472 75 367 75 q 583 92 533 75 q 678 139 632 110 l 719 64 q 605 7 669 31 q 458 -17 540 -17 m 442 601 q 362 588 400 601 q 293 548 324 574 q 242 483 263 522 q 213 394 221 444 l 643 394 q 583 550 636 499 q 442 601 529 601 m 439 817 q 374 841 400 817 q 347 906 347 865 q 374 970 347 946 q 439 994 400 994 q 504 970 478 994 q 531 906 531 946 q 504 841 531 865 q 439 817 478 817 z "},"Ę":{"ha":833,"x_min":160,"x_max":768,"o":"m 642 -312 q 539 -281 579 -312 q 499 -186 499 -250 q 535 -76 499 -124 q 618 0 572 -28 l 160 0 l 160 911 l 722 911 l 722 814 l 276 814 l 276 528 l 653 528 l 653 429 l 276 429 l 276 99 l 736 99 l 736 0 l 731 0 q 678 -19 704 -4 q 633 -57 653 -35 q 600 -106 613 -79 q 588 -161 588 -133 q 611 -215 588 -197 q 664 -232 635 -232 q 703 -223 686 -232 q 733 -203 719 -214 l 768 -262 q 713 -298 744 -283 q 642 -312 682 -312 z "},"ę":{"ha":833,"x_min":94,"x_max":747,"o":"m 586 -312 q 483 -281 524 -312 q 443 -183 443 -250 q 473 -85 443 -128 q 549 -1 503 -42 q 491 -15 513 -14 q 458 -17 469 -17 q 316 7 382 -17 q 201 76 250 31 q 123 188 151 122 q 94 336 94 253 q 123 485 94 419 q 199 597 151 551 q 309 667 247 643 q 439 692 371 692 q 569 669 511 692 q 666 604 626 646 q 726 504 706 563 q 747 375 747 446 q 746 338 747 356 q 742 306 744 319 l 210 306 q 294 133 221 190 q 472 75 367 75 q 583 92 533 75 q 678 139 632 110 l 719 64 q 630 -3 667 26 q 570 -59 593 -33 q 538 -110 547 -85 q 528 -161 528 -135 q 553 -219 528 -200 q 610 -237 578 -237 q 651 -229 633 -237 q 683 -208 669 -221 l 717 -262 q 659 -299 692 -286 q 586 -312 626 -312 m 442 601 q 362 588 400 601 q 293 548 324 574 q 242 483 263 522 q 213 394 221 444 l 643 394 q 583 550 636 499 q 442 601 529 601 z "},"Ě":{"ha":833,"x_min":158,"x_max":736,"o":"m 158 0 l 158 911 l 722 911 l 722 814 l 275 814 l 275 528 l 653 528 l 653 429 l 275 429 l 275 99 l 736 99 l 736 0 l 158 0 m 400 981 l 254 1138 l 304 1174 l 457 1046 l 463 1046 l 615 1174 l 665 1138 l 519 981 l 400 981 z "},"ě":{"ha":833,"x_min":94,"x_max":747,"o":"m 458 -17 q 316 7 382 -17 q 201 76 250 31 q 123 188 151 122 q 94 339 94 254 q 123 486 94 421 q 199 597 151 551 q 309 667 247 643 q 439 692 371 692 q 569 669 511 692 q 666 604 626 646 q 726 504 706 563 q 747 375 747 446 q 746 338 747 356 q 742 306 744 319 l 210 306 q 294 133 221 190 q 472 75 367 75 q 583 92 533 75 q 678 139 632 110 l 719 64 q 605 7 669 31 q 458 -17 540 -17 m 442 601 q 362 588 400 601 q 293 548 324 574 q 242 483 263 522 q 213 394 221 444 l 643 394 q 583 550 636 499 q 442 601 529 601 m 382 797 l 224 992 l 272 1036 l 436 879 l 442 879 l 606 1036 l 654 992 l 496 797 l 382 797 z "},"Ĝ":{"ha":833,"x_min":74,"x_max":740,"o":"m 468 -17 q 310 15 382 -17 q 185 108 238 47 q 103 256 132 168 q 74 456 74 344 q 103 653 74 565 q 187 802 133 742 q 315 895 240 863 q 478 928 389 928 q 561 918 524 928 q 630 892 599 908 q 685 857 661 876 q 729 817 710 838 l 664 743 q 588 803 631 779 q 478 826 544 826 q 362 801 414 826 q 272 727 310 775 q 215 611 235 679 q 194 458 194 543 q 213 303 194 372 q 267 186 232 235 q 356 111 303 138 q 475 85 408 85 q 565 99 524 85 q 633 139 607 114 l 633 376 l 451 376 l 451 472 l 740 472 l 740 89 q 627 14 697 44 q 468 -17 557 -17 m 303 971 l 253 1007 l 399 1164 l 518 1164 l 664 1007 l 614 971 l 461 1100 l 456 1100 l 303 971 z "},"ĝ":{"ha":833,"x_min":100,"x_max":786,"o":"m 411 -311 q 181 -262 263 -311 q 100 -124 100 -214 q 128 -44 100 -83 q 211 26 157 -6 l 211 32 q 163 74 183 47 q 142 143 142 100 q 163 209 142 175 q 222 269 183 243 l 222 275 q 163 345 188 301 q 139 450 139 389 q 160 550 139 506 q 218 626 182 594 q 302 674 254 657 q 404 692 350 692 q 504 675 460 692 l 783 675 l 783 582 l 608 582 q 649 522 632 558 q 665 446 665 486 q 645 349 665 392 q 590 276 625 306 q 506 230 554 246 q 404 214 458 214 q 348 220 378 214 q 290 239 318 226 q 238 161 238 206 q 274 102 238 121 q 378 83 311 83 l 529 83 q 723 47 660 83 q 786 -75 786 11 q 760 -165 786 -122 q 685 -240 733 -208 q 567 -292 636 -272 q 411 -311 497 -311 m 404 290 q 515 333 469 290 q 560 450 560 376 q 547 514 560 485 q 514 564 535 543 q 465 597 493 585 q 404 608 436 608 q 344 597 372 608 q 294 564 315 585 q 261 514 274 543 q 249 450 249 485 q 294 333 249 376 q 404 290 340 290 m 419 -228 q 525 -217 478 -228 q 606 -187 572 -206 q 656 -144 639 -168 q 674 -93 674 -119 q 635 -28 674 -44 q 519 -11 597 -11 l 388 -11 q 333 -9 358 -11 q 285 0 307 -7 q 217 -55 236 -26 q 199 -112 199 -83 q 255 -197 199 -165 q 419 -228 311 -228 m 260 789 l 211 833 l 369 1028 l 483 1028 l 642 833 l 593 789 l 429 946 l 424 946 l 260 789 z "},"Ğ":{"ha":833,"x_min":74,"x_max":740,"o":"m 468 -17 q 310 15 382 -17 q 185 108 238 47 q 103 256 132 168 q 74 456 74 344 q 103 653 74 565 q 187 802 133 742 q 315 895 240 863 q 478 928 389 928 q 561 918 524 928 q 630 892 599 908 q 685 857 661 876 q 729 817 710 838 l 664 743 q 588 803 631 779 q 478 826 544 826 q 362 801 414 826 q 272 727 310 775 q 215 611 235 679 q 194 458 194 543 q 213 303 194 372 q 267 186 232 235 q 356 111 303 138 q 475 85 408 85 q 565 99 524 85 q 633 139 607 114 l 633 376 l 451 376 l 451 472 l 740 472 l 740 89 q 627 14 697 44 q 468 -17 557 -17 m 458 979 q 374 994 410 979 q 313 1033 338 1008 q 274 1090 288 1057 q 256 1158 260 1122 l 325 1169 q 366 1087 333 1121 q 458 1053 399 1053 q 551 1087 518 1053 q 592 1169 583 1121 l 661 1158 q 643 1090 657 1122 q 604 1033 629 1057 q 543 994 579 1008 q 458 979 507 979 z "},"ğ":{"ha":833,"x_min":100,"x_max":786,"o":"m 411 -311 q 181 -262 263 -311 q 100 -124 100 -214 q 128 -44 100 -83 q 211 26 157 -6 l 211 32 q 163 74 183 47 q 142 143 142 100 q 163 209 142 175 q 222 269 183 243 l 222 275 q 163 345 188 301 q 139 450 139 389 q 160 550 139 506 q 218 626 182 594 q 302 674 254 657 q 404 692 350 692 q 504 675 460 692 l 783 675 l 783 582 l 608 582 q 649 522 632 558 q 665 446 665 486 q 645 349 665 392 q 590 276 625 306 q 506 230 554 246 q 404 214 458 214 q 348 220 378 214 q 290 239 318 226 q 238 161 238 206 q 274 102 238 121 q 378 83 311 83 l 529 83 q 723 47 660 83 q 786 -75 786 11 q 760 -165 786 -122 q 685 -240 733 -208 q 567 -292 636 -272 q 411 -311 497 -311 m 404 290 q 515 333 469 290 q 560 450 560 376 q 547 514 560 485 q 514 564 535 543 q 465 597 493 585 q 404 608 436 608 q 344 597 372 608 q 294 564 315 585 q 261 514 274 543 q 249 450 249 485 q 294 333 249 376 q 404 290 340 290 m 419 -228 q 525 -217 478 -228 q 606 -187 572 -206 q 656 -144 639 -168 q 674 -93 674 -119 q 635 -28 674 -44 q 519 -11 597 -11 l 388 -11 q 333 -9 358 -11 q 285 0 307 -7 q 217 -55 236 -26 q 199 -112 199 -83 q 255 -197 199 -165 q 419 -228 311 -228 m 426 793 q 331 811 371 793 q 265 859 290 829 q 226 926 239 889 q 210 1003 213 964 l 281 1014 q 295 962 285 988 q 324 915 306 936 q 367 882 342 894 q 426 869 393 869 q 485 882 460 869 q 529 915 511 894 q 558 962 547 936 q 572 1014 568 988 l 643 1003 q 627 926 640 964 q 588 859 614 889 q 522 811 561 829 q 426 793 482 793 z "},"Ġ":{"ha":833,"x_min":74,"x_max":740,"o":"m 468 -17 q 310 15 382 -17 q 185 108 238 47 q 103 256 132 168 q 74 456 74 344 q 103 653 74 565 q 187 802 133 742 q 315 895 240 863 q 478 928 389 928 q 561 918 524 928 q 630 892 599 908 q 685 857 661 876 q 729 817 710 838 l 664 743 q 588 803 631 779 q 478 826 544 826 q 362 801 414 826 q 272 727 310 775 q 215 611 235 679 q 194 458 194 543 q 213 303 194 372 q 267 186 232 235 q 356 111 303 138 q 475 85 408 85 q 565 99 524 85 q 633 139 607 114 l 633 376 l 451 376 l 451 472 l 740 472 l 740 89 q 627 14 697 44 q 468 -17 557 -17 m 458 992 q 400 1013 424 992 q 376 1071 376 1035 q 400 1127 376 1106 q 458 1149 424 1149 q 517 1127 493 1149 q 540 1071 540 1106 q 517 1013 540 1035 q 458 992 493 992 z "},"ġ":{"ha":833,"x_min":100,"x_max":786,"o":"m 411 -311 q 181 -262 263 -311 q 100 -124 100 -214 q 128 -44 100 -83 q 211 26 157 -6 l 211 32 q 163 74 183 47 q 142 143 142 100 q 163 209 142 175 q 222 269 183 243 l 222 275 q 163 345 188 301 q 139 450 139 389 q 160 550 139 506 q 218 626 182 594 q 302 674 254 657 q 404 692 350 692 q 504 675 460 692 l 783 675 l 783 582 l 608 582 q 649 522 632 558 q 665 446 665 486 q 645 349 665 392 q 590 276 625 306 q 506 230 554 246 q 404 214 458 214 q 348 220 378 214 q 290 239 318 226 q 238 161 238 206 q 274 102 238 121 q 378 83 311 83 l 529 83 q 723 47 660 83 q 786 -75 786 11 q 760 -165 786 -122 q 685 -240 733 -208 q 567 -292 636 -272 q 411 -311 497 -311 m 404 290 q 515 333 469 290 q 560 450 560 376 q 547 514 560 485 q 514 564 535 543 q 465 597 493 585 q 404 608 436 608 q 344 597 372 608 q 294 564 315 585 q 261 514 274 543 q 249 450 249 485 q 294 333 249 376 q 404 290 340 290 m 419 -228 q 525 -217 478 -228 q 606 -187 572 -206 q 656 -144 639 -168 q 674 -93 674 -119 q 635 -28 674 -44 q 519 -11 597 -11 l 388 -11 q 333 -9 358 -11 q 285 0 307 -7 q 217 -55 236 -26 q 199 -112 199 -83 q 255 -197 199 -165 q 419 -228 311 -228 m 426 817 q 361 841 388 817 q 335 906 335 865 q 361 970 335 946 q 426 994 388 994 q 492 970 465 994 q 518 906 518 946 q 492 841 518 865 q 426 817 465 817 z "},"Ģ":{"ha":833,"x_min":74,"x_max":740,"o":"m 468 -17 q 310 15 382 -17 q 185 108 238 47 q 103 256 132 168 q 74 456 74 344 q 103 653 74 565 q 187 802 133 742 q 315 895 240 863 q 478 928 389 928 q 561 918 524 928 q 630 892 599 908 q 685 857 661 876 q 729 817 710 838 l 664 743 q 588 803 631 779 q 478 826 544 826 q 362 801 414 826 q 272 727 310 775 q 215 611 235 679 q 194 458 194 543 q 213 303 194 372 q 267 186 232 235 q 356 111 303 138 q 475 85 408 85 q 565 99 524 85 q 633 139 607 114 l 633 376 l 451 376 l 451 472 l 740 472 l 740 89 q 627 14 697 44 q 468 -17 557 -17 m 338 -314 l 326 -258 q 446 -235 414 -251 q 478 -192 478 -219 q 453 -151 478 -164 q 379 -133 428 -137 l 404 -81 q 531 -116 494 -92 q 567 -187 567 -140 q 508 -278 567 -249 q 338 -314 449 -308 z "},"ģ":{"ha":833,"x_min":100,"x_max":786,"o":"m 411 -311 q 181 -262 263 -311 q 100 -124 100 -214 q 128 -44 100 -83 q 211 26 157 -6 l 211 32 q 163 74 183 47 q 142 143 142 100 q 163 209 142 175 q 222 269 183 243 l 222 275 q 163 345 188 301 q 139 450 139 389 q 160 550 139 506 q 218 626 182 594 q 302 674 254 657 q 404 692 350 692 q 504 675 460 692 l 783 675 l 783 582 l 608 582 q 649 522 632 558 q 665 446 665 486 q 645 349 665 392 q 590 276 625 306 q 506 230 554 246 q 404 214 458 214 q 348 220 378 214 q 290 239 318 226 q 238 161 238 206 q 274 102 238 121 q 378 83 311 83 l 529 83 q 723 47 660 83 q 786 -75 786 11 q 760 -165 786 -122 q 685 -240 733 -208 q 567 -292 636 -272 q 411 -311 497 -311 m 404 290 q 515 333 469 290 q 560 450 560 376 q 547 514 560 485 q 514 564 535 543 q 465 597 493 585 q 404 608 436 608 q 344 597 372 608 q 294 564 315 585 q 261 514 274 543 q 249 450 249 485 q 294 333 249 376 q 404 290 340 290 m 419 -228 q 525 -217 478 -228 q 606 -187 572 -206 q 656 -144 639 -168 q 674 -93 674 -119 q 635 -28 674 -44 q 519 -11 597 -11 l 388 -11 q 333 -9 358 -11 q 285 0 307 -7 q 217 -55 236 -26 q 199 -112 199 -83 q 255 -197 199 -165 q 419 -228 311 -228 m 481 799 q 354 833 390 808 q 318 906 318 858 q 377 997 318 967 q 547 1033 436 1026 l 558 976 q 439 955 471 971 q 407 910 407 939 q 432 869 407 882 q 506 851 457 856 l 481 799 z "},"Ĥ":{"ha":833,"x_min":110,"x_max":724,"o":"m 110 0 l 110 911 l 226 911 l 226 529 l 607 529 l 607 911 l 724 911 l 724 0 l 607 0 l 607 429 l 226 429 l 226 0 l 110 0 m 261 971 l 211 1007 l 357 1164 l 476 1164 l 622 1007 l 572 971 l 419 1100 l 414 1100 l 261 971 z "},"ĥ":{"ha":833,"x_min":-22,"x_max":726,"o":"m 129 0 l 129 989 l 243 989 l 243 719 l 236 560 l 240 560 q 353 654 293 617 q 493 692 414 692 q 670 623 614 692 q 726 419 726 554 l 726 0 l 613 0 l 613 404 q 576 547 613 500 q 457 593 540 593 q 401 585 426 593 q 350 563 375 578 q 299 524 325 547 q 243 471 272 501 l 243 0 l 129 0 m 28 1054 l -22 1090 l 124 1247 l 243 1247 l 389 1090 l 339 1054 l 186 1183 l 181 1183 l 28 1054 z "},"Ħ":{"ha":833,"x_min":14,"x_max":819,"o":"m 14 672 l 14 750 l 110 758 l 110 911 l 226 911 l 226 758 l 607 758 l 607 911 l 724 911 l 724 758 l 819 758 l 819 672 l 724 672 l 724 0 l 607 0 l 607 429 l 226 429 l 226 0 l 110 0 l 110 672 l 14 672 m 226 529 l 607 529 l 607 672 l 226 672 l 226 529 z "},"ħ":{"ha":833,"x_min":28,"x_max":726,"o":"m 129 0 l 129 781 l 28 781 l 28 861 l 129 869 l 129 989 l 243 989 l 243 869 l 539 869 l 539 781 l 243 781 l 243 692 l 236 532 l 240 532 q 353 626 293 589 q 493 664 414 664 q 670 595 614 664 q 726 392 726 526 l 726 0 l 613 0 l 613 376 q 576 519 613 472 q 457 565 540 565 q 401 558 426 565 q 350 535 375 550 q 299 497 325 519 q 243 443 272 474 l 243 0 l 129 0 z "},"Ĩ":{"ha":833,"x_min":132,"x_max":701,"o":"m 132 0 l 132 99 l 358 99 l 358 814 l 132 814 l 132 911 l 701 911 l 701 814 l 475 814 l 475 99 l 701 99 l 701 0 l 132 0 m 521 985 q 454 1000 482 985 q 403 1034 426 1015 q 360 1068 381 1053 q 315 1083 340 1083 q 271 1060 289 1083 q 249 992 253 1036 l 171 997 q 213 1122 175 1076 q 313 1168 250 1168 q 379 1153 351 1168 q 430 1119 407 1138 q 473 1085 453 1100 q 518 1069 493 1069 q 585 1161 574 1069 l 663 1156 q 621 1030 658 1075 q 521 985 583 985 z "},"ĩ":{"ha":833,"x_min":125,"x_max":724,"o":"m 439 0 l 439 582 l 125 582 l 125 675 l 553 675 l 553 0 l 439 0 m 583 801 q 519 819 546 801 q 471 860 493 838 q 428 900 449 882 q 385 918 408 918 q 338 888 353 918 q 319 808 322 857 l 243 813 q 253 888 244 853 q 279 947 263 922 q 322 987 296 972 q 383 1001 347 1001 q 447 983 421 1001 q 496 943 474 965 q 538 903 518 921 q 583 885 558 885 q 629 915 614 885 q 647 994 644 946 l 724 989 q 713 915 722 949 q 688 856 704 881 q 645 816 671 831 q 583 801 619 801 z "},"Ī":{"ha":833,"x_min":132,"x_max":701,"o":"m 132 0 l 132 99 l 358 99 l 358 814 l 132 814 l 132 911 l 701 911 l 701 814 l 475 814 l 475 99 l 701 99 l 701 0 l 132 0 m 231 1021 l 231 1100 l 603 1100 l 603 1021 l 231 1021 z "},"ī":{"ha":833,"x_min":125,"x_max":668,"o":"m 439 0 l 439 582 l 125 582 l 125 675 l 553 675 l 553 0 l 439 0 m 299 835 l 299 914 l 668 914 l 668 835 l 299 835 z "},"Ĭ":{"ha":833,"x_min":132,"x_max":701,"o":"m 132 0 l 132 99 l 358 99 l 358 814 l 132 814 l 132 911 l 701 911 l 701 814 l 475 814 l 475 99 l 701 99 l 701 0 l 132 0 m 417 979 q 332 994 368 979 q 271 1033 296 1008 q 232 1090 246 1057 q 214 1158 218 1122 l 283 1169 q 324 1087 292 1121 q 417 1053 357 1053 q 509 1087 476 1053 q 550 1169 542 1121 l 619 1158 q 601 1090 615 1122 q 563 1033 588 1057 q 501 994 538 1008 q 417 979 465 979 z "},"ĭ":{"ha":833,"x_min":125,"x_max":700,"o":"m 439 0 l 439 582 l 125 582 l 125 675 l 553 675 l 553 0 l 439 0 m 483 793 q 388 811 428 793 q 322 859 347 829 q 283 926 296 889 q 267 1003 269 964 l 338 1014 q 352 962 342 988 q 381 915 363 936 q 424 882 399 894 q 483 869 450 869 q 542 882 517 869 q 586 915 568 894 q 615 962 604 936 q 629 1014 625 988 l 700 1003 q 684 926 697 964 q 644 859 671 889 q 578 811 618 829 q 483 793 539 793 z "},"Į":{"ha":833,"x_min":132,"x_max":701,"o":"m 432 -312 q 330 -281 371 -312 q 289 -186 289 -250 q 321 -81 289 -128 q 388 0 353 -33 l 132 0 l 132 99 l 358 99 l 358 814 l 132 814 l 132 911 l 701 911 l 701 814 l 475 814 l 475 99 l 701 99 l 701 0 l 482 0 q 404 -81 429 -40 q 379 -161 379 -122 q 403 -215 379 -197 q 454 -232 426 -232 q 494 -223 478 -232 q 524 -203 511 -214 l 558 -262 q 503 -298 535 -283 q 432 -312 472 -312 z "},"į":{"ha":833,"x_min":125,"x_max":619,"o":"m 490 -312 q 387 -281 428 -312 q 346 -183 346 -250 q 381 -79 346 -125 q 465 0 417 -33 l 439 0 l 439 582 l 125 582 l 125 675 l 553 675 l 553 -7 q 460 -78 490 -37 q 431 -161 431 -119 q 456 -219 431 -200 q 514 -237 481 -237 q 553 -229 536 -237 q 586 -208 571 -221 l 619 -262 q 562 -299 594 -286 q 490 -312 529 -312 m 483 817 q 418 841 444 817 q 392 906 392 865 q 418 970 392 946 q 483 994 444 994 q 549 970 522 994 q 575 906 575 946 q 549 841 575 865 q 483 817 522 817 z "},"İ":{"ha":833,"x_min":132,"x_max":701,"o":"m 132 0 l 132 99 l 358 99 l 358 814 l 132 814 l 132 911 l 701 911 l 701 814 l 475 814 l 475 99 l 701 99 l 701 0 l 132 0 m 417 992 q 358 1013 382 992 q 335 1071 335 1035 q 358 1127 335 1106 q 417 1149 382 1149 q 475 1127 451 1149 q 499 1071 499 1106 q 475 1013 499 1035 q 417 992 451 992 z "},"ı":{"ha":833,"x_min":125,"x_max":553,"o":"m 439 0 l 439 582 l 125 582 l 125 675 l 553 675 l 553 0 l 439 0 z "},"Ĳ":{"ha":833,"x_min":156,"x_max":678,"o":"m 156 0 l 156 911 l 271 911 l 271 0 l 156 0 m 488 -229 q 430 -224 456 -229 q 385 -211 404 -218 l 407 -119 q 440 -129 422 -125 q 475 -133 457 -133 q 545 -98 528 -133 q 563 0 563 -62 l 563 911 l 678 911 l 678 -4 q 634 -168 678 -107 q 488 -229 590 -229 z "},"ĳ":{"ha":833,"x_min":129,"x_max":728,"o":"m 156 0 l 156 675 l 269 675 l 269 0 l 156 0 m 214 814 q 153 836 178 814 q 129 894 129 858 q 153 953 129 931 q 214 975 178 975 q 274 953 250 975 q 297 894 297 931 q 274 836 297 858 q 214 814 250 814 m 515 -301 q 459 -296 483 -301 q 417 -283 435 -290 l 439 -197 q 469 -205 453 -201 q 503 -208 485 -208 q 570 -174 554 -208 q 586 -76 586 -139 l 586 675 l 700 675 l 700 -76 q 658 -240 700 -179 q 515 -301 617 -301 m 644 814 q 584 836 608 814 q 560 894 560 858 q 584 953 560 931 q 644 975 608 975 q 704 953 681 975 q 728 894 728 931 q 704 836 728 858 q 644 814 681 814 z "},"Ĵ":{"ha":833,"x_min":113,"x_max":685,"o":"m 383 -17 q 233 19 307 -17 q 113 135 160 56 l 185 206 q 276 114 224 143 q 381 85 328 85 q 524 137 479 85 q 569 301 569 189 l 569 815 l 188 815 l 188 913 l 685 913 l 685 292 q 669 172 685 228 q 619 74 654 115 q 526 8 583 32 q 383 -17 468 -17 m 294 971 l 244 1007 l 390 1164 l 510 1164 l 656 1007 l 606 971 l 453 1100 l 447 1100 l 294 971 z "},"ĵ":{"ha":833,"x_min":76,"x_max":699,"o":"m 269 -301 q 167 -288 217 -301 q 76 -256 117 -275 l 114 -171 q 190 -199 150 -189 q 268 -208 229 -208 q 351 -196 318 -208 q 404 -160 385 -183 q 431 -102 424 -136 q 439 -25 439 -68 l 439 582 l 125 582 l 125 675 l 553 675 l 553 -17 q 539 -131 553 -79 q 492 -222 525 -183 q 406 -281 460 -260 q 269 -301 351 -301 m 317 789 l 268 833 l 426 1028 l 540 1028 l 699 833 l 650 789 l 486 946 l 481 946 l 317 789 z "},"Ķ":{"ha":833,"x_min":136,"x_max":806,"o":"m 136 0 l 136 911 l 253 911 l 253 454 l 257 454 l 640 911 l 772 911 l 483 565 l 806 0 l 675 0 l 410 478 l 253 290 l 253 0 l 136 0 m 349 -314 l 338 -258 q 457 -235 425 -251 q 489 -192 489 -219 q 464 -151 489 -164 q 390 -133 439 -137 l 415 -81 q 542 -116 506 -92 q 578 -187 578 -140 q 519 -278 578 -249 q 349 -314 460 -308 z "},"ķ":{"ha":833,"x_min":147,"x_max":797,"o":"m 147 0 l 147 989 l 261 989 l 261 319 l 267 319 l 631 675 l 761 675 l 492 410 l 797 0 l 669 0 l 421 340 l 261 183 l 261 0 l 147 0 m 344 -314 l 333 -258 q 453 -235 421 -251 q 485 -192 485 -219 q 460 -151 485 -164 q 386 -133 435 -137 l 411 -81 q 538 -116 501 -92 q 574 -187 574 -140 q 515 -278 574 -249 q 344 -314 456 -308 z "},"ĸ":{"ha":833,"x_min":147,"x_max":797,"o":"m 147 0 l 147 675 l 261 675 l 261 319 l 265 321 l 631 675 l 761 675 l 492 407 l 797 0 l 669 0 l 421 333 l 261 181 l 261 0 l 147 0 z "},"Ĺ":{"ha":833,"x_min":174,"x_max":751,"o":"m 186 0 l 186 911 l 300 911 l 300 99 l 751 99 l 751 0 l 186 0 m 224 968 l 174 1026 l 369 1204 l 435 1128 l 224 968 z "},"ĺ":{"ha":833,"x_min":103,"x_max":746,"o":"m 565 -17 q 400 44 457 -17 q 343 226 343 106 l 343 896 l 103 896 l 103 989 l 457 989 l 457 218 q 493 110 457 143 q 590 78 529 78 q 717 108 650 78 l 746 24 q 660 -6 699 4 q 565 -17 621 -17 m 357 1051 l 307 1110 l 503 1288 l 568 1211 l 357 1051 z "},"Ļ":{"ha":833,"x_min":186,"x_max":751,"o":"m 186 0 l 186 911 l 300 911 l 300 99 l 751 99 l 751 0 l 186 0 m 364 -314 l 353 -258 q 472 -235 440 -251 q 504 -192 504 -219 q 479 -151 504 -164 q 406 -133 454 -137 l 431 -81 q 557 -116 521 -92 q 593 -187 593 -140 q 534 -278 593 -249 q 364 -314 475 -308 z "},"ļ":{"ha":833,"x_min":103,"x_max":746,"o":"m 565 -17 q 400 44 457 -17 q 343 226 343 106 l 343 896 l 103 896 l 103 989 l 457 989 l 457 218 q 493 110 457 143 q 590 78 529 78 q 717 108 650 78 l 746 24 q 660 -6 699 4 q 565 -17 621 -17 m 414 -314 l 403 -258 q 522 -235 490 -251 q 554 -192 554 -219 q 529 -151 554 -164 q 456 -133 504 -137 l 481 -81 q 607 -116 571 -92 q 643 -187 643 -140 q 584 -278 643 -249 q 414 -314 525 -308 z "},"Ľ":{"ha":833,"x_min":186,"x_max":751,"o":"m 186 0 l 186 911 l 300 911 l 300 99 l 751 99 l 751 0 l 186 0 m 531 715 l 526 1088 l 629 1088 l 629 975 l 610 715 l 531 715 z "},"ľ":{"ha":833,"x_min":103,"x_max":746,"o":"m 565 -17 q 400 44 457 -17 q 343 226 343 106 l 343 896 l 103 896 l 103 989 l 457 989 l 457 218 q 493 110 457 143 q 590 78 529 78 q 717 108 650 78 l 746 24 q 660 -6 699 4 q 565 -17 621 -17 m 561 761 l 557 1133 l 660 1133 l 660 1021 l 640 761 l 561 761 z "},"Ŀ":{"ha":833,"x_min":186,"x_max":751,"o":"m 186 0 l 186 911 l 300 911 l 300 99 l 751 99 l 751 0 l 186 0 m 649 399 q 583 423 610 399 q 557 488 557 447 q 583 552 557 528 q 649 576 610 576 q 714 552 688 576 q 740 488 740 528 q 714 423 740 447 q 649 399 688 399 z "},"ŀ":{"ha":833,"x_min":50,"x_max":882,"o":"m 513 -17 q 347 44 404 -17 q 290 226 290 106 l 290 896 l 50 896 l 50 989 l 404 989 l 404 218 q 440 110 404 143 q 538 78 476 78 q 664 108 597 78 l 693 24 q 607 -6 646 4 q 513 -17 568 -17 m 790 397 q 725 422 751 397 q 699 486 699 446 q 725 551 699 526 q 790 575 751 575 q 856 551 829 575 q 882 486 882 526 q 856 422 882 446 q 790 397 829 397 z "},"Ł":{"ha":833,"x_min":14,"x_max":751,"o":"m 54 251 l 14 325 l 186 417 l 186 911 l 300 911 l 300 468 l 593 625 l 633 551 l 300 374 l 300 99 l 751 99 l 751 0 l 186 0 l 186 324 l 54 251 z "},"ł":{"ha":833,"x_min":103,"x_max":746,"o":"m 565 -17 q 400 44 457 -17 q 343 226 343 106 l 343 465 l 193 376 l 153 451 l 343 563 l 343 896 l 103 896 l 103 989 l 457 989 l 457 615 l 663 732 l 701 657 l 457 518 l 457 218 q 493 110 457 143 q 590 78 529 78 q 717 108 650 78 l 746 24 q 660 -6 699 4 q 565 -17 621 -17 z "},"Ń":{"ha":833,"x_min":114,"x_max":719,"o":"m 114 0 l 114 911 l 242 911 l 533 339 l 621 150 l 624 150 q 615 292 621 218 q 608 439 608 367 l 608 911 l 719 911 l 719 0 l 592 0 l 300 572 l 213 761 l 210 761 q 219 619 213 690 q 225 476 225 547 l 225 0 l 114 0 m 390 968 l 340 1026 l 536 1204 l 601 1128 l 390 968 z "},"ń":{"ha":833,"x_min":129,"x_max":726,"o":"m 129 0 l 129 675 l 224 675 l 233 560 l 239 560 q 353 654 292 617 q 493 692 414 692 q 670 623 614 692 q 726 419 726 554 l 726 0 l 613 0 l 613 404 q 576 547 613 500 q 457 593 540 593 q 401 585 426 593 q 350 563 375 578 q 299 524 325 547 q 243 471 272 501 l 243 0 l 129 0 m 413 789 l 353 846 l 550 1079 l 631 1001 l 413 789 z "},"Ņ":{"ha":833,"x_min":114,"x_max":719,"o":"m 114 0 l 114 911 l 242 911 l 533 339 l 621 150 l 624 150 q 615 292 621 218 q 608 439 608 367 l 608 911 l 719 911 l 719 0 l 592 0 l 300 572 l 213 761 l 210 761 q 219 619 213 690 q 225 476 225 547 l 225 0 l 114 0 m 296 -314 l 285 -258 q 404 -235 372 -251 q 436 -192 436 -219 q 411 -151 436 -164 q 338 -133 386 -137 l 363 -81 q 489 -116 453 -92 q 525 -187 525 -140 q 466 -278 525 -249 q 296 -314 407 -308 z "},"ņ":{"ha":833,"x_min":129,"x_max":726,"o":"m 129 0 l 129 675 l 224 675 l 233 560 l 239 560 q 353 654 292 617 q 493 692 414 692 q 670 623 614 692 q 726 419 726 554 l 726 0 l 613 0 l 613 404 q 576 547 613 500 q 457 593 540 593 q 401 585 426 593 q 350 563 375 578 q 299 524 325 547 q 243 471 272 501 l 243 0 l 129 0 m 314 -314 l 303 -258 q 422 -235 390 -251 q 454 -192 454 -219 q 429 -151 454 -164 q 356 -133 404 -137 l 381 -81 q 507 -116 471 -92 q 543 -187 543 -140 q 484 -278 543 -249 q 314 -314 425 -308 z "},"Ň":{"ha":833,"x_min":114,"x_max":719,"o":"m 114 0 l 114 911 l 242 911 l 533 339 l 621 150 l 624 150 q 615 292 621 218 q 608 439 608 367 l 608 911 l 719 911 l 719 0 l 592 0 l 300 572 l 213 761 l 210 761 q 219 619 213 690 q 225 476 225 547 l 225 0 l 114 0 m 371 981 l 225 1138 l 275 1174 l 428 1046 l 433 1046 l 586 1174 l 636 1138 l 490 981 l 371 981 z "},"ň":{"ha":833,"x_min":129,"x_max":726,"o":"m 129 0 l 129 675 l 224 675 l 233 560 l 239 560 q 353 654 292 617 q 493 692 414 692 q 670 623 614 692 q 726 419 726 554 l 726 0 l 613 0 l 613 404 q 576 547 613 500 q 457 593 540 593 q 401 585 426 593 q 350 563 375 578 q 299 524 325 547 q 243 471 272 501 l 243 0 l 129 0 m 385 797 l 226 992 l 275 1036 l 439 879 l 444 879 l 608 1036 l 657 992 l 499 797 l 385 797 z "},"ŉ":{"ha":833,"x_min":-31,"x_max":831,"o":"m 272 0 l 272 675 l 367 675 l 376 569 l 382 569 q 486 656 431 621 q 615 692 542 692 q 778 625 725 692 q 831 428 831 558 l 831 0 l 715 0 l 715 413 q 683 549 715 504 q 579 593 651 593 q 483 565 525 593 q 386 481 440 536 l 386 0 l 272 0 m 8 486 l -31 553 q 72 644 35 589 q 114 772 110 699 q 78 764 97 764 q 6 791 33 764 q -21 863 -21 818 q 8 941 -21 911 q 82 971 38 971 q 172 926 138 971 q 207 803 207 882 q 154 617 207 699 q 8 486 101 535 z "},"Ŋ":{"ha":833,"x_min":118,"x_max":763,"o":"m 525 -17 q 469 -12 499 -17 q 421 3 440 -7 l 450 107 q 478 97 463 100 q 513 93 493 93 q 565 110 540 93 q 606 171 589 128 q 633 285 624 214 q 643 465 643 357 q 628 638 643 568 q 587 749 614 707 q 522 808 560 790 q 438 826 483 826 q 329 789 386 826 q 233 696 272 751 l 233 0 l 118 0 l 118 911 l 231 911 l 231 804 q 335 892 275 856 q 463 928 396 928 q 582 903 526 928 q 677 824 638 879 q 740 681 717 769 q 763 465 763 593 q 747 242 763 333 q 700 93 731 150 q 625 10 669 36 q 525 -17 581 -17 z "},"ŋ":{"ha":833,"x_min":129,"x_max":726,"o":"m 538 -254 q 478 -248 506 -254 q 432 -235 451 -242 l 454 -147 q 488 -157 469 -153 q 525 -161 506 -161 q 595 -124 578 -161 q 613 -19 613 -86 l 613 404 q 576 547 613 500 q 457 593 540 593 q 401 585 426 593 q 350 563 375 578 q 299 524 325 547 q 243 471 272 501 l 243 0 l 129 0 l 129 675 l 224 675 l 233 560 l 239 560 q 353 654 292 617 q 493 692 414 692 q 670 623 614 692 q 726 419 726 554 l 726 -19 q 683 -191 726 -128 q 538 -254 639 -254 z "},"Ō":{"ha":833,"x_min":67,"x_max":767,"o":"m 417 -17 q 275 16 339 -17 q 165 110 211 49 q 92 259 118 171 q 67 460 67 347 q 92 657 67 569 q 165 804 118 744 q 275 896 211 864 q 417 928 339 928 q 558 896 493 928 q 669 804 622 864 q 741 657 715 744 q 767 460 767 569 q 741 259 767 347 q 669 110 715 171 q 558 16 622 49 q 417 -17 493 -17 m 417 85 q 511 110 468 85 q 584 185 554 136 q 631 303 614 233 q 647 460 647 372 q 631 614 647 546 q 584 729 614 682 q 511 801 554 776 q 417 826 468 826 q 322 801 364 826 q 249 729 279 776 q 203 614 219 682 q 186 460 186 546 q 203 303 186 372 q 249 185 219 233 q 322 110 279 136 q 417 85 364 85 m 231 1021 l 231 1100 l 603 1100 l 603 1021 l 231 1021 z "},"ō":{"ha":833,"x_min":83,"x_max":750,"o":"m 417 -17 q 290 7 350 -17 q 183 76 229 31 q 110 187 138 121 q 83 336 83 253 q 110 487 83 421 q 183 599 138 553 q 290 668 229 644 q 417 692 350 692 q 544 668 483 692 q 650 599 604 644 q 723 487 696 553 q 750 336 750 421 q 723 187 750 253 q 650 76 696 121 q 544 7 604 31 q 417 -17 483 -17 m 417 78 q 505 97 465 78 q 573 149 544 115 q 617 231 601 183 q 632 336 632 278 q 617 442 632 394 q 573 525 601 490 q 505 578 544 560 q 417 597 465 597 q 328 578 368 597 q 260 525 289 560 q 217 442 232 490 q 201 336 201 394 q 217 231 201 278 q 260 149 232 183 q 328 97 289 115 q 417 78 368 78 m 232 835 l 232 914 l 601 914 l 601 835 l 232 835 z "},"Ŏ":{"ha":833,"x_min":67,"x_max":767,"o":"m 417 -17 q 275 16 339 -17 q 165 110 211 49 q 92 259 118 171 q 67 460 67 347 q 92 657 67 569 q 165 804 118 744 q 275 896 211 864 q 417 928 339 928 q 558 896 493 928 q 669 804 622 864 q 741 657 715 744 q 767 460 767 569 q 741 259 767 347 q 669 110 715 171 q 558 16 622 49 q 417 -17 493 -17 m 417 85 q 511 110 468 85 q 584 185 554 136 q 631 303 614 233 q 647 460 647 372 q 631 614 647 546 q 584 729 614 682 q 511 801 554 776 q 417 826 468 826 q 322 801 364 826 q 249 729 279 776 q 203 614 219 682 q 186 460 186 546 q 203 303 186 372 q 249 185 219 233 q 322 110 279 136 q 417 85 364 85 m 417 979 q 332 994 368 979 q 271 1033 296 1008 q 232 1090 246 1057 q 214 1158 218 1122 l 283 1169 q 324 1087 292 1121 q 417 1053 357 1053 q 509 1087 476 1053 q 550 1169 542 1121 l 619 1158 q 601 1090 615 1122 q 563 1033 588 1057 q 501 994 538 1008 q 417 979 465 979 z "},"ŏ":{"ha":833,"x_min":83,"x_max":750,"o":"m 417 -17 q 290 7 350 -17 q 183 76 229 31 q 110 187 138 121 q 83 336 83 253 q 110 487 83 421 q 183 599 138 553 q 290 668 229 644 q 417 692 350 692 q 544 668 483 692 q 650 599 604 644 q 723 487 696 553 q 750 336 750 421 q 723 187 750 253 q 650 76 696 121 q 544 7 604 31 q 417 -17 483 -17 m 417 78 q 505 97 465 78 q 573 149 544 115 q 617 231 601 183 q 632 336 632 278 q 617 442 632 394 q 573 525 601 490 q 505 578 544 560 q 417 597 465 597 q 328 578 368 597 q 260 525 289 560 q 217 442 232 490 q 201 336 201 394 q 217 231 201 278 q 260 149 232 183 q 328 97 289 115 q 417 78 368 78 m 417 793 q 321 811 361 793 q 255 859 281 829 q 216 926 229 889 q 200 1003 203 964 l 271 1014 q 285 962 275 988 q 314 915 296 936 q 358 882 332 894 q 417 869 383 869 q 476 882 450 869 q 519 915 501 894 q 548 962 538 936 q 563 1014 558 988 l 633 1003 q 617 926 631 964 q 578 859 604 889 q 512 811 551 829 q 417 793 472 793 z "},"Ő":{"ha":833,"x_min":67,"x_max":767,"o":"m 417 -17 q 275 16 339 -17 q 165 110 211 49 q 92 259 118 171 q 67 460 67 347 q 92 657 67 569 q 165 804 118 744 q 275 896 211 864 q 417 928 339 928 q 558 896 493 928 q 669 804 622 864 q 741 657 715 744 q 767 460 767 569 q 741 259 767 347 q 669 110 715 171 q 558 16 622 49 q 417 -17 493 -17 m 417 85 q 511 110 468 85 q 584 185 554 136 q 631 303 614 233 q 647 460 647 372 q 631 614 647 546 q 584 729 614 682 q 511 801 554 776 q 417 826 468 826 q 322 801 364 826 q 249 729 279 776 q 203 614 219 682 q 186 460 186 546 q 203 303 186 372 q 249 185 219 233 q 322 110 279 136 q 417 85 364 85 m 317 976 l 257 1006 l 385 1217 l 464 1172 l 317 976 m 539 976 l 479 1006 l 608 1217 l 686 1172 l 539 976 z "},"ő":{"ha":833,"x_min":83,"x_max":750,"o":"m 417 -17 q 290 7 350 -17 q 183 76 229 31 q 110 187 138 121 q 83 336 83 253 q 110 487 83 421 q 183 599 138 553 q 290 668 229 644 q 417 692 350 692 q 544 668 483 692 q 650 599 604 644 q 723 487 696 553 q 750 336 750 421 q 723 187 750 253 q 650 76 696 121 q 544 7 604 31 q 417 -17 483 -17 m 417 78 q 505 97 465 78 q 573 149 544 115 q 617 231 601 183 q 632 336 632 278 q 617 442 632 394 q 573 525 601 490 q 505 578 544 560 q 417 597 465 597 q 328 578 368 597 q 260 525 289 560 q 217 442 232 490 q 201 336 201 394 q 217 231 201 278 q 260 149 232 183 q 328 97 289 115 q 417 78 368 78 m 338 789 l 274 818 l 394 1057 l 475 1018 l 338 789 m 547 789 l 483 818 l 604 1057 l 685 1018 l 547 789 z "},"Œ":{"ha":833,"x_min":46,"x_max":821,"o":"m 411 0 q 142 120 238 0 q 46 460 46 240 q 144 795 46 678 q 415 913 242 913 l 807 913 l 807 815 l 538 815 l 538 528 l 743 528 l 743 429 l 538 429 l 538 99 l 821 99 l 821 0 l 411 0 m 401 94 l 432 94 l 432 817 l 401 817 q 224 725 282 817 q 165 460 165 633 q 224 190 165 285 q 401 94 282 94 z "},"œ":{"ha":833,"x_min":15,"x_max":829,"o":"m 261 78 q 316 97 292 78 q 358 150 340 115 q 385 232 375 185 q 394 338 394 279 q 385 443 394 396 q 358 525 375 490 q 316 578 340 560 q 261 597 292 597 q 158 526 193 597 q 122 336 122 454 q 158 149 122 219 q 261 78 193 78 m 254 -17 q 159 7 203 -17 q 83 76 115 31 q 33 187 51 121 q 15 336 15 253 q 33 487 15 421 q 84 599 51 553 q 160 668 117 644 q 256 692 204 692 q 365 651 319 692 q 438 525 410 611 q 515 651 465 611 q 629 692 564 692 q 717 667 679 692 q 779 600 754 642 q 817 502 804 558 q 829 383 829 446 q 828 344 829 364 q 824 306 826 324 l 482 306 q 534 133 489 189 q 647 76 579 76 q 711 89 683 76 q 767 121 739 101 l 808 43 q 734 1 776 18 q 643 -17 692 -17 q 521 22 575 -17 q 439 146 467 61 q 364 22 410 61 q 254 -17 318 -17 m 619 601 q 528 550 565 601 q 483 394 490 499 l 736 394 q 619 601 731 601 z "},"Ŕ":{"ha":833,"x_min":139,"x_max":768,"o":"m 139 0 l 139 911 l 422 911 q 550 898 492 911 q 651 854 608 885 q 717 775 693 824 q 740 656 740 726 q 685 485 740 549 q 536 397 629 421 l 768 0 l 636 0 l 417 385 l 254 385 l 254 0 l 139 0 m 254 479 l 406 479 q 569 523 513 479 q 625 656 625 567 q 569 782 625 746 q 406 818 513 818 l 254 818 l 254 479 m 382 968 l 332 1026 l 528 1204 l 593 1128 l 382 968 z "},"ŕ":{"ha":833,"x_min":203,"x_max":746,"o":"m 203 0 l 203 675 l 297 675 l 307 515 l 311 515 q 441 644 364 597 q 613 692 518 692 q 682 685 650 692 q 746 664 714 679 l 719 565 q 659 583 683 578 q 594 589 635 589 q 448 545 518 589 q 317 396 378 501 l 317 0 l 203 0 m 451 789 l 392 846 l 589 1079 l 669 1001 l 451 789 z "},"Ŗ":{"ha":833,"x_min":139,"x_max":768,"o":"m 139 0 l 139 911 l 422 911 q 550 898 492 911 q 651 854 608 885 q 717 775 693 824 q 740 656 740 726 q 685 485 740 549 q 536 397 629 421 l 768 0 l 636 0 l 417 385 l 254 385 l 254 0 l 139 0 m 254 479 l 406 479 q 569 523 513 479 q 625 656 625 567 q 569 782 625 746 q 406 818 513 818 l 254 818 l 254 479 m 324 -314 l 313 -258 q 432 -235 400 -251 q 464 -192 464 -219 q 439 -151 464 -164 q 365 -133 414 -137 l 390 -81 q 517 -116 481 -92 q 553 -187 553 -140 q 494 -278 553 -249 q 324 -314 435 -308 z "},"ŗ":{"ha":833,"x_min":143,"x_max":746,"o":"m 203 0 l 203 675 l 297 675 l 307 515 l 311 515 q 441 644 364 597 q 613 692 518 692 q 682 685 650 692 q 746 664 714 679 l 719 565 q 659 583 683 578 q 594 589 635 589 q 448 545 518 589 q 317 396 378 501 l 317 0 l 203 0 m 154 -314 l 143 -258 q 263 -235 231 -251 q 294 -192 294 -219 q 269 -151 294 -164 q 196 -133 244 -137 l 221 -81 q 347 -116 311 -92 q 383 -187 383 -140 q 324 -278 383 -249 q 154 -314 265 -308 z "},"Ř":{"ha":833,"x_min":139,"x_max":768,"o":"m 139 0 l 139 911 l 422 911 q 550 898 492 911 q 651 854 608 885 q 717 775 693 824 q 740 656 740 726 q 685 485 740 549 q 536 397 629 421 l 768 0 l 636 0 l 417 385 l 254 385 l 254 0 l 139 0 m 254 479 l 406 479 q 569 523 513 479 q 625 656 625 567 q 569 782 625 746 q 406 818 513 818 l 254 818 l 254 479 m 363 981 l 217 1138 l 267 1174 l 419 1046 l 425 1046 l 578 1174 l 628 1138 l 482 981 l 363 981 z "},"ř":{"ha":833,"x_min":203,"x_max":746,"o":"m 203 0 l 203 675 l 297 675 l 307 515 l 311 515 q 441 644 364 597 q 613 692 518 692 q 682 685 650 692 q 746 664 714 679 l 719 565 q 659 583 683 578 q 594 589 635 589 q 448 545 518 589 q 317 396 378 501 l 317 0 l 203 0 m 424 797 l 265 992 l 314 1036 l 478 879 l 483 879 l 647 1036 l 696 992 l 538 797 l 424 797 z "},"Ś":{"ha":833,"x_min":93,"x_max":746,"o":"m 424 -17 q 240 19 324 -17 q 93 118 156 56 l 163 199 q 282 116 214 147 q 429 85 350 85 q 576 125 524 85 q 628 229 628 165 q 615 290 628 265 q 581 333 603 315 q 528 365 558 351 q 464 394 499 379 l 333 451 q 264 485 299 465 q 201 532 229 504 q 154 598 172 560 q 136 686 136 636 q 158 782 136 738 q 220 859 181 826 q 315 910 260 892 q 435 928 369 928 q 593 897 521 928 q 715 815 665 865 l 654 740 q 556 803 610 781 q 431 826 501 826 q 303 791 351 826 q 254 693 254 756 q 269 637 254 660 q 306 597 283 614 q 358 567 329 579 q 417 542 388 554 l 544 486 q 623 448 586 469 q 687 398 660 426 q 730 331 714 369 q 746 243 746 293 q 724 142 746 189 q 660 59 701 94 q 558 3 618 24 q 424 -17 499 -17 m 399 968 l 349 1026 l 544 1204 l 610 1128 l 399 968 z "},"ś":{"ha":833,"x_min":99,"x_max":731,"o":"m 431 -17 q 246 15 331 -17 q 99 89 161 46 l 151 164 q 280 97 210 122 q 444 72 350 72 q 573 103 531 72 q 615 178 615 135 q 608 214 615 197 q 578 246 601 231 q 514 275 556 261 q 404 303 472 289 q 206 377 272 331 q 140 500 140 424 q 158 576 140 540 q 212 637 176 611 q 299 677 247 663 q 421 692 351 692 q 571 666 499 692 q 693 606 643 640 l 638 532 q 533 583 590 564 q 411 603 476 603 q 290 574 325 603 q 256 506 256 544 q 301 438 256 461 q 451 393 347 415 q 590 355 536 375 q 676 310 644 335 q 719 254 707 285 q 731 185 731 224 q 711 107 731 143 q 653 43 692 71 q 559 -1 615 15 q 431 -17 503 -17 m 392 789 l 332 846 l 529 1079 l 610 1001 l 392 789 z "},"Ŝ":{"ha":833,"x_min":93,"x_max":746,"o":"m 424 -17 q 240 19 324 -17 q 93 118 156 56 l 163 199 q 282 116 214 147 q 429 85 350 85 q 576 125 524 85 q 628 229 628 165 q 615 290 628 265 q 581 333 603 315 q 528 365 558 351 q 464 394 499 379 l 333 451 q 264 485 299 465 q 201 532 229 504 q 154 598 172 560 q 136 686 136 636 q 158 782 136 738 q 220 859 181 826 q 315 910 260 892 q 435 928 369 928 q 593 897 521 928 q 715 815 665 865 l 654 740 q 556 803 610 781 q 431 826 501 826 q 303 791 351 826 q 254 693 254 756 q 269 637 254 660 q 306 597 283 614 q 358 567 329 579 q 417 542 388 554 l 544 486 q 623 448 586 469 q 687 398 660 426 q 730 331 714 369 q 746 243 746 293 q 724 142 746 189 q 660 59 701 94 q 558 3 618 24 q 424 -17 499 -17 m 283 971 l 233 1007 l 379 1164 l 499 1164 l 644 1007 l 594 971 l 442 1100 l 436 1100 l 283 971 z "},"ŝ":{"ha":833,"x_min":99,"x_max":731,"o":"m 431 -17 q 246 15 331 -17 q 99 89 161 46 l 151 164 q 280 97 210 122 q 444 72 350 72 q 573 103 531 72 q 615 178 615 135 q 608 214 615 197 q 578 246 601 231 q 514 275 556 261 q 404 303 472 289 q 206 377 272 331 q 140 500 140 424 q 158 576 140 540 q 212 637 176 611 q 299 677 247 663 q 421 692 351 692 q 571 666 499 692 q 693 606 643 640 l 638 532 q 533 583 590 564 q 411 603 476 603 q 290 574 325 603 q 256 506 256 544 q 301 438 256 461 q 451 393 347 415 q 590 355 536 375 q 676 310 644 335 q 719 254 707 285 q 731 185 731 224 q 711 107 731 143 q 653 43 692 71 q 559 -1 615 15 q 431 -17 503 -17 m 254 789 l 206 833 l 364 1028 l 478 1028 l 636 833 l 588 789 l 424 946 l 418 946 l 254 789 z "},"Ş":{"ha":833,"x_min":93,"x_max":746,"o":"m 424 -17 q 240 19 324 -17 q 93 118 156 56 l 163 199 q 282 116 214 147 q 429 85 350 85 q 576 125 524 85 q 628 229 628 165 q 615 290 628 265 q 581 333 603 315 q 528 365 558 351 q 464 394 499 379 l 333 451 q 264 485 299 465 q 201 532 229 504 q 154 598 172 560 q 136 686 136 636 q 158 782 136 738 q 220 859 181 826 q 315 910 260 892 q 435 928 369 928 q 593 897 521 928 q 715 815 665 865 l 654 740 q 556 803 610 781 q 431 826 501 826 q 303 791 351 826 q 254 693 254 756 q 269 637 254 660 q 306 597 283 614 q 358 567 329 579 q 417 542 388 554 l 544 486 q 623 448 586 469 q 687 398 660 426 q 730 331 714 369 q 746 243 746 293 q 724 142 746 189 q 660 59 701 94 q 558 3 618 24 q 424 -17 499 -17 m 322 -314 l 311 -258 q 431 -235 399 -251 q 463 -189 463 -219 q 439 -146 463 -161 q 356 -122 415 -131 l 411 11 l 486 11 l 450 -89 q 525 -122 499 -100 q 551 -187 551 -144 q 492 -278 551 -249 q 322 -314 433 -308 z "},"ş":{"ha":833,"x_min":99,"x_max":731,"o":"m 431 -17 q 246 15 331 -17 q 99 89 161 46 l 151 164 q 280 97 210 122 q 444 72 350 72 q 573 103 531 72 q 615 178 615 135 q 608 214 615 197 q 578 246 601 231 q 514 275 556 261 q 404 303 472 289 q 206 377 272 331 q 140 500 140 424 q 158 576 140 540 q 212 637 176 611 q 299 677 247 663 q 421 692 351 692 q 571 666 499 692 q 693 606 643 640 l 638 532 q 533 583 590 564 q 411 603 476 603 q 290 574 325 603 q 256 506 256 544 q 301 438 256 461 q 451 393 347 415 q 590 355 536 375 q 676 310 644 335 q 719 254 707 285 q 731 185 731 224 q 711 107 731 143 q 653 43 692 71 q 559 -1 615 15 q 431 -17 503 -17 m 315 -314 l 304 -258 q 424 -235 392 -251 q 456 -189 456 -219 q 432 -146 456 -161 q 349 -122 408 -131 l 404 11 l 479 11 l 443 -89 q 518 -122 492 -100 q 544 -187 544 -144 q 485 -278 544 -249 q 315 -314 426 -308 z "},"Š":{"ha":833,"x_min":93,"x_max":746,"o":"m 424 -17 q 240 19 324 -17 q 93 118 156 56 l 163 199 q 282 116 214 147 q 429 85 350 85 q 576 125 524 85 q 628 229 628 165 q 615 290 628 265 q 581 333 603 315 q 528 365 558 351 q 464 394 499 379 l 333 451 q 264 485 299 465 q 201 532 229 504 q 154 598 172 560 q 136 686 136 636 q 158 782 136 738 q 220 859 181 826 q 315 910 260 892 q 435 928 369 928 q 593 897 521 928 q 715 815 665 865 l 654 740 q 556 803 610 781 q 431 826 501 826 q 303 791 351 826 q 254 693 254 756 q 269 637 254 660 q 306 597 283 614 q 358 567 329 579 q 417 542 388 554 l 544 486 q 623 448 586 469 q 687 398 660 426 q 730 331 714 369 q 746 243 746 293 q 724 142 746 189 q 660 59 701 94 q 558 3 618 24 q 424 -17 499 -17 m 379 981 l 233 1138 l 283 1174 l 436 1046 l 442 1046 l 594 1174 l 644 1138 l 499 981 l 379 981 z "},"š":{"ha":833,"x_min":99,"x_max":731,"o":"m 431 -17 q 246 15 331 -17 q 99 89 161 46 l 151 164 q 280 97 210 122 q 444 72 350 72 q 573 103 531 72 q 615 178 615 135 q 608 214 615 197 q 578 246 601 231 q 514 275 556 261 q 404 303 472 289 q 206 377 272 331 q 140 500 140 424 q 158 576 140 540 q 212 637 176 611 q 299 677 247 663 q 421 692 351 692 q 571 666 499 692 q 693 606 643 640 l 638 532 q 533 583 590 564 q 411 603 476 603 q 290 574 325 603 q 256 506 256 544 q 301 438 256 461 q 451 393 347 415 q 590 355 536 375 q 676 310 644 335 q 719 254 707 285 q 731 185 731 224 q 711 107 731 143 q 653 43 692 71 q 559 -1 615 15 q 431 -17 503 -17 m 364 797 l 206 992 l 254 1036 l 418 879 l 424 879 l 588 1036 l 636 992 l 478 797 l 364 797 z "},"Ţ":{"ha":833,"x_min":58,"x_max":775,"o":"m 358 0 l 358 814 l 58 814 l 58 911 l 775 911 l 775 814 l 475 814 l 475 0 l 358 0 m 296 -314 l 285 -258 q 404 -235 372 -251 q 436 -189 436 -219 q 413 -146 436 -161 q 329 -122 389 -131 l 385 11 l 460 11 l 424 -89 q 499 -122 472 -100 q 525 -187 525 -144 q 466 -278 525 -249 q 296 -314 407 -308 z "},"ţ":{"ha":833,"x_min":96,"x_max":758,"o":"m 547 -17 q 424 3 474 -17 q 343 60 374 24 q 299 149 313 97 q 286 263 286 200 l 286 582 l 96 582 l 96 668 l 290 675 l 306 892 l 400 892 l 400 675 l 732 675 l 732 582 l 400 582 l 400 261 q 408 181 400 215 q 436 124 417 147 q 489 88 456 100 q 571 76 522 76 q 658 85 619 76 q 733 107 697 93 l 758 24 q 662 -5 713 7 q 547 -17 611 -17 m 419 -314 l 408 -258 q 528 -235 496 -251 q 560 -189 560 -219 q 536 -146 560 -161 q 453 -122 513 -131 l 508 11 l 583 11 l 547 -89 q 622 -122 596 -100 q 649 -187 649 -144 q 590 -278 649 -249 q 419 -314 531 -308 z "},"Ť":{"ha":833,"x_min":58,"x_max":775,"o":"m 358 0 l 358 814 l 58 814 l 58 911 l 775 911 l 775 814 l 475 814 l 475 0 l 358 0 m 357 981 l 211 1138 l 261 1174 l 414 1046 l 419 1046 l 572 1174 l 622 1138 l 476 981 l 357 981 z "},"ť":{"ha":833,"x_min":96,"x_max":758,"o":"m 547 -17 q 424 3 474 -17 q 343 60 374 24 q 299 149 313 97 q 286 263 286 200 l 286 582 l 96 582 l 96 668 l 290 675 l 306 892 l 400 892 l 400 675 l 732 675 l 732 582 l 400 582 l 400 261 q 408 181 400 215 q 436 124 417 147 q 489 88 456 100 q 571 76 522 76 q 658 85 619 76 q 733 107 697 93 l 758 24 q 662 -5 713 7 q 547 -17 611 -17 m 554 761 l 550 1133 l 653 1133 l 653 1021 l 633 761 l 554 761 z "},"Ŧ":{"ha":833,"x_min":58,"x_max":775,"o":"m 161 425 l 161 506 l 286 511 l 358 511 l 358 814 l 58 814 l 58 911 l 775 911 l 775 814 l 475 814 l 475 511 l 672 511 l 672 425 l 475 425 l 475 0 l 358 0 l 358 425 l 161 425 z "},"ŧ":{"ha":833,"x_min":96,"x_max":758,"o":"m 97 306 l 97 386 l 286 394 l 286 582 l 96 582 l 96 668 l 290 675 l 306 892 l 400 892 l 400 675 l 732 675 l 732 582 l 400 582 l 400 394 l 706 394 l 706 306 l 400 306 l 400 261 q 408 181 400 215 q 436 124 417 147 q 489 88 456 100 q 571 76 522 76 q 658 85 619 76 q 733 107 697 93 l 758 24 q 662 -5 713 7 q 547 -17 611 -17 q 424 3 474 -17 q 343 60 374 24 q 299 149 313 97 q 286 263 286 200 l 286 306 l 97 306 z "},"Ũ":{"ha":833,"x_min":110,"x_max":724,"o":"m 418 -17 q 294 3 351 -17 q 197 66 238 22 q 133 178 156 110 q 110 344 110 246 l 110 911 l 226 911 l 226 342 q 241 222 226 271 q 281 142 256 172 q 342 99 307 113 q 418 85 376 85 q 494 99 460 85 q 556 142 529 113 q 597 222 582 172 q 611 342 611 271 l 611 911 l 724 911 l 724 344 q 701 178 724 246 q 638 66 678 110 q 541 3 597 22 q 418 -17 485 -17 m 521 985 q 454 1000 482 985 q 403 1034 426 1015 q 360 1068 381 1053 q 315 1083 340 1083 q 271 1060 289 1083 q 249 992 253 1036 l 171 997 q 213 1122 175 1076 q 313 1168 250 1168 q 379 1153 351 1168 q 430 1119 407 1138 q 473 1085 453 1100 q 518 1069 493 1069 q 585 1161 574 1069 l 663 1156 q 621 1030 658 1075 q 521 985 583 985 z "},"ũ":{"ha":833,"x_min":107,"x_max":701,"o":"m 342 -17 q 163 52 219 -17 q 107 256 107 121 l 107 675 l 222 675 l 222 271 q 258 128 222 175 q 378 82 293 82 q 483 112 436 82 q 588 207 531 142 l 588 675 l 701 675 l 701 0 l 608 0 l 599 118 l 593 118 q 481 21 542 58 q 342 -17 421 -17 m 511 801 q 447 819 474 801 q 399 860 421 838 q 356 900 376 882 q 313 918 336 918 q 265 888 281 918 q 247 808 250 857 l 171 813 q 181 888 172 853 q 207 947 190 922 q 249 987 224 972 q 311 1001 275 1001 q 375 983 349 1001 q 424 943 401 965 q 466 903 446 921 q 511 885 486 885 q 557 915 542 885 q 575 994 572 946 l 651 989 q 641 915 650 949 q 615 856 632 881 q 573 816 599 831 q 511 801 547 801 z "},"Ū":{"ha":833,"x_min":110,"x_max":724,"o":"m 418 -17 q 294 3 351 -17 q 197 66 238 22 q 133 178 156 110 q 110 344 110 246 l 110 911 l 226 911 l 226 342 q 241 222 226 271 q 281 142 256 172 q 342 99 307 113 q 418 85 376 85 q 494 99 460 85 q 556 142 529 113 q 597 222 582 172 q 611 342 611 271 l 611 911 l 724 911 l 724 344 q 701 178 724 246 q 638 66 678 110 q 541 3 597 22 q 418 -17 485 -17 m 231 1021 l 231 1100 l 603 1100 l 603 1021 l 231 1021 z "},"ū":{"ha":833,"x_min":107,"x_max":701,"o":"m 342 -17 q 163 52 219 -17 q 107 256 107 121 l 107 675 l 222 675 l 222 271 q 258 128 222 175 q 378 82 293 82 q 483 112 436 82 q 588 207 531 142 l 588 675 l 701 675 l 701 0 l 608 0 l 599 118 l 593 118 q 481 21 542 58 q 342 -17 421 -17 m 226 835 l 226 914 l 596 914 l 596 835 l 226 835 z "},"Ŭ":{"ha":833,"x_min":110,"x_max":724,"o":"m 418 -17 q 294 3 351 -17 q 197 66 238 22 q 133 178 156 110 q 110 344 110 246 l 110 911 l 226 911 l 226 342 q 241 222 226 271 q 281 142 256 172 q 342 99 307 113 q 418 85 376 85 q 494 99 460 85 q 556 142 529 113 q 597 222 582 172 q 611 342 611 271 l 611 911 l 724 911 l 724 344 q 701 178 724 246 q 638 66 678 110 q 541 3 597 22 q 418 -17 485 -17 m 417 979 q 332 994 368 979 q 271 1033 296 1008 q 232 1090 246 1057 q 214 1158 218 1122 l 283 1169 q 324 1087 292 1121 q 417 1053 357 1053 q 509 1087 476 1053 q 550 1169 542 1121 l 619 1158 q 601 1090 615 1122 q 563 1033 588 1057 q 501 994 538 1008 q 417 979 465 979 z "},"ŭ":{"ha":833,"x_min":107,"x_max":701,"o":"m 342 -17 q 163 52 219 -17 q 107 256 107 121 l 107 675 l 222 675 l 222 271 q 258 128 222 175 q 378 82 293 82 q 483 112 436 82 q 588 207 531 142 l 588 675 l 701 675 l 701 0 l 608 0 l 599 118 l 593 118 q 481 21 542 58 q 342 -17 421 -17 m 411 793 q 315 811 356 793 q 249 859 275 829 q 210 926 224 889 q 194 1003 197 964 l 265 1014 q 280 962 269 988 q 308 915 290 936 q 352 882 326 894 q 411 869 378 869 q 470 882 444 869 q 514 915 496 894 q 542 962 532 936 q 557 1014 553 988 l 628 1003 q 612 926 625 964 q 572 859 599 889 q 506 811 546 829 q 411 793 467 793 z "},"Ů":{"ha":833,"x_min":110,"x_max":724,"o":"m 418 -17 q 294 3 351 -17 q 197 66 238 22 q 133 178 156 110 q 110 344 110 246 l 110 911 l 226 911 l 226 342 q 241 222 226 271 q 281 142 256 172 q 342 99 307 113 q 418 85 376 85 q 494 99 460 85 q 556 142 529 113 q 597 222 582 172 q 611 342 611 271 l 611 911 l 724 911 l 724 344 q 701 178 724 246 q 638 66 678 110 q 541 3 597 22 q 418 -17 485 -17 m 417 971 q 320 1005 358 971 q 282 1096 282 1039 q 320 1188 282 1154 q 417 1222 358 1222 q 513 1188 475 1222 q 551 1096 551 1154 q 513 1005 551 1039 q 417 971 475 971 m 417 1021 q 466 1040 444 1021 q 488 1096 488 1060 q 466 1151 488 1132 q 417 1171 444 1171 q 365 1151 386 1171 q 344 1096 344 1132 q 365 1040 344 1060 q 417 1021 386 1021 z "},"ů":{"ha":833,"x_min":107,"x_max":701,"o":"m 342 -17 q 163 52 219 -17 q 107 256 107 121 l 107 675 l 222 675 l 222 271 q 258 128 222 175 q 378 82 293 82 q 483 112 436 82 q 588 207 531 142 l 588 675 l 701 675 l 701 0 l 608 0 l 599 118 l 593 118 q 481 21 542 58 q 342 -17 421 -17 m 411 790 q 299 828 339 790 q 258 924 258 867 q 299 1019 258 981 q 411 1057 339 1057 q 524 1019 483 1057 q 564 924 564 981 q 524 828 564 867 q 411 790 483 790 m 411 842 q 467 865 444 842 q 490 924 490 889 q 467 983 490 960 q 411 1006 444 1006 q 355 983 378 1006 q 332 924 332 960 q 355 865 332 889 q 411 842 378 842 z "},"Ű":{"ha":833,"x_min":110,"x_max":724,"o":"m 418 -17 q 294 3 351 -17 q 197 66 238 22 q 133 178 156 110 q 110 344 110 246 l 110 911 l 226 911 l 226 342 q 241 222 226 271 q 281 142 256 172 q 342 99 307 113 q 418 85 376 85 q 494 99 460 85 q 556 142 529 113 q 597 222 582 172 q 611 342 611 271 l 611 911 l 724 911 l 724 344 q 701 178 724 246 q 638 66 678 110 q 541 3 597 22 q 418 -17 485 -17 m 317 976 l 257 1006 l 385 1217 l 464 1172 l 317 976 m 539 976 l 479 1006 l 608 1217 l 686 1172 l 539 976 z "},"ű":{"ha":833,"x_min":107,"x_max":701,"o":"m 342 -17 q 163 52 219 -17 q 107 256 107 121 l 107 675 l 222 675 l 222 271 q 258 128 222 175 q 378 82 293 82 q 483 112 436 82 q 588 207 531 142 l 588 675 l 701 675 l 701 0 l 608 0 l 599 118 l 593 118 q 481 21 542 58 q 342 -17 421 -17 m 332 789 l 268 818 l 389 1057 l 469 1018 l 332 789 m 542 789 l 478 818 l 599 1057 l 679 1018 l 542 789 z "},"Ų":{"ha":833,"x_min":110,"x_max":724,"o":"m 442 -312 q 339 -281 379 -312 q 299 -186 299 -250 q 308 -131 299 -157 q 331 -84 317 -106 q 361 -45 344 -62 q 392 -15 378 -28 q 186 79 263 -8 q 110 344 110 167 l 110 911 l 226 911 l 226 342 q 241 222 226 271 q 281 142 256 172 q 340 99 306 113 q 417 85 375 85 q 494 99 458 85 q 555 142 529 113 q 596 222 581 172 q 611 342 611 271 l 611 911 l 724 911 l 724 344 q 675 117 724 197 q 532 0 626 38 q 419 -76 450 -33 q 388 -161 388 -119 q 411 -215 388 -197 q 464 -232 435 -232 q 503 -223 486 -232 q 533 -203 519 -214 l 568 -262 q 513 -298 544 -283 q 442 -312 482 -312 z "},"ų":{"ha":833,"x_min":107,"x_max":749,"o":"m 619 -312 q 517 -281 558 -312 q 476 -183 476 -250 q 515 -78 476 -124 q 608 0 554 -33 l 599 118 l 593 118 q 481 21 542 58 q 342 -17 421 -17 q 163 52 219 -17 q 107 256 107 121 l 107 675 l 222 675 l 222 271 q 258 128 222 175 q 378 82 293 82 q 483 112 436 82 q 588 207 531 142 l 588 675 l 701 675 l 701 -7 q 594 -81 626 -40 q 561 -161 561 -121 q 586 -219 561 -200 q 643 -237 611 -237 q 685 -229 667 -237 q 715 -208 703 -221 l 749 -262 q 692 -299 725 -286 q 619 -312 660 -312 z "},"Ŵ":{"ha":833,"x_min":14,"x_max":819,"o":"m 153 0 l 14 913 l 144 913 l 211 340 q 217 288 214 311 q 222 240 219 264 q 226 189 224 215 q 229 129 228 163 l 233 129 q 244 189 239 163 q 255 240 250 215 q 265 288 260 264 q 278 339 271 311 l 367 678 l 478 678 l 564 339 q 576 288 571 311 q 587 240 582 264 q 597 189 592 215 q 608 129 601 163 l 614 129 q 617 189 615 163 q 622 240 619 215 q 626 288 624 264 q 631 339 628 311 l 694 913 l 819 913 l 686 0 l 542 0 l 453 367 q 434 449 442 408 q 419 531 426 489 l 415 531 q 401 449 408 489 q 383 367 394 408 l 294 0 l 153 0 m 261 971 l 211 1007 l 357 1164 l 476 1164 l 622 1007 l 572 971 l 419 1100 l 414 1100 l 261 971 z "},"ŵ":{"ha":833,"x_min":11,"x_max":822,"o":"m 158 0 l 11 675 l 125 675 l 206 283 q 222 190 215 235 q 236 97 229 146 l 242 97 q 259 191 249 146 q 281 283 269 236 l 364 633 l 478 633 l 558 283 q 581 190 569 235 q 600 97 593 146 l 606 97 q 620 190 614 146 q 636 283 626 235 l 717 675 l 822 675 l 678 0 l 531 0 l 453 322 q 419 522 436 393 l 414 522 q 381 322 397 393 l 306 0 l 158 0 m 250 789 l 201 833 l 360 1028 l 474 1028 l 632 833 l 583 789 l 419 946 l 414 946 l 250 789 z "},"Ŷ":{"ha":833,"x_min":53,"x_max":781,"o":"m 358 0 l 358 325 l 53 911 l 175 911 l 313 640 q 364 535 339 588 q 417 428 389 483 l 422 428 q 476 536 450 483 q 529 642 503 589 l 661 911 l 781 911 l 475 325 l 475 0 l 358 0 m 261 971 l 211 1007 l 357 1164 l 476 1164 l 622 1007 l 572 971 l 419 1100 l 414 1100 l 261 971 z "},"ŷ":{"ha":833,"x_min":68,"x_max":765,"o":"m 182 -290 q 93 -276 132 -290 l 117 -186 q 147 -193 131 -190 q 178 -196 163 -196 q 293 -155 249 -196 q 363 -51 338 -114 l 383 -1 l 68 675 l 183 675 l 349 301 q 390 206 368 257 q 432 106 411 154 l 438 106 q 474 205 456 154 q 510 301 493 256 l 657 675 l 765 675 l 468 -56 q 424 -149 449 -106 q 364 -223 399 -192 q 284 -272 329 -254 q 182 -290 239 -290 m 256 789 l 207 833 l 365 1028 l 479 1028 l 638 833 l 589 789 l 425 946 l 419 946 l 256 789 z "},"Ÿ":{"ha":833,"x_min":53,"x_max":781,"o":"m 358 0 l 358 325 l 53 911 l 175 911 l 313 640 q 364 535 339 588 q 417 428 389 483 l 422 428 q 476 536 450 483 q 529 642 503 589 l 661 911 l 781 911 l 475 325 l 475 0 l 358 0 m 290 993 q 240 1013 260 993 q 219 1064 219 1032 q 240 1115 219 1096 q 290 1133 260 1133 q 340 1115 321 1133 q 360 1064 360 1096 q 340 1013 360 1032 q 290 993 321 993 m 543 993 q 493 1013 513 993 q 474 1064 474 1032 q 493 1115 474 1096 q 543 1133 513 1133 q 594 1115 574 1133 q 614 1064 614 1096 q 594 1013 614 1032 q 543 993 574 993 z "},"Ź":{"ha":833,"x_min":90,"x_max":749,"o":"m 90 0 l 90 69 l 599 815 l 135 815 l 135 913 l 742 913 l 742 843 l 232 99 l 749 99 l 749 0 l 90 0 m 400 968 l 350 1026 l 546 1204 l 611 1128 l 400 968 z "},"ź":{"ha":833,"x_min":99,"x_max":738,"o":"m 99 0 l 99 61 l 561 582 l 150 582 l 150 675 l 725 675 l 725 614 l 261 93 l 738 93 l 738 0 l 99 0 m 418 789 l 358 846 l 556 1079 l 636 1001 l 418 789 z "},"Ż":{"ha":833,"x_min":90,"x_max":749,"o":"m 90 0 l 90 69 l 599 815 l 135 815 l 135 913 l 742 913 l 742 843 l 232 99 l 749 99 l 749 0 l 90 0 m 440 992 q 382 1013 406 992 q 358 1071 358 1035 q 382 1127 358 1106 q 440 1149 406 1149 q 499 1127 475 1149 q 522 1071 522 1106 q 499 1013 522 1035 q 440 992 475 992 z "},"ż":{"ha":833,"x_min":99,"x_max":738,"o":"m 99 0 l 99 61 l 561 582 l 150 582 l 150 675 l 725 675 l 725 614 l 261 93 l 738 93 l 738 0 l 99 0 m 447 817 q 382 841 408 817 q 356 906 356 865 q 382 970 356 946 q 447 994 408 994 q 513 970 486 994 q 539 906 539 946 q 513 841 539 865 q 447 817 486 817 z "},"Ž":{"ha":833,"x_min":90,"x_max":749,"o":"m 90 0 l 90 69 l 599 815 l 135 815 l 135 913 l 742 913 l 742 843 l 232 99 l 749 99 l 749 0 l 90 0 m 381 981 l 235 1138 l 285 1174 l 438 1046 l 443 1046 l 596 1174 l 646 1138 l 500 981 l 381 981 z "},"ž":{"ha":833,"x_min":99,"x_max":738,"o":"m 99 0 l 99 61 l 561 582 l 150 582 l 150 675 l 725 675 l 725 614 l 261 93 l 738 93 l 738 0 l 99 0 m 390 797 l 232 992 l 281 1036 l 444 879 l 450 879 l 614 1036 l 663 992 l 504 797 l 390 797 z "},"ſ":{"ha":833,"x_min":143,"x_max":803,"o":"m 336 0 l 336 582 l 143 582 l 143 668 l 336 675 l 336 732 q 402 931 336 856 q 608 1006 468 1006 q 803 967 708 1006 l 776 881 q 699 906 735 900 q 619 913 664 913 q 488 866 528 913 q 449 736 449 819 l 449 0 l 336 0 z "},"ƀ":{"ha":833,"x_min":28,"x_max":750,"o":"m 444 -17 q 340 8 396 -17 q 235 75 283 32 l 231 75 l 221 0 l 129 0 l 129 781 l 28 781 l 28 863 l 129 869 l 129 989 l 243 989 l 243 869 l 539 869 l 539 781 l 243 781 l 243 688 l 239 561 l 243 561 q 349 636 289 608 q 469 664 410 664 q 590 640 538 664 q 678 574 643 617 q 732 471 714 532 q 750 335 750 410 q 725 186 750 251 q 658 76 700 121 q 560 7 615 31 q 444 -17 504 -17 m 426 79 q 574 147 515 79 q 632 333 632 214 q 588 503 632 439 q 442 568 543 568 q 347 544 397 568 q 243 467 296 519 l 243 158 q 341 97 292 115 q 426 79 390 79 z "},"Ɗ":{"ha":833,"x_min":28,"x_max":788,"o":"m 290 0 l 290 826 q 171 756 211 811 q 131 624 131 700 q 157 517 131 557 q 236 444 183 476 l 181 364 q 69 461 110 400 q 28 618 28 522 q 49 742 28 685 q 115 840 71 799 q 223 905 158 882 q 374 928 288 928 q 685 808 583 928 q 788 469 788 689 q 692 122 788 244 q 428 0 597 0 l 290 0 m 406 94 l 435 94 q 608 192 549 94 q 668 469 668 290 q 606 732 668 639 q 406 832 544 825 l 406 94 z "},"Ə":{"ha":833,"x_min":82,"x_max":764,"o":"m 417 -17 q 278 17 340 -17 q 173 113 217 51 q 106 260 129 174 q 82 454 82 347 q 82 470 82 463 q 83 486 82 478 l 649 486 q 583 739 643 650 q 413 828 524 828 q 310 806 356 828 q 229 747 264 783 l 174 826 q 277 899 217 871 q 418 928 338 928 q 563 895 499 928 q 672 802 626 863 q 740 655 717 742 q 764 458 764 568 q 738 261 764 349 q 667 112 713 174 q 557 17 621 50 q 417 -17 493 -17 m 417 83 q 574 163 513 83 q 647 397 636 242 l 196 397 q 264 161 207 239 q 417 83 321 83 z "},"ƒ":{"ha":833,"x_min":68,"x_max":744,"o":"m 183 -135 q 118 -127 147 -135 q 68 -110 89 -119 l 90 -24 q 130 -36 110 -31 q 172 -42 150 -42 q 276 13 244 -42 q 321 175 307 68 l 354 479 l 210 479 l 210 561 l 307 567 l 364 567 l 372 644 q 446 856 390 783 q 618 928 501 928 q 688 919 654 928 q 744 900 721 911 l 717 814 q 676 829 697 824 q 624 835 654 835 q 565 819 589 835 q 524 779 540 804 q 497 722 507 754 q 483 654 488 689 l 474 567 l 671 567 l 671 479 l 464 479 l 426 150 q 402 34 418 86 q 358 -56 386 -18 q 288 -114 331 -93 q 183 -135 244 -135 z "},"Ɠ":{"ha":833,"x_min":74,"x_max":818,"o":"m 729 817 l 664 743 q 588 803 631 779 q 478 826 544 826 q 362 801 414 826 q 272 727 310 775 q 215 611 235 679 q 194 458 194 543 q 213 303 194 372 q 267 186 232 235 q 356 111 303 138 q 475 85 408 85 q 565 99 524 85 q 633 139 607 114 l 633 376 l 451 376 l 451 472 l 740 472 l 740 89 q 627 14 697 44 q 468 -17 557 -17 q 310 15 382 -17 q 185 108 238 47 q 103 256 132 168 q 74 456 74 344 q 103 653 74 565 q 187 802 133 742 q 315 895 240 863 q 478 928 389 928 q 535 923 508 928 q 586 911 563 918 q 576 971 576 939 q 619 1076 576 1036 q 731 1117 661 1117 q 780 1111 758 1117 q 818 1099 801 1106 l 796 1011 q 774 1019 785 1015 q 749 1024 764 1024 q 693 1002 713 1024 q 674 949 674 981 q 688 884 674 911 q 729 817 701 857 z "},"Ơ":{"ha":833,"x_min":67,"x_max":781,"o":"m 417 -17 q 275 16 339 -17 q 165 110 211 49 q 92 259 118 171 q 67 460 67 347 q 92 657 67 569 q 165 804 118 744 q 275 896 211 864 q 417 928 339 928 q 571 889 503 928 q 679 1008 679 911 q 674 1051 679 1029 q 658 1089 668 1072 l 749 1129 q 772 1077 764 1106 q 781 1017 781 1049 q 742 902 781 946 q 636 842 703 858 q 733 686 699 782 q 767 460 767 590 q 741 259 767 347 q 669 110 715 171 q 558 16 622 49 q 417 -17 493 -17 m 417 85 q 511 110 468 85 q 584 185 554 136 q 631 303 614 233 q 647 460 647 372 q 631 614 647 546 q 584 729 614 682 q 511 801 554 776 q 417 826 468 826 q 322 801 364 826 q 249 729 279 776 q 203 614 219 682 q 186 460 186 546 q 203 303 186 372 q 249 185 219 233 q 322 110 279 136 q 417 85 364 85 z "},"ơ":{"ha":833,"x_min":83,"x_max":776,"o":"m 417 -17 q 290 7 350 -17 q 183 76 229 31 q 110 187 138 121 q 83 336 83 253 q 110 487 83 421 q 183 599 138 553 q 290 668 229 644 q 417 692 350 692 q 557 663 492 692 q 646 708 615 675 q 676 800 676 740 q 672 842 676 821 q 656 881 667 864 l 744 922 q 768 869 760 899 q 776 808 776 840 q 765 737 776 768 q 733 683 753 706 q 685 644 713 660 q 628 618 658 628 q 717 503 683 574 q 750 336 750 432 q 723 187 750 253 q 650 76 696 121 q 544 7 604 31 q 417 -17 483 -17 m 417 78 q 505 97 465 78 q 573 149 544 115 q 617 231 601 183 q 632 336 632 278 q 617 442 632 394 q 573 525 601 490 q 505 578 544 560 q 417 597 465 597 q 328 578 368 597 q 260 525 289 560 q 217 442 232 490 q 201 336 201 394 q 217 231 201 278 q 260 149 232 183 q 328 97 289 115 q 417 78 368 78 z "},"Ư":{"ha":833,"x_min":110,"x_max":875,"o":"m 418 -17 q 294 3 351 -17 q 197 66 238 22 q 133 178 156 110 q 110 344 110 246 l 110 911 l 226 911 l 226 342 q 241 222 226 271 q 281 142 256 172 q 342 99 307 113 q 418 85 376 85 q 494 99 460 85 q 556 142 529 113 q 597 222 582 172 q 611 342 611 271 l 611 911 l 657 911 q 744 943 714 918 q 774 1026 774 968 q 768 1069 774 1047 q 753 1107 763 1090 l 843 1146 q 867 1094 858 1122 q 875 1035 875 1067 q 831 915 875 954 q 724 861 788 876 l 724 344 q 701 178 724 246 q 638 66 678 110 q 541 3 597 22 q 418 -17 485 -17 z "},"ư":{"ha":833,"x_min":107,"x_max":831,"o":"m 342 -17 q 163 52 219 -17 q 107 256 107 121 l 107 675 l 222 675 l 222 271 q 258 128 222 175 q 378 82 293 82 q 483 112 436 82 q 588 207 531 142 l 588 675 l 610 675 q 656 688 635 679 q 694 711 678 696 q 720 750 711 726 q 729 808 729 774 q 725 851 729 829 q 710 889 721 872 l 799 931 q 822 878 814 907 q 831 817 831 849 q 819 747 831 776 q 790 695 808 717 q 749 659 772 674 q 701 635 726 644 l 701 0 l 608 0 l 599 118 l 593 118 q 481 21 542 58 q 342 -17 421 -17 z "},"ǂ":{"ha":833,"x_min":117,"x_max":717,"o":"m 361 -285 l 361 214 l 117 214 l 117 294 l 361 300 l 361 450 l 117 450 l 117 531 l 361 536 l 361 989 l 472 989 l 472 536 l 717 536 l 717 450 l 472 450 l 472 300 l 717 300 l 717 214 l 472 214 l 472 -285 l 361 -285 z "},"Ǎ":{"ha":833,"x_min":44,"x_max":789,"o":"m 322 510 l 279 371 l 551 371 l 508 510 q 462 662 485 586 q 418 817 439 738 l 413 817 q 368 662 390 738 q 322 510 346 586 m 44 0 l 351 911 l 482 911 l 789 0 l 667 0 l 581 278 l 250 278 l 163 0 l 44 0 m 357 981 l 211 1138 l 261 1174 l 414 1046 l 419 1046 l 572 1174 l 622 1138 l 476 981 l 357 981 z "},"ǎ":{"ha":833,"x_min":113,"x_max":715,"o":"m 342 -17 q 253 -3 294 -17 q 180 34 211 10 q 131 94 149 58 q 113 175 113 129 q 140 274 113 232 q 226 347 167 317 q 378 397 285 378 q 601 428 471 417 q 590 493 600 463 q 560 547 581 524 q 505 583 539 569 q 422 597 471 597 q 294 572 356 597 q 186 517 233 546 l 142 594 q 201 628 167 611 q 273 660 235 646 q 354 683 311 674 q 442 692 397 692 q 648 616 581 692 q 715 414 715 540 l 715 0 l 622 0 l 613 92 l 608 92 q 483 15 551 47 q 342 -17 414 -17 m 372 75 q 487 101 431 75 q 601 175 543 126 l 601 353 q 420 329 493 344 q 303 292 347 314 q 242 244 260 271 q 224 183 224 217 q 236 134 224 154 q 269 101 249 114 q 316 81 289 88 q 372 75 343 75 m 388 797 l 229 992 l 278 1036 l 442 879 l 447 879 l 611 1036 l 660 992 l 501 797 l 388 797 z "},"Ǐ":{"ha":833,"x_min":132,"x_max":701,"o":"m 132 0 l 132 99 l 358 99 l 358 814 l 132 814 l 132 911 l 701 911 l 701 814 l 475 814 l 475 99 l 701 99 l 701 0 l 132 0 m 357 981 l 211 1138 l 261 1174 l 414 1046 l 419 1046 l 572 1174 l 622 1138 l 476 981 l 357 981 z "},"ǐ":{"ha":833,"x_min":125,"x_max":699,"o":"m 439 0 l 439 582 l 125 582 l 125 675 l 553 675 l 553 0 l 439 0 m 426 797 l 268 992 l 317 1036 l 481 879 l 486 879 l 650 1036 l 699 992 l 540 797 l 426 797 z "},"Ǒ":{"ha":833,"x_min":67,"x_max":767,"o":"m 417 -17 q 275 16 339 -17 q 165 110 211 49 q 92 259 118 171 q 67 460 67 347 q 92 657 67 569 q 165 804 118 744 q 275 896 211 864 q 417 928 339 928 q 558 896 493 928 q 669 804 622 864 q 741 657 715 744 q 767 460 767 569 q 741 259 767 347 q 669 110 715 171 q 558 16 622 49 q 417 -17 493 -17 m 417 85 q 511 110 468 85 q 584 185 554 136 q 631 303 614 233 q 647 460 647 372 q 631 614 647 546 q 584 729 614 682 q 511 801 554 776 q 417 826 468 826 q 322 801 364 826 q 249 729 279 776 q 203 614 219 682 q 186 460 186 546 q 203 303 186 372 q 249 185 219 233 q 322 110 279 136 q 417 85 364 85 m 357 981 l 211 1138 l 261 1174 l 414 1046 l 419 1046 l 572 1174 l 622 1138 l 476 981 l 357 981 z "},"ǒ":{"ha":833,"x_min":83,"x_max":750,"o":"m 417 -17 q 290 7 350 -17 q 183 76 229 31 q 110 187 138 121 q 83 336 83 253 q 110 487 83 421 q 183 599 138 553 q 290 668 229 644 q 417 692 350 692 q 544 668 483 692 q 650 599 604 644 q 723 487 696 553 q 750 336 750 421 q 723 187 750 253 q 650 76 696 121 q 544 7 604 31 q 417 -17 483 -17 m 417 78 q 505 97 465 78 q 573 149 544 115 q 617 231 601 183 q 632 336 632 278 q 617 442 632 394 q 573 525 601 490 q 505 578 544 560 q 417 597 465 597 q 328 578 368 597 q 260 525 289 560 q 217 442 232 490 q 201 336 201 394 q 217 231 201 278 q 260 149 232 183 q 328 97 289 115 q 417 78 368 78 m 360 797 l 201 992 l 250 1036 l 414 879 l 419 879 l 583 1036 l 632 992 l 474 797 l 360 797 z "},"Ǔ":{"ha":833,"x_min":110,"x_max":724,"o":"m 418 -17 q 294 3 351 -17 q 197 66 238 22 q 133 178 156 110 q 110 344 110 246 l 110 911 l 226 911 l 226 342 q 241 222 226 271 q 281 142 256 172 q 342 99 307 113 q 418 85 376 85 q 494 99 460 85 q 556 142 529 113 q 597 222 582 172 q 611 342 611 271 l 611 911 l 724 911 l 724 344 q 701 178 724 246 q 638 66 678 110 q 541 3 597 22 q 418 -17 485 -17 m 357 981 l 211 1138 l 261 1174 l 414 1046 l 419 1046 l 572 1174 l 622 1138 l 476 981 l 357 981 z "},"ǔ":{"ha":833,"x_min":107,"x_max":701,"o":"m 342 -17 q 163 52 219 -17 q 107 256 107 121 l 107 675 l 222 675 l 222 271 q 258 128 222 175 q 378 82 293 82 q 483 112 436 82 q 588 207 531 142 l 588 675 l 701 675 l 701 0 l 608 0 l 599 118 l 593 118 q 481 21 542 58 q 342 -17 421 -17 m 354 797 l 196 992 l 244 1036 l 408 879 l 414 879 l 578 1036 l 626 992 l 468 797 l 354 797 z "},"Ǖ":{"ha":833,"x_min":110,"x_max":724,"o":"m 418 -17 q 294 3 351 -17 q 197 66 238 22 q 133 178 156 110 q 110 344 110 246 l 110 911 l 226 911 l 226 342 q 241 222 226 271 q 281 142 256 172 q 342 99 307 113 q 418 85 376 85 q 494 99 460 85 q 556 142 529 113 q 597 222 582 172 q 611 342 611 271 l 611 911 l 724 911 l 724 344 q 701 178 724 246 q 638 66 678 110 q 541 3 597 22 q 418 -17 485 -17 m 274 993 q 228 1011 246 993 q 211 1057 211 1029 q 228 1102 211 1085 q 274 1119 246 1119 q 319 1102 301 1119 q 338 1057 338 1085 q 319 1011 338 1029 q 274 993 301 993 m 560 993 q 514 1011 532 993 q 496 1057 496 1029 q 514 1102 496 1085 q 560 1119 532 1119 q 605 1102 588 1119 q 622 1057 622 1085 q 605 1011 622 1029 q 560 993 588 993 m 231 1196 l 231 1260 l 603 1260 l 603 1196 l 231 1196 z "},"ǖ":{"ha":833,"x_min":107,"x_max":701,"o":"m 342 -17 q 163 52 219 -17 q 107 256 107 121 l 107 675 l 222 675 l 222 271 q 258 128 222 175 q 378 82 293 82 q 483 112 436 82 q 588 207 531 142 l 588 675 l 701 675 l 701 0 l 608 0 l 599 118 l 593 118 q 481 21 542 58 q 342 -17 421 -17 m 278 817 q 232 835 250 817 q 214 879 214 853 q 232 925 214 907 q 278 943 250 943 q 323 925 306 943 q 340 879 340 907 q 323 835 340 853 q 278 817 306 817 m 544 817 q 499 835 517 817 q 482 879 482 853 q 499 925 482 907 q 544 943 517 943 q 590 925 572 943 q 608 879 608 907 q 590 835 608 853 q 544 817 572 817 m 225 1042 l 225 1107 l 596 1107 l 596 1042 l 225 1042 z "},"Ǘ":{"ha":833,"x_min":110,"x_max":724,"o":"m 418 -17 q 294 3 351 -17 q 197 66 238 22 q 133 178 156 110 q 110 344 110 246 l 110 911 l 226 911 l 226 342 q 241 222 226 271 q 281 142 256 172 q 342 99 307 113 q 418 85 376 85 q 494 99 460 85 q 556 142 529 113 q 597 222 582 172 q 611 342 611 271 l 611 911 l 724 911 l 724 344 q 701 178 724 246 q 638 66 678 110 q 541 3 597 22 q 418 -17 485 -17 m 274 993 q 228 1011 246 993 q 211 1057 211 1029 q 228 1102 211 1085 q 274 1119 246 1119 q 319 1102 301 1119 q 338 1057 338 1085 q 319 1011 338 1029 q 274 993 301 993 m 560 993 q 514 1011 532 993 q 496 1057 496 1029 q 514 1102 496 1085 q 560 1119 532 1119 q 605 1102 588 1119 q 622 1057 622 1085 q 605 1011 622 1029 q 560 993 588 993 m 415 1143 l 364 1179 l 496 1344 l 569 1294 l 415 1143 z "},"ǘ":{"ha":833,"x_min":107,"x_max":701,"o":"m 342 -17 q 163 52 219 -17 q 107 256 107 121 l 107 675 l 222 675 l 222 271 q 258 128 222 175 q 378 82 293 82 q 483 112 436 82 q 588 207 531 142 l 588 675 l 701 675 l 701 0 l 608 0 l 599 118 l 593 118 q 481 21 542 58 q 342 -17 421 -17 m 278 817 q 232 835 250 817 q 214 879 214 853 q 232 925 214 907 q 278 943 250 943 q 323 925 306 943 q 340 879 340 907 q 323 835 340 853 q 278 817 306 817 m 544 817 q 499 835 517 817 q 482 879 482 853 q 499 925 482 907 q 544 943 517 943 q 590 925 572 943 q 608 879 608 907 q 590 835 608 853 q 544 817 572 817 m 401 979 l 353 1013 l 467 1172 l 535 1125 l 401 979 z "},"Ǚ":{"ha":833,"x_min":110,"x_max":724,"o":"m 418 -17 q 294 3 351 -17 q 197 66 238 22 q 133 178 156 110 q 110 344 110 246 l 110 911 l 226 911 l 226 342 q 241 222 226 271 q 281 142 256 172 q 342 99 307 113 q 418 85 376 85 q 494 99 460 85 q 556 142 529 113 q 597 222 582 172 q 611 342 611 271 l 611 911 l 724 911 l 724 344 q 701 178 724 246 q 638 66 678 110 q 541 3 597 22 q 418 -17 485 -17 m 274 993 q 228 1011 246 993 q 211 1057 211 1029 q 228 1102 211 1085 q 274 1119 246 1119 q 319 1102 301 1119 q 338 1057 338 1085 q 319 1011 338 1029 q 274 993 301 993 m 560 993 q 514 1011 532 993 q 496 1057 496 1029 q 514 1102 496 1085 q 560 1119 532 1119 q 605 1102 588 1119 q 622 1057 622 1085 q 605 1011 622 1029 q 560 993 588 993 m 367 1165 l 229 1299 l 275 1336 l 414 1232 l 419 1232 l 558 1336 l 604 1299 l 467 1165 l 367 1165 z "},"ǚ":{"ha":833,"x_min":107,"x_max":701,"o":"m 342 -17 q 163 52 219 -17 q 107 256 107 121 l 107 675 l 222 675 l 222 271 q 258 128 222 175 q 378 82 293 82 q 483 112 436 82 q 588 207 531 142 l 588 675 l 701 675 l 701 0 l 608 0 l 599 118 l 593 118 q 481 21 542 58 q 342 -17 421 -17 m 278 817 q 232 835 250 817 q 214 879 214 853 q 232 925 214 907 q 278 943 250 943 q 323 925 306 943 q 340 879 340 907 q 323 835 340 853 q 278 817 306 817 m 544 817 q 499 835 517 817 q 482 879 482 853 q 499 925 482 907 q 544 943 517 943 q 590 925 572 943 q 608 879 608 907 q 590 835 608 853 q 544 817 572 817 m 364 1000 l 233 1128 l 275 1167 l 408 1065 l 414 1065 l 547 1167 l 589 1128 l 458 1000 l 364 1000 z "},"Ǜ":{"ha":833,"x_min":110,"x_max":724,"o":"m 418 -17 q 294 3 351 -17 q 197 66 238 22 q 133 178 156 110 q 110 344 110 246 l 110 911 l 226 911 l 226 342 q 241 222 226 271 q 281 142 256 172 q 342 99 307 113 q 418 85 376 85 q 494 99 460 85 q 556 142 529 113 q 597 222 582 172 q 611 342 611 271 l 611 911 l 724 911 l 724 344 q 701 178 724 246 q 638 66 678 110 q 541 3 597 22 q 418 -17 485 -17 m 274 993 q 228 1011 246 993 q 211 1057 211 1029 q 228 1102 211 1085 q 274 1119 246 1119 q 319 1102 301 1119 q 338 1057 338 1085 q 319 1011 338 1029 q 274 993 301 993 m 560 993 q 514 1011 532 993 q 496 1057 496 1029 q 514 1102 496 1085 q 560 1119 532 1119 q 605 1102 588 1119 q 622 1057 622 1085 q 605 1011 622 1029 q 560 993 588 993 m 418 1143 l 264 1294 l 338 1344 l 469 1179 l 418 1143 z "},"ǜ":{"ha":833,"x_min":107,"x_max":701,"o":"m 342 -17 q 163 52 219 -17 q 107 256 107 121 l 107 675 l 222 675 l 222 271 q 258 128 222 175 q 378 82 293 82 q 483 112 436 82 q 588 207 531 142 l 588 675 l 701 675 l 701 0 l 608 0 l 599 118 l 593 118 q 481 21 542 58 q 342 -17 421 -17 m 278 817 q 232 835 250 817 q 214 879 214 853 q 232 925 214 907 q 278 943 250 943 q 323 925 306 943 q 340 879 340 907 q 323 835 340 853 q 278 817 306 817 m 544 817 q 499 835 517 817 q 482 879 482 853 q 499 925 482 907 q 544 943 517 943 q 590 925 572 943 q 608 879 608 907 q 590 835 608 853 q 544 817 572 817 m 421 979 l 288 1125 l 356 1172 l 469 1013 l 421 979 z "},"Ǣ":{"ha":833,"x_min":-1,"x_max":821,"o":"m 321 524 l 257 358 l 440 358 l 440 819 l 436 819 q 378 672 408 744 q 321 524 349 599 m -1 0 l 365 911 l 808 911 l 808 814 l 546 814 l 546 529 l 750 529 l 750 431 l 546 431 l 546 99 l 821 99 l 821 0 l 440 0 l 440 265 l 221 265 l 119 0 l -1 0 m 397 1021 l 397 1100 l 769 1100 l 769 1021 l 397 1021 z "},"ǣ":{"ha":833,"x_min":24,"x_max":829,"o":"m 201 -17 q 74 32 124 -17 q 24 167 24 81 q 105 333 24 269 q 369 419 186 396 q 333 558 367 518 q 247 597 300 597 q 163 581 206 597 q 89 542 121 564 l 46 619 q 142 669 88 647 q 257 692 197 692 q 361 660 318 692 q 428 553 404 628 q 514 660 463 628 q 622 692 565 692 q 714 667 675 692 q 778 599 753 642 q 817 501 804 557 q 829 383 829 446 q 828 344 829 364 q 824 306 826 324 l 461 306 q 511 138 467 199 q 635 76 556 76 q 706 89 674 76 q 767 121 739 101 l 808 43 q 728 1 774 18 q 631 -17 683 -17 q 508 15 560 -17 q 422 104 456 46 q 319 15 374 46 q 201 -17 264 -17 m 232 75 q 314 99 271 75 q 393 171 357 124 q 369 336 369 246 l 369 346 q 253 319 299 335 q 179 282 207 303 q 140 235 151 261 q 129 178 129 208 q 158 102 129 129 q 232 75 186 75 m 615 601 q 518 554 563 601 q 463 394 474 507 l 736 394 q 615 601 731 601 m 254 835 l 254 914 l 624 914 l 624 835 l 254 835 z "},"Ǧ":{"ha":833,"x_min":74,"x_max":740,"o":"m 468 -17 q 310 15 382 -17 q 185 108 238 47 q 103 256 132 168 q 74 456 74 344 q 103 653 74 565 q 187 802 133 742 q 315 895 240 863 q 478 928 389 928 q 561 918 524 928 q 630 892 599 908 q 685 857 661 876 q 729 817 710 838 l 664 743 q 588 803 631 779 q 478 826 544 826 q 362 801 414 826 q 272 727 310 775 q 215 611 235 679 q 194 458 194 543 q 213 303 194 372 q 267 186 232 235 q 356 111 303 138 q 475 85 408 85 q 565 99 524 85 q 633 139 607 114 l 633 376 l 451 376 l 451 472 l 740 472 l 740 89 q 627 14 697 44 q 468 -17 557 -17 m 399 981 l 253 1138 l 303 1174 l 456 1046 l 461 1046 l 614 1174 l 664 1138 l 518 981 l 399 981 z "},"ǧ":{"ha":833,"x_min":100,"x_max":786,"o":"m 411 -311 q 181 -262 263 -311 q 100 -124 100 -214 q 128 -44 100 -83 q 211 26 157 -6 l 211 32 q 163 74 183 47 q 142 143 142 100 q 163 209 142 175 q 222 269 183 243 l 222 275 q 163 345 188 301 q 139 450 139 389 q 160 550 139 506 q 218 626 182 594 q 302 674 254 657 q 404 692 350 692 q 504 675 460 692 l 783 675 l 783 582 l 608 582 q 649 522 632 558 q 665 446 665 486 q 645 349 665 392 q 590 276 625 306 q 506 230 554 246 q 404 214 458 214 q 348 220 378 214 q 290 239 318 226 q 238 161 238 206 q 274 102 238 121 q 378 83 311 83 l 529 83 q 723 47 660 83 q 786 -75 786 11 q 760 -165 786 -122 q 685 -240 733 -208 q 567 -292 636 -272 q 411 -311 497 -311 m 404 290 q 515 333 469 290 q 560 450 560 376 q 547 514 560 485 q 514 564 535 543 q 465 597 493 585 q 404 608 436 608 q 344 597 372 608 q 294 564 315 585 q 261 514 274 543 q 249 450 249 485 q 294 333 249 376 q 404 290 340 290 m 419 -228 q 525 -217 478 -228 q 606 -187 572 -206 q 656 -144 639 -168 q 674 -93 674 -119 q 635 -28 674 -44 q 519 -11 597 -11 l 388 -11 q 333 -9 358 -11 q 285 0 307 -7 q 217 -55 236 -26 q 199 -112 199 -83 q 255 -197 199 -165 q 419 -228 311 -228 m 369 797 l 211 992 l 260 1036 l 424 879 l 429 879 l 593 1036 l 642 992 l 483 797 l 369 797 z "},"Ǫ":{"ha":833,"x_min":67,"x_max":767,"o":"m 442 -312 q 339 -281 379 -312 q 299 -186 299 -250 q 328 -89 299 -131 q 397 -15 358 -47 q 255 29 317 -10 q 151 131 193 68 q 88 277 110 193 q 67 460 67 361 q 92 656 67 569 q 165 803 118 743 q 275 896 211 864 q 417 928 339 928 q 558 895 493 928 q 669 802 622 863 q 741 655 715 742 q 767 460 767 568 q 702 163 767 276 q 515 -3 638 49 q 419 -74 451 -31 q 388 -161 388 -118 q 411 -215 388 -197 q 464 -232 435 -232 q 503 -223 486 -232 q 533 -203 519 -214 l 568 -262 q 513 -298 544 -283 q 442 -312 482 -312 m 417 83 q 584 182 521 83 q 647 460 647 281 q 631 614 647 546 q 584 729 614 682 q 511 801 554 776 q 417 826 468 826 q 322 801 364 826 q 249 729 279 776 q 203 614 219 682 q 186 460 186 546 q 249 182 186 281 q 417 83 313 83 z "},"ǫ":{"ha":833,"x_min":83,"x_max":750,"o":"m 450 -312 q 350 -281 390 -312 q 310 -183 310 -250 q 339 -87 310 -129 q 404 -15 368 -44 q 276 14 335 -12 q 174 85 217 40 q 108 194 132 131 q 83 336 83 258 q 110 487 83 421 q 183 599 138 553 q 290 668 229 644 q 417 692 350 692 q 544 668 483 692 q 650 599 604 644 q 723 487 696 553 q 750 336 750 421 q 733 213 750 265 q 685 119 717 160 q 610 49 654 79 q 513 -4 567 19 q 425 -74 456 -29 q 394 -161 394 -118 q 419 -219 394 -201 q 474 -237 444 -237 q 518 -228 500 -237 q 549 -208 536 -219 l 582 -262 q 526 -299 558 -285 q 450 -312 493 -312 m 417 76 q 505 95 465 76 q 573 148 544 114 q 617 230 601 182 q 632 336 632 278 q 617 442 632 394 q 573 525 601 490 q 505 578 544 560 q 417 597 465 597 q 328 578 368 597 q 260 525 289 560 q 217 442 232 490 q 201 336 201 394 q 217 230 201 278 q 260 148 232 182 q 328 95 289 114 q 417 76 368 76 z "},"Ǵ":{"ha":833,"x_min":74,"x_max":740,"o":"m 468 -17 q 310 15 382 -17 q 185 108 238 47 q 103 256 132 168 q 74 456 74 344 q 103 653 74 565 q 187 802 133 742 q 315 895 240 863 q 478 928 389 928 q 561 918 524 928 q 630 892 599 908 q 685 857 661 876 q 729 817 710 838 l 664 743 q 588 803 631 779 q 478 826 544 826 q 362 801 414 826 q 272 727 310 775 q 215 611 235 679 q 194 458 194 543 q 213 303 194 372 q 267 186 232 235 q 356 111 303 138 q 475 85 408 85 q 565 99 524 85 q 633 139 607 114 l 633 376 l 451 376 l 451 472 l 740 472 l 740 89 q 627 14 697 44 q 468 -17 557 -17 m 418 968 l 368 1026 l 564 1204 l 629 1128 l 418 968 z "},"ǵ":{"ha":833,"x_min":100,"x_max":786,"o":"m 411 -311 q 181 -262 263 -311 q 100 -124 100 -214 q 128 -44 100 -83 q 211 26 157 -6 l 211 32 q 163 74 183 47 q 142 143 142 100 q 163 209 142 175 q 222 269 183 243 l 222 275 q 163 345 188 301 q 139 450 139 389 q 160 550 139 506 q 218 626 182 594 q 302 674 254 657 q 404 692 350 692 q 504 675 460 692 l 783 675 l 783 582 l 608 582 q 649 522 632 558 q 665 446 665 486 q 645 349 665 392 q 590 276 625 306 q 506 230 554 246 q 404 214 458 214 q 348 220 378 214 q 290 239 318 226 q 238 161 238 206 q 274 102 238 121 q 378 83 311 83 l 529 83 q 723 47 660 83 q 786 -75 786 11 q 760 -165 786 -122 q 685 -240 733 -208 q 567 -292 636 -272 q 411 -311 497 -311 m 404 290 q 515 333 469 290 q 560 450 560 376 q 547 514 560 485 q 514 564 535 543 q 465 597 493 585 q 404 608 436 608 q 344 597 372 608 q 294 564 315 585 q 261 514 274 543 q 249 450 249 485 q 294 333 249 376 q 404 290 340 290 m 419 -228 q 525 -217 478 -228 q 606 -187 572 -206 q 656 -144 639 -168 q 674 -93 674 -119 q 635 -28 674 -44 q 519 -11 597 -11 l 388 -11 q 333 -9 358 -11 q 285 0 307 -7 q 217 -55 236 -26 q 199 -112 199 -83 q 255 -197 199 -165 q 419 -228 311 -228 m 397 789 l 338 846 l 535 1079 l 615 1001 l 397 789 z "},"Ǹ":{"ha":833,"x_min":114,"x_max":719,"o":"m 114 0 l 114 911 l 242 911 l 533 339 l 621 150 l 624 150 q 615 292 621 218 q 608 439 608 367 l 608 911 l 719 911 l 719 0 l 592 0 l 300 572 l 213 761 l 210 761 q 219 619 213 690 q 225 476 225 547 l 225 0 l 114 0 m 471 968 l 260 1128 l 325 1204 l 521 1026 l 471 968 z "},"ǹ":{"ha":833,"x_min":129,"x_max":726,"o":"m 129 0 l 129 675 l 224 675 l 233 560 l 239 560 q 353 654 292 617 q 493 692 414 692 q 670 623 614 692 q 726 419 726 554 l 726 0 l 613 0 l 613 404 q 576 547 613 500 q 457 593 540 593 q 401 585 426 593 q 350 563 375 578 q 299 524 325 547 q 243 471 272 501 l 243 0 l 129 0 m 471 789 l 253 1001 l 333 1079 l 531 846 l 471 789 z "},"Ǻ":{"ha":833,"x_min":44,"x_max":789,"o":"m 322 510 l 279 371 l 551 371 l 508 510 q 462 662 485 586 q 418 817 439 738 l 413 817 q 368 662 390 738 q 322 510 346 586 m 44 0 l 351 911 l 482 911 l 789 0 l 667 0 l 581 278 l 250 278 l 163 0 l 44 0 m 417 971 q 320 1005 358 971 q 282 1096 282 1039 q 296 1156 282 1129 q 333 1199 310 1182 l 517 1344 l 568 1275 l 458 1217 q 526 1174 500 1206 q 551 1096 551 1142 q 513 1005 551 1039 q 417 971 475 971 m 417 1021 q 466 1040 444 1021 q 488 1096 488 1060 q 466 1151 488 1132 q 417 1171 444 1171 q 365 1151 386 1171 q 344 1096 344 1132 q 365 1040 344 1060 q 417 1021 386 1021 z "},"ǻ":{"ha":833,"x_min":113,"x_max":715,"o":"m 342 -17 q 253 -3 294 -17 q 180 34 211 10 q 131 94 149 58 q 113 175 113 129 q 140 274 113 232 q 226 347 167 317 q 378 397 285 378 q 601 428 471 417 q 590 493 600 463 q 560 547 581 524 q 505 583 539 569 q 422 597 471 597 q 294 572 356 597 q 186 517 233 546 l 142 594 q 201 628 167 611 q 273 660 235 646 q 354 683 311 674 q 442 692 397 692 q 648 616 581 692 q 715 414 715 540 l 715 0 l 622 0 l 613 92 l 608 92 q 483 15 551 47 q 342 -17 414 -17 m 372 75 q 487 101 431 75 q 601 175 543 126 l 601 353 q 420 329 493 344 q 303 292 347 314 q 242 244 260 271 q 224 183 224 217 q 236 134 224 154 q 269 101 249 114 q 316 81 289 88 q 372 75 343 75 m 444 790 q 332 828 372 790 q 292 924 292 867 q 308 989 292 960 q 357 1036 325 1018 l 542 1171 l 590 1101 l 489 1053 q 569 1006 540 1042 q 597 924 597 971 q 557 828 597 867 q 444 790 517 790 m 444 842 q 501 865 478 842 q 524 924 524 889 q 501 983 524 960 q 444 1006 478 1006 q 388 983 411 1006 q 365 924 365 960 q 388 865 365 889 q 444 842 411 842 z "},"Ǽ":{"ha":833,"x_min":-1,"x_max":821,"o":"m 321 524 l 257 358 l 440 358 l 440 819 l 436 819 q 378 672 408 744 q 321 524 349 599 m -1 0 l 365 911 l 808 911 l 808 814 l 546 814 l 546 529 l 750 529 l 750 431 l 546 431 l 546 99 l 821 99 l 821 0 l 440 0 l 440 265 l 221 265 l 119 0 l -1 0 m 543 968 l 493 1026 l 689 1204 l 754 1128 l 543 968 z "},"ǽ":{"ha":833,"x_min":24,"x_max":829,"o":"m 201 -17 q 74 32 124 -17 q 24 167 24 81 q 105 333 24 269 q 369 419 186 396 q 333 558 367 518 q 247 597 300 597 q 163 581 206 597 q 89 542 121 564 l 46 619 q 142 669 88 647 q 257 692 197 692 q 361 660 318 692 q 428 553 404 628 q 514 660 463 628 q 622 692 565 692 q 714 667 675 692 q 778 599 753 642 q 817 501 804 557 q 829 383 829 446 q 828 344 829 364 q 824 306 826 324 l 461 306 q 511 138 467 199 q 635 76 556 76 q 706 89 674 76 q 767 121 739 101 l 808 43 q 728 1 774 18 q 631 -17 683 -17 q 508 15 560 -17 q 422 104 456 46 q 319 15 374 46 q 201 -17 264 -17 m 232 75 q 314 99 271 75 q 393 171 357 124 q 369 336 369 246 l 369 346 q 253 319 299 335 q 179 282 207 303 q 140 235 151 261 q 129 178 129 208 q 158 102 129 129 q 232 75 186 75 m 615 601 q 518 554 563 601 q 463 394 474 507 l 736 394 q 615 601 731 601 m 410 789 l 350 846 l 547 1079 l 628 1001 l 410 789 z "},"Ǿ":{"ha":833,"x_min":50,"x_max":778,"o":"m 417 -17 q 203 67 293 -17 l 128 -44 l 50 6 l 143 142 q 87 281 107 201 q 67 460 67 361 q 92 657 67 569 q 165 804 118 744 q 275 896 211 864 q 417 928 339 928 q 628 849 538 928 l 700 956 l 778 906 l 689 775 q 747 638 726 717 q 767 460 767 558 q 741 259 767 347 q 669 110 715 171 q 558 16 622 49 q 417 -17 493 -17 m 186 460 q 218 251 186 339 l 564 757 q 417 826 503 826 q 322 801 364 826 q 249 729 279 776 q 203 614 219 682 q 186 460 186 546 m 417 85 q 511 110 468 85 q 584 185 554 136 q 631 303 614 233 q 647 460 647 372 q 614 667 647 583 l 267 160 q 417 85 326 85 m 376 968 l 326 1026 l 522 1204 l 588 1128 l 376 968 z "},"ǿ":{"ha":833,"x_min":83,"x_max":750,"o":"m 417 -17 q 222 43 307 -17 l 150 -42 l 86 17 l 160 103 q 103 206 124 147 q 83 336 83 264 q 110 487 83 421 q 183 599 138 553 q 290 668 229 644 q 417 692 350 692 q 611 632 526 692 l 683 717 l 747 658 l 674 572 q 730 469 710 528 q 750 336 750 410 q 723 187 750 253 q 650 76 696 121 q 544 7 604 31 q 417 -17 483 -17 m 201 336 q 233 189 201 253 l 544 554 q 417 600 492 600 q 328 581 368 600 q 260 526 289 561 q 217 443 232 492 q 201 336 201 394 m 417 75 q 505 94 465 75 q 573 148 544 114 q 617 230 601 182 q 632 336 632 278 q 600 485 632 424 l 288 119 q 347 87 314 99 q 417 75 379 75 m 388 789 l 328 846 l 525 1079 l 606 1001 l 388 789 z "},"Ș":{"ha":833,"x_min":93,"x_max":746,"o":"m 424 -17 q 240 19 324 -17 q 93 118 156 56 l 163 199 q 282 116 214 147 q 429 85 350 85 q 576 125 524 85 q 628 229 628 165 q 615 290 628 265 q 581 333 603 315 q 528 365 558 351 q 464 394 499 379 l 333 451 q 264 485 299 465 q 201 532 229 504 q 154 598 172 560 q 136 686 136 636 q 158 782 136 738 q 220 859 181 826 q 315 910 260 892 q 435 928 369 928 q 593 897 521 928 q 715 815 665 865 l 654 740 q 556 803 610 781 q 431 826 501 826 q 303 791 351 826 q 254 693 254 756 q 269 637 254 660 q 306 597 283 614 q 358 567 329 579 q 417 542 388 554 l 544 486 q 623 448 586 469 q 687 398 660 426 q 730 331 714 369 q 746 243 746 293 q 724 142 746 189 q 660 59 701 94 q 558 3 618 24 q 424 -17 499 -17 m 314 -314 l 303 -258 q 422 -235 390 -251 q 454 -192 454 -219 q 429 -151 454 -164 q 356 -133 404 -137 l 381 -81 q 507 -116 471 -92 q 543 -187 543 -140 q 484 -278 543 -249 q 314 -314 425 -308 z "},"ș":{"ha":833,"x_min":99,"x_max":731,"o":"m 431 -17 q 246 15 331 -17 q 99 89 161 46 l 151 164 q 280 97 210 122 q 444 72 350 72 q 573 103 531 72 q 615 178 615 135 q 608 214 615 197 q 578 246 601 231 q 514 275 556 261 q 404 303 472 289 q 206 377 272 331 q 140 500 140 424 q 158 576 140 540 q 212 637 176 611 q 299 677 247 663 q 421 692 351 692 q 571 666 499 692 q 693 606 643 640 l 638 532 q 533 583 590 564 q 411 603 476 603 q 290 574 325 603 q 256 506 256 544 q 301 438 256 461 q 451 393 347 415 q 590 355 536 375 q 676 310 644 335 q 719 254 707 285 q 731 185 731 224 q 711 107 731 143 q 653 43 692 71 q 559 -1 615 15 q 431 -17 503 -17 m 308 -314 l 297 -258 q 417 -235 385 -251 q 449 -192 449 -219 q 424 -151 449 -164 q 350 -133 399 -137 l 375 -81 q 501 -116 465 -92 q 538 -187 538 -140 q 478 -278 538 -249 q 308 -314 419 -308 z "},"Ț":{"ha":833,"x_min":58,"x_max":775,"o":"m 358 0 l 358 814 l 58 814 l 58 911 l 775 911 l 775 814 l 475 814 l 475 0 l 358 0 m 296 -314 l 285 -258 q 404 -235 372 -251 q 436 -192 436 -219 q 411 -151 436 -164 q 338 -133 386 -137 l 363 -81 q 489 -116 453 -92 q 525 -187 525 -140 q 466 -278 525 -249 q 296 -314 407 -308 z "},"ț":{"ha":833,"x_min":96,"x_max":758,"o":"m 547 -17 q 424 3 474 -17 q 343 60 374 24 q 299 149 313 97 q 286 263 286 200 l 286 582 l 96 582 l 96 668 l 290 675 l 306 892 l 400 892 l 400 675 l 732 675 l 732 582 l 400 582 l 400 261 q 408 181 400 215 q 436 124 417 147 q 489 88 456 100 q 571 76 522 76 q 658 85 619 76 q 733 107 697 93 l 758 24 q 662 -5 713 7 q 547 -17 611 -17 m 406 -314 l 394 -258 q 514 -235 482 -251 q 546 -192 546 -219 q 521 -151 546 -164 q 447 -133 496 -137 l 472 -81 q 599 -116 563 -92 q 635 -187 635 -140 q 576 -278 635 -249 q 406 -314 517 -308 z "},"ȷ":{"ha":833,"x_min":76,"x_max":553,"o":"m 269 -301 q 167 -288 217 -301 q 76 -256 117 -275 l 114 -171 q 190 -199 150 -189 q 268 -208 229 -208 q 351 -196 318 -208 q 404 -160 385 -183 q 431 -102 424 -136 q 439 -25 439 -68 l 439 582 l 125 582 l 125 675 l 553 675 l 553 -17 q 539 -131 553 -79 q 492 -222 525 -183 q 406 -281 460 -260 q 269 -301 351 -301 z "},"Ƀ":{"ha":833,"x_min":36,"x_max":768,"o":"m 146 0 l 146 225 l 36 225 l 36 303 l 146 311 l 146 911 l 404 911 q 531 899 474 911 q 630 860 589 886 q 694 791 671 833 q 717 689 717 749 q 678 566 717 621 q 557 490 639 511 l 557 485 q 713 415 657 469 q 768 267 768 361 q 743 150 768 200 q 673 67 718 100 q 565 17 628 33 q 425 0 501 0 l 146 0 m 261 97 l 408 97 q 590 138 526 97 q 654 272 654 179 q 592 394 654 357 q 408 431 529 431 l 261 431 l 261 311 l 458 311 l 458 225 l 261 225 l 261 97 m 261 528 l 385 528 q 552 565 501 528 q 603 679 603 603 q 549 784 603 754 q 390 814 496 814 l 261 814 l 261 528 z "},"ɐ":{"ha":833,"x_min":131,"x_max":735,"o":"m 406 -17 q 199 59 267 -17 q 131 261 131 135 l 131 675 l 225 675 l 235 583 l 239 583 q 364 660 294 628 q 504 692 433 692 q 594 679 551 692 q 667 642 636 667 q 717 581 699 617 q 735 500 735 546 q 707 401 735 443 q 620 328 679 358 q 469 278 561 297 q 246 249 376 258 q 257 183 247 214 q 288 128 267 151 q 342 92 308 106 q 424 78 375 78 q 552 103 490 78 q 661 158 614 129 l 706 81 q 647 47 681 64 q 574 15 613 29 q 493 -8 536 1 q 406 -17 450 -17 m 246 322 q 426 346 354 331 q 542 383 499 361 q 605 431 586 404 q 624 492 624 458 q 611 541 624 521 q 578 574 599 561 q 531 594 558 588 q 475 600 504 600 q 360 574 417 600 q 246 500 304 549 l 246 322 z "},"ɑ":{"ha":833,"x_min":83,"x_max":704,"o":"m 375 -17 q 256 7 310 -17 q 164 76 203 31 q 104 186 125 121 q 83 336 83 251 q 108 484 83 418 q 176 596 133 550 q 275 667 219 642 q 392 692 331 692 q 501 668 451 692 q 599 600 551 644 l 603 600 l 613 675 l 704 675 l 704 0 l 610 0 l 600 89 l 596 89 q 497 15 556 46 q 375 -17 439 -17 m 400 79 q 590 181 500 79 l 590 517 q 501 578 544 560 q 413 596 457 596 q 330 577 368 596 q 263 524 292 558 q 218 443 235 490 q 201 338 201 396 q 253 147 201 215 q 400 79 306 79 z "},"ɒ":{"ha":833,"x_min":129,"x_max":750,"o":"m 444 -17 q 339 8 394 -17 q 235 75 283 32 l 231 75 l 221 0 l 129 0 l 129 675 l 224 675 l 233 586 l 238 586 q 340 660 278 629 q 471 692 403 692 q 591 667 539 692 q 678 598 643 643 q 732 490 714 553 q 750 349 750 426 q 725 194 750 263 q 658 79 700 126 q 560 8 615 32 q 444 -17 504 -17 m 425 79 q 507 97 469 79 q 572 150 544 115 q 616 233 600 185 q 632 343 632 282 q 587 527 632 458 q 440 596 542 596 q 339 570 390 596 q 243 494 288 544 l 243 158 q 340 97 292 114 q 425 79 388 79 z "},"ɓ":{"ha":833,"x_min":129,"x_max":750,"o":"m 446 -17 q 340 7 396 -17 q 235 75 283 31 l 231 75 l 221 0 l 129 0 l 129 746 q 144 851 129 804 q 191 933 160 899 q 269 987 222 968 q 379 1006 317 1006 q 449 998 415 1006 q 508 979 482 990 l 482 892 q 435 908 458 903 q 390 913 411 913 q 281 869 315 913 q 243 749 246 826 l 238 579 l 243 579 q 349 654 289 626 q 469 682 410 682 q 590 658 538 682 q 678 590 643 633 q 732 483 714 546 q 750 343 750 419 q 725 190 750 257 q 658 78 700 124 q 560 8 615 32 q 446 -17 506 -17 m 426 79 q 508 97 469 79 q 573 149 546 115 q 616 232 600 183 q 632 342 632 281 q 587 519 632 451 q 442 586 542 586 q 346 562 397 586 q 243 485 294 538 l 243 158 q 341 97 292 114 q 426 79 390 79 z "},"ɔ":{"ha":833,"x_min":85,"x_max":722,"o":"m 357 -17 q 208 11 278 -17 q 85 89 139 39 l 136 163 q 230 102 176 126 q 346 78 283 78 q 451 97 404 78 q 533 149 499 115 q 585 231 567 183 q 604 336 604 278 q 586 442 604 394 q 535 525 568 490 q 458 578 503 560 q 358 597 413 597 q 249 576 297 597 q 157 519 200 556 l 99 593 q 208 663 142 633 q 365 692 274 692 q 502 668 438 692 q 616 599 567 644 q 694 487 665 553 q 722 336 722 421 q 694 187 722 253 q 617 76 665 121 q 501 7 568 31 q 357 -17 433 -17 z "},"ɕ":{"ha":833,"x_min":111,"x_max":746,"o":"m 501 75 q 617 97 578 75 q 656 154 656 119 q 636 195 656 179 q 572 211 617 211 q 482 181 532 211 q 385 96 432 150 q 501 75 436 75 m 257 -142 l 164 -103 q 201 -17 181 -58 q 244 60 221 24 q 147 174 182 104 q 111 336 111 244 q 141 487 111 421 q 222 599 171 553 q 339 668 272 644 q 479 692 406 692 q 628 664 567 692 q 733 593 689 636 l 678 522 q 590 581 638 560 q 483 601 542 601 q 381 582 428 601 q 299 528 333 563 q 244 444 264 493 q 224 336 224 396 q 245 225 224 274 q 306 143 267 176 q 442 254 371 215 q 579 293 513 293 q 703 256 660 293 q 746 156 746 218 q 684 33 746 83 q 499 -17 622 -17 q 325 15 406 -17 q 287 -60 304 -21 q 257 -142 269 -99 z "},"ɖ":{"ha":833,"x_min":83,"x_max":843,"o":"m 758 -244 q 631 -194 671 -244 q 590 -54 590 -143 l 593 85 l 589 85 q 492 13 549 43 q 374 -17 436 -17 q 255 7 308 -17 q 163 76 201 31 q 104 186 125 121 q 83 336 83 251 q 109 484 83 418 q 177 596 135 550 q 274 667 219 642 q 389 692 329 692 q 497 668 450 692 q 589 604 544 644 l 593 604 l 586 729 l 586 989 l 701 989 l 701 -29 q 716 -119 701 -87 q 771 -151 731 -151 q 797 -147 785 -151 q 821 -139 810 -143 l 843 -226 q 806 -239 828 -233 q 758 -244 785 -244 m 400 79 q 586 181 497 79 l 586 517 q 496 578 540 560 q 408 596 451 596 q 328 577 365 596 q 262 524 290 558 q 217 443 233 490 q 201 338 201 396 q 254 147 201 215 q 400 79 307 79 z "},"ɗ":{"ha":833,"x_min":83,"x_max":847,"o":"m 374 -17 q 163 75 242 -17 q 83 336 83 167 q 108 484 83 418 q 176 596 133 550 q 273 667 218 642 q 388 692 328 692 q 495 669 447 692 q 588 604 543 646 l 592 604 l 589 729 l 589 807 q 633 955 589 901 q 769 1008 678 1008 q 813 1005 793 1008 q 847 994 832 1001 l 825 907 q 805 913 815 910 q 782 915 794 915 q 718 881 736 915 q 700 788 700 846 l 700 0 l 606 0 l 596 89 l 592 89 q 494 15 551 46 q 374 -17 436 -17 m 399 79 q 586 181 496 79 l 586 517 q 496 578 540 560 q 407 596 451 596 q 328 577 365 596 q 262 524 290 558 q 217 443 233 490 q 201 338 201 396 q 253 147 201 215 q 399 79 306 79 z "},"ɘ":{"ha":833,"x_min":88,"x_max":738,"o":"m 403 601 q 257 550 315 601 q 190 394 199 499 l 621 394 q 546 548 606 494 q 403 601 486 601 m 375 -17 q 229 7 293 -17 q 115 63 165 31 l 156 138 q 252 92 203 108 q 363 75 301 75 q 460 90 414 75 q 540 133 506 104 q 597 206 575 163 q 624 306 618 249 l 92 306 q 88 338 89 318 q 88 375 88 357 q 110 504 88 446 q 176 604 133 563 q 278 669 218 646 q 410 692 338 692 q 536 667 476 692 q 640 597 596 643 q 711 485 685 551 q 738 336 738 419 q 709 188 738 253 q 631 77 681 122 q 516 8 582 32 q 375 -17 450 -17 z "},"ə":{"ha":833,"x_min":96,"x_max":746,"o":"m 413 -17 q 277 8 336 -17 q 178 75 218 32 q 117 178 138 118 q 96 311 96 239 q 97 349 96 329 q 101 381 99 368 l 631 381 q 556 546 619 490 q 388 601 492 601 q 276 584 326 601 q 181 538 226 567 l 139 613 q 254 668 190 644 q 400 692 318 692 q 540 667 476 692 q 650 598 604 643 q 721 488 696 553 q 746 339 746 422 q 720 188 746 254 q 649 76 694 122 q 543 7 604 31 q 413 -17 482 -17 m 410 75 q 560 129 501 75 q 631 292 619 183 l 199 292 q 260 129 206 183 q 410 75 315 75 z "},"ɚ":{"ha":833,"x_min":31,"x_max":863,"o":"m 301 -17 q 189 6 238 -17 q 107 68 140 29 q 55 160 74 107 q 31 274 36 213 l 454 456 q 384 567 431 533 q 278 601 338 601 q 186 585 225 601 q 111 544 147 569 l 71 622 q 167 673 115 654 q 288 692 219 692 q 451 643 382 692 q 556 499 521 594 l 657 543 l 717 519 q 725 455 719 479 q 739 417 731 431 q 758 398 747 403 q 785 393 769 393 q 811 400 799 393 q 832 414 824 407 l 863 354 q 826 331 847 342 q 776 319 804 319 q 699 347 736 319 q 649 450 663 375 l 575 419 q 580 374 578 397 q 582 328 582 351 q 562 190 582 253 q 505 81 542 126 q 417 9 468 35 q 301 -17 365 -17 m 300 74 q 372 90 339 74 q 426 138 404 107 q 461 211 449 168 q 474 306 474 254 q 473 342 474 325 q 471 375 472 358 l 131 231 q 194 110 150 147 q 300 74 238 74 z "},"ɛ":{"ha":833,"x_min":126,"x_max":743,"o":"m 442 -17 q 313 -3 371 -17 q 214 36 256 10 q 149 101 172 63 q 126 188 126 139 q 172 299 126 260 q 285 356 218 338 l 285 361 q 194 422 226 383 q 161 511 161 461 q 183 591 161 557 q 243 647 204 625 q 335 681 282 669 q 453 692 389 692 q 605 668 538 692 q 726 606 672 644 l 681 531 q 580 583 632 564 q 458 601 528 601 q 322 576 369 601 q 275 497 275 550 q 479 394 275 394 l 553 394 l 553 306 l 460 306 q 297 281 353 306 q 240 197 240 256 q 297 106 240 138 q 460 75 354 75 q 585 94 528 75 q 693 157 643 113 l 743 82 q 606 5 679 26 q 442 -17 533 -17 z "},"ɜ":{"ha":833,"x_min":86,"x_max":713,"o":"m 389 -17 q 232 5 306 -17 q 86 85 158 26 l 136 160 q 256 93 194 111 q 379 75 317 75 q 542 106 485 75 q 599 196 599 138 q 545 280 599 254 q 390 306 492 306 l 274 306 l 274 394 l 374 394 q 519 422 471 394 q 567 499 567 449 q 381 601 567 601 q 255 583 307 601 q 150 525 203 564 l 103 601 q 230 668 161 644 q 388 692 299 692 q 505 681 451 692 q 597 647 558 669 q 658 590 636 625 q 679 510 679 556 q 649 422 679 460 q 558 360 619 383 l 558 354 q 670 298 628 336 q 713 186 713 260 q 689 100 713 138 q 623 36 665 63 q 521 -3 581 10 q 389 -17 461 -17 z "},"ɞ":{"ha":833,"x_min":85,"x_max":746,"o":"m 454 -17 q 308 6 375 -17 q 190 72 240 28 q 113 183 140 117 q 85 335 85 249 q 115 490 85 422 q 194 601 144 557 q 310 669 244 646 q 446 692 375 692 q 550 681 501 692 q 635 647 599 669 q 691 590 671 625 q 711 510 711 556 q 682 419 711 460 q 594 360 653 379 l 594 354 q 653 333 625 347 q 701 299 681 319 q 734 250 722 278 q 746 186 746 222 q 667 36 746 89 q 454 -17 589 -17 m 456 75 q 586 106 540 75 q 632 196 632 138 q 583 278 632 251 q 458 306 533 306 l 410 306 l 410 394 l 447 394 q 560 422 519 394 q 600 497 600 450 q 559 576 600 550 q 450 601 518 601 q 351 583 397 601 q 272 531 306 565 q 219 447 239 497 q 200 335 200 397 q 269 140 200 206 q 456 75 338 75 z "},"ɟ":{"ha":833,"x_min":76,"x_max":783,"o":"m 269 -301 q 167 -288 217 -301 q 76 -256 117 -275 l 114 -171 q 190 -199 150 -189 q 268 -208 229 -208 q 351 -196 318 -208 q 404 -160 385 -183 q 431 -102 424 -136 q 439 -25 439 -68 l 439 286 l 169 286 l 169 369 l 439 378 l 439 582 l 125 582 l 125 675 l 553 675 l 553 378 l 783 378 l 783 286 l 553 286 l 553 -17 q 539 -131 553 -79 q 492 -222 525 -183 q 406 -281 460 -260 q 269 -301 351 -301 z "},"ɠ":{"ha":833,"x_min":83,"x_max":849,"o":"m 388 -300 q 255 -281 321 -300 q 132 -226 189 -262 l 175 -146 q 281 -194 226 -179 q 388 -208 336 -208 q 535 -160 485 -208 q 586 -31 585 -112 l 592 104 l 588 104 q 492 35 549 64 q 374 7 436 7 q 255 31 308 7 q 163 98 201 54 q 104 205 125 142 q 83 347 83 268 q 109 490 83 426 q 177 599 135 554 q 275 667 219 643 q 390 692 331 692 q 499 668 450 692 q 588 604 547 644 l 592 604 l 589 671 q 633 818 589 763 q 771 874 676 874 q 814 870 794 874 q 849 860 833 867 l 826 772 q 783 781 807 781 q 719 746 738 781 q 701 653 701 711 l 701 -33 q 618 -230 701 -160 q 388 -300 535 -300 m 400 101 q 586 203 496 101 l 586 517 q 496 578 540 561 q 408 596 451 596 q 328 578 365 596 q 262 526 290 560 q 217 448 233 493 q 201 349 201 403 q 254 168 201 235 q 400 101 307 101 z "},"ɡ":{"ha":833,"x_min":83,"x_max":704,"o":"m 389 -301 q 255 -283 322 -301 q 132 -229 188 -265 l 174 -147 q 282 -195 226 -181 q 389 -210 338 -210 q 538 -161 486 -210 q 593 -31 590 -112 l 596 104 l 592 104 q 494 35 551 64 q 375 7 438 7 q 256 31 310 7 q 164 98 203 54 q 104 205 125 142 q 83 347 83 268 q 108 490 83 426 q 176 599 133 554 q 274 667 218 643 q 392 692 331 692 q 503 667 451 692 q 599 600 554 643 l 603 600 l 613 675 l 704 675 l 704 -26 q 622 -228 704 -154 q 389 -301 540 -301 m 400 101 q 590 203 497 101 l 590 517 q 500 578 544 560 q 411 596 456 596 q 330 578 368 596 q 263 526 292 560 q 217 448 233 493 q 200 349 200 403 q 253 168 200 235 q 400 101 307 101 z "},"ɢ":{"ha":833,"x_min":108,"x_max":731,"o":"m 471 -17 q 330 6 396 -17 q 215 74 264 29 q 137 185 165 119 q 108 338 108 251 q 138 486 108 421 q 219 597 168 551 q 336 667 269 643 q 478 692 403 692 q 627 663 568 692 q 728 594 686 633 l 671 522 q 592 578 635 554 q 483 601 550 601 q 384 584 431 601 q 302 533 338 567 q 246 449 267 499 q 225 338 225 400 q 244 228 225 276 q 297 145 263 179 q 376 93 331 111 q 476 75 422 75 q 562 89 522 75 q 631 126 601 103 l 631 282 l 444 282 l 444 364 l 731 364 l 731 79 q 621 11 688 39 q 471 -17 554 -17 z "},"ɣ":{"ha":833,"x_min":71,"x_max":763,"o":"m 419 -311 q 300 -266 342 -311 q 258 -147 258 -221 q 265 -99 258 -122 q 283 -49 271 -75 q 310 6 294 -24 q 344 72 325 36 l 71 675 l 188 675 l 344 306 q 380 219 364 257 q 417 135 396 182 l 422 135 q 460 219 443 182 q 496 306 476 257 l 651 675 l 763 675 l 494 72 q 528 6 513 36 q 556 -49 544 -24 q 574 -99 568 -75 q 581 -147 581 -122 q 539 -266 581 -221 q 419 -311 497 -311 m 419 -232 q 467 -208 451 -232 q 482 -150 482 -185 q 465 -73 482 -114 q 422 15 449 -32 l 415 15 q 374 -74 390 -32 q 357 -150 357 -117 q 372 -208 357 -185 q 419 -232 388 -232 z "},"ɤ":{"ha":833,"x_min":83,"x_max":750,"o":"m 417 -17 q 228 46 297 -17 q 158 218 158 108 q 208 367 158 296 q 338 504 258 438 q 260 574 294 551 q 186 597 225 597 q 119 578 147 597 l 83 661 q 137 684 106 676 q 200 692 168 692 q 309 660 257 692 q 417 571 361 629 q 524 660 471 629 q 633 692 576 692 q 697 684 665 692 q 750 661 728 676 l 714 578 q 647 597 686 597 q 573 574 607 597 q 496 504 539 551 q 625 367 575 438 q 675 218 675 296 q 606 46 675 108 q 417 -17 536 -17 m 417 78 q 526 118 486 78 q 565 221 565 158 q 524 338 565 282 q 417 450 482 394 q 310 338 351 394 q 268 221 268 282 q 308 118 268 158 q 417 78 347 78 z "},"ɥ":{"ha":833,"x_min":107,"x_max":704,"o":"m 590 -285 l 590 -43 l 596 115 q 481 22 542 60 q 340 -17 419 -17 q 163 52 219 -17 q 107 256 107 121 l 107 675 l 221 675 l 221 271 q 257 128 221 175 q 376 82 293 82 q 433 90 407 82 q 483 113 458 97 q 535 151 508 128 q 590 204 561 174 l 590 675 l 704 675 l 704 -285 l 590 -285 z "},"ɦ":{"ha":833,"x_min":129,"x_max":726,"o":"m 129 0 l 129 746 q 144 851 129 804 q 191 933 160 899 q 269 987 222 968 q 379 1006 317 1006 q 449 998 415 1006 q 508 979 482 990 l 482 892 q 435 908 458 903 q 390 913 411 913 q 281 869 315 913 q 243 749 246 826 l 235 550 l 240 550 q 353 644 293 606 q 493 682 414 682 q 670 613 614 682 q 726 408 726 543 l 726 0 l 613 0 l 613 394 q 576 536 613 490 q 457 582 540 582 q 401 574 426 582 q 350 551 375 567 q 299 514 325 536 q 243 461 272 492 l 243 0 l 129 0 z "},"ɧ":{"ha":833,"x_min":129,"x_max":726,"o":"m 533 -254 q 472 -248 500 -254 q 425 -235 444 -242 l 447 -147 q 481 -157 463 -153 q 521 -161 500 -161 q 594 -124 576 -161 q 613 -19 613 -86 l 613 394 q 576 536 613 490 q 457 582 540 582 q 401 574 426 582 q 350 551 375 567 q 299 514 325 536 q 243 461 272 492 l 243 0 l 129 0 l 129 746 q 144 851 129 804 q 191 933 160 899 q 269 987 222 968 q 379 1006 317 1006 q 448 998 415 1006 q 508 979 481 990 l 482 892 q 390 913 433 913 q 281 869 315 913 q 243 749 246 826 l 235 550 l 240 550 q 353 644 293 606 q 493 682 414 682 q 670 613 614 682 q 726 408 726 543 l 726 -19 q 683 -191 726 -128 q 533 -254 639 -254 z "},"ɨ":{"ha":833,"x_min":125,"x_max":783,"o":"m 183 292 l 183 369 l 439 378 l 439 582 l 125 582 l 125 675 l 553 675 l 553 378 l 783 378 l 783 292 l 553 292 l 553 0 l 439 0 l 439 292 l 183 292 m 483 817 q 418 841 444 817 q 392 906 392 865 q 418 970 392 946 q 483 994 444 994 q 549 970 522 994 q 575 906 575 946 q 549 841 575 865 q 483 817 522 817 z "},"ɪ":{"ha":833,"x_min":119,"x_max":714,"o":"m 119 0 l 119 93 l 358 93 l 358 582 l 119 582 l 119 675 l 714 675 l 714 582 l 472 582 l 472 93 l 714 93 l 714 0 l 119 0 z "},"ɫ":{"ha":833,"x_min":103,"x_max":746,"o":"m 565 -17 q 400 44 457 -17 q 343 226 343 106 l 343 896 l 103 896 l 103 989 l 457 989 l 457 218 q 493 110 457 143 q 590 78 529 78 q 717 108 650 78 l 746 24 q 660 -6 699 4 q 565 -17 621 -17 m 532 438 q 453 456 486 438 q 391 496 419 474 q 336 536 363 518 q 279 554 310 554 q 233 524 249 554 q 215 446 218 494 l 139 460 q 149 530 140 497 q 173 586 157 563 q 213 624 189 610 q 271 638 238 638 q 351 619 317 638 q 413 579 385 601 q 467 539 442 557 q 524 521 493 521 q 569 551 554 521 q 588 628 585 581 l 664 615 q 653 545 661 578 q 630 489 646 513 q 590 451 614 465 q 532 438 565 438 z "},"ɬ":{"ha":833,"x_min":103,"x_max":746,"o":"m 322 419 q 156 460 206 419 q 106 567 106 501 q 141 653 106 619 q 231 686 176 686 q 297 673 269 686 q 343 639 324 660 l 343 896 l 103 896 l 103 989 l 457 989 l 457 508 l 651 508 l 651 419 l 457 419 l 457 218 q 493 110 457 143 q 590 78 529 78 q 717 108 650 78 l 746 24 q 660 -6 699 4 q 565 -17 621 -17 q 400 44 457 -17 q 343 226 343 106 l 343 419 l 322 419 m 297 508 l 343 508 l 343 517 q 319 577 343 549 q 242 606 294 606 q 210 594 222 606 q 197 561 197 582 q 297 508 197 508 z "},"ɭ":{"ha":833,"x_min":103,"x_max":746,"o":"m 564 -254 q 399 -193 456 -254 q 343 -11 343 -132 l 343 896 l 103 896 l 103 989 l 457 989 l 457 -19 q 492 -126 457 -94 q 589 -158 528 -158 q 649 -151 618 -158 q 717 -128 679 -144 l 746 -214 q 660 -242 700 -231 q 564 -254 619 -254 z "},"ɮ":{"ha":833,"x_min":110,"x_max":793,"o":"m 497 -301 q 326 -268 393 -301 q 215 -193 258 -235 l 272 -121 q 359 -181 308 -156 q 488 -207 410 -207 q 561 -192 526 -207 q 622 -151 596 -178 q 662 -85 647 -124 q 676 0 676 -47 q 628 135 676 86 q 493 183 579 183 q 438 178 457 183 q 396 163 419 174 l 349 224 l 619 582 l 224 582 l 224 0 l 110 0 l 110 989 l 224 989 l 224 675 l 763 675 l 763 614 l 497 264 q 624 251 569 269 q 717 196 679 232 q 774 110 754 160 q 793 3 793 60 q 768 -127 793 -71 q 702 -222 743 -183 q 608 -281 661 -261 q 497 -301 554 -301 z "},"ɯ":{"ha":833,"x_min":58,"x_max":753,"o":"m 753 675 l 753 0 l 661 0 l 651 89 l 649 89 q 588 13 622 42 q 494 -17 553 -17 q 367 100 396 -17 q 302 15 338 46 q 208 -17 267 -17 q 98 37 138 -17 q 58 192 58 90 l 58 675 l 172 675 l 172 200 q 244 82 172 82 q 303 108 281 82 q 353 186 325 133 l 353 675 l 458 675 l 458 200 q 474 112 458 142 q 528 82 490 82 q 589 108 564 82 q 639 186 614 133 l 639 675 l 753 675 z "},"ɰ":{"ha":833,"x_min":58,"x_max":753,"o":"m 644 -285 l 644 -46 l 653 93 l 647 93 q 586 13 619 42 q 494 -17 553 -17 q 367 100 396 -17 q 302 15 338 46 q 208 -17 267 -17 q 98 37 138 -17 q 58 192 58 90 l 58 675 l 172 675 l 172 200 q 244 82 172 82 q 303 108 281 82 q 353 186 325 133 l 353 675 l 458 675 l 458 200 q 474 112 458 142 q 528 82 490 82 q 589 108 564 82 q 639 186 614 133 l 639 675 l 753 675 l 753 -285 l 644 -285 z "}}}
